STARTFONT 2.1
FONT -FontForge-Noto Mono-Book-R-Normal--26-250-75-75-P-159-ISO8859-1
SIZE 25 75 75
FONTBOUNDINGBOX 21 35 -4 -7
COMMENT "Generated by fontforge, http://fontforge.sourceforge.net"
COMMENT "Copyright 2007 Google Inc. All Rights Reserved."
STARTPROPERTIES 41
FOUNDRY "FontForge"
FAMILY_NAME "Noto Mono"
WEIGHT_NAME "Book"
SLANT "R"
SETWIDTH_NAME "Normal"
ADD_STYLE_NAME ""
PIXEL_SIZE 26
POINT_SIZE 250
RESOLUTION_X 75
RESOLUTION_Y 75
SPACING "P"
AVERAGE_WIDTH 159
CHARSET_REGISTRY "ISO8859"
CHARSET_ENCODING "1"
FONTNAME_REGISTRY ""
CHARSET_COLLECTIONS "ISO8859-2 ISO8859-5 ISO8859-7 ISO8859-9 ISO8859-4 ISOLatin1Encoding"
FONT_NAME "NotoMono"
FACE_NAME "Noto Mono"
COPYRIGHT "Copyright 2007 Google Inc. All Rights Reserved."
FONT_VERSION "1.00"
FONT_ASCENT 21
FONT_DESCENT 5
UNDERLINE_POSITION -3
UNDERLINE_THICKNESS 2
X_HEIGHT 13
CAP_HEIGHT 18
DEFAULT_CHAR 1
RAW_ASCENT 799
RAW_DESCENT 200
NORM_SPACE 16
RELATIVE_WEIGHT 40
RELATIVE_SETWIDTH 50
SUPERSCRIPT_X 0
SUPERSCRIPT_Y 12
SUPERSCRIPT_SIZE 16
SUBSCRIPT_X 0
SUBSCRIPT_Y 3
SUBSCRIPT_SIZE 16
FIGURE_WIDTH 16
AVG_LOWERCASE_WIDTH 160
AVG_UPPERCASE_WIDTH 160
ENDPROPERTIES
CHARS 897
STARTCHAR uni0000
ENCODING 0
SWIDTH 0 0
DWIDTH 0 0
BBX 1 1 0 0
BITMAP
00
ENDCHAR
STARTCHAR uni000D
ENCODING 13
SWIDTH 600 0
DWIDTH 16 0
BBX 1 1 0 0
BITMAP
00
ENDCHAR
STARTCHAR space
ENCODING 32
SWIDTH 600 0
DWIDTH 16 0
BBX 1 1 0 0
BITMAP
00
ENDCHAR
STARTCHAR exclam
ENCODING 33
SWIDTH 600 0
DWIDTH 16 0
BBX 3 19 6 0
BITMAP
E0
E0
E0
E0
E0
E0
60
60
60
60
60
40
40
00
00
00
E0
E0
E0
ENDCHAR
STARTCHAR quotedbl
ENCODING 34
SWIDTH 600 0
DWIDTH 16 0
BBX 8 7 4 12
BITMAP
E7
E7
E7
E7
E7
E7
E7
ENDCHAR
STARTCHAR numbersign
ENCODING 35
SWIDTH 600 0
DWIDTH 16 0
BBX 14 19 1 0
BITMAP
0630
0630
0630
0420
0C20
0C60
7FFC
7FFC
0C60
0860
18C0
18C0
FFF8
FFF8
18C0
10C0
3180
3180
3180
ENDCHAR
STARTCHAR dollar
ENCODING 36
SWIDTH 600 0
DWIDTH 16 0
BBX 11 21 3 -2
BITMAP
0600
0600
1FC0
7FC0
E640
C600
C600
E600
7E00
3F00
0780
07C0
06E0
0660
0660
C6E0
FFC0
7F00
0600
0600
0600
ENDCHAR
STARTCHAR percent
ENCODING 37
SWIDTH 600 0
DWIDTH 16 0
BBX 16 19 0 0
BITMAP
380C
7C18
C618
C630
C630
C660
C660
7CC0
38C0
0180
031C
033E
0663
0663
0C63
0C63
1863
183E
301C
ENDCHAR
STARTCHAR ampersand
ENCODING 38
SWIDTH 600 0
DWIDTH 16 0
BBX 15 19 1 0
BITMAP
0F80
1FC0
38E0
3060
3060
38E0
19C0
1F80
0F00
1E00
7F0C
639C
E1D8
C0F8
C070
E070
70F8
7FDC
1F0E
ENDCHAR
STARTCHAR quotesingle
ENCODING 39
SWIDTH 600 0
DWIDTH 16 0
BBX 3 7 6 12
BITMAP
E0
E0
E0
E0
E0
E0
E0
ENDCHAR
STARTCHAR parenleft
ENCODING 40
SWIDTH 600 0
DWIDTH 16 0
BBX 7 23 4 -4
BITMAP
06
0C
1C
38
30
70
60
60
E0
E0
C0
C0
C0
E0
E0
E0
60
70
30
38
1C
0C
06
ENDCHAR
STARTCHAR parenright
ENCODING 41
SWIDTH 600 0
DWIDTH 16 0
BBX 7 23 5 -4
BITMAP
C0
60
70
38
18
1C
0C
0C
0E
0E
06
06
0E
0E
0E
0C
0C
1C
18
38
70
60
C0
ENDCHAR
STARTCHAR asterisk
ENCODING 42
SWIDTH 600 0
DWIDTH 16 0
BBX 12 12 2 8
BITMAP
0E00
0E00
0600
0600
E4E0
FFF0
0E00
0B00
1B00
3980
71C0
1180
ENDCHAR
STARTCHAR plus
ENCODING 43
SWIDTH 600 0
DWIDTH 16 0
BBX 12 12 2 3
BITMAP
0600
0600
0600
0600
0600
FFF0
FFF0
0600
0600
0600
0600
0600
ENDCHAR
STARTCHAR comma
ENCODING 44
SWIDTH 600 0
DWIDTH 16 0
BBX 4 7 6 -4
BITMAP
70
70
60
60
E0
C0
C0
ENDCHAR
STARTCHAR hyphen
ENCODING 45
SWIDTH 600 0
DWIDTH 16 0
BBX 8 2 4 6
BITMAP
FF
FF
ENDCHAR
STARTCHAR period
ENCODING 46
SWIDTH 600 0
DWIDTH 16 0
BBX 4 4 6 0
BITMAP
F0
F0
F0
F0
ENDCHAR
STARTCHAR slash
ENCODING 47
SWIDTH 600 0
DWIDTH 16 0
BBX 10 19 3 0
BITMAP
00C0
0180
0180
0380
0300
0700
0600
0600
0E00
0C00
1C00
1800
1800
3800
3000
7000
6000
6000
C000
ENDCHAR
STARTCHAR zero
ENCODING 48
SWIDTH 600 0
DWIDTH 16 0
BBX 12 19 2 0
BITMAP
0F00
3FC0
70E0
6060
6060
E070
E070
C030
C030
C030
C030
C030
C070
E070
6060
6060
70E0
3FC0
0F00
ENDCHAR
STARTCHAR one
ENCODING 49
SWIDTH 600 0
DWIDTH 16 0
BBX 7 19 3 0
BITMAP
06
1E
3E
F6
46
06
06
06
06
06
06
06
06
06
06
06
06
06
06
ENDCHAR
STARTCHAR two
ENCODING 50
SWIDTH 600 0
DWIDTH 16 0
BBX 12 19 2 0
BITMAP
1F00
7FC0
E1C0
40E0
0060
0060
00E0
00E0
00C0
0180
0380
0700
0E00
1C00
3800
7000
E000
FFF0
FFF0
ENDCHAR
STARTCHAR three
ENCODING 51
SWIDTH 600 0
DWIDTH 16 0
BBX 12 19 2 0
BITMAP
1F00
7FC0
60E0
00E0
0060
0060
00E0
01C0
1F00
1FC0
00E0
0070
0030
0030
0070
0070
C0E0
FFC0
7F00
ENDCHAR
STARTCHAR four
ENCODING 52
SWIDTH 600 0
DWIDTH 16 0
BBX 14 19 1 0
BITMAP
00E0
00E0
01E0
0360
0360
0660
0E60
0C60
1860
3860
3060
6060
E060
FFFC
FFFC
0060
0060
0060
0060
ENDCHAR
STARTCHAR five
ENCODING 53
SWIDTH 600 0
DWIDTH 16 0
BBX 12 19 2 0
BITMAP
7FE0
7FE0
E000
E000
C000
C000
C000
FF00
FFC0
00E0
0070
0070
0030
0030
0070
0060
C0E0
FFC0
7F00
ENDCHAR
STARTCHAR six
ENCODING 54
SWIDTH 600 0
DWIDTH 16 0
BBX 12 19 2 0
BITMAP
07E0
1FE0
3C00
3000
6000
6000
E000
EF80
DFE0
F0E0
E070
C030
C030
C030
E030
6070
70E0
3FC0
0F80
ENDCHAR
STARTCHAR seven
ENCODING 55
SWIDTH 600 0
DWIDTH 16 0
BBX 12 19 2 0
BITMAP
FFF0
FFF0
0070
0060
0060
00C0
00C0
01C0
0180
0380
0300
0700
0600
0E00
0C00
0C00
1C00
1800
3800
ENDCHAR
STARTCHAR eight
ENCODING 56
SWIDTH 600 0
DWIDTH 16 0
BBX 12 19 2 0
BITMAP
1F80
3FC0
70E0
6060
6060
6060
70E0
39C0
1F80
1F80
39C0
6060
E070
C030
C030
E070
70E0
7FC0
1F80
ENDCHAR
STARTCHAR nine
ENCODING 57
SWIDTH 600 0
DWIDTH 16 0
BBX 12 19 2 0
BITMAP
1F00
3FC0
70E0
E060
C070
C030
C030
C030
E070
60F0
7FB0
1F70
0070
0060
0060
00C0
01C0
7F80
7E00
ENDCHAR
STARTCHAR colon
ENCODING 58
SWIDTH 600 0
DWIDTH 16 0
BBX 3 14 6 0
BITMAP
E0
E0
E0
E0
00
00
00
00
00
00
E0
E0
E0
E0
ENDCHAR
STARTCHAR semicolon
ENCODING 59
SWIDTH 600 0
DWIDTH 16 0
BBX 4 17 5 -3
BITMAP
70
70
70
70
00
00
00
00
00
00
00
70
70
60
E0
C0
C0
ENDCHAR
STARTCHAR less
ENCODING 60
SWIDTH 600 0
DWIDTH 16 0
BBX 12 13 2 3
BITMAP
0010
0070
01E0
0780
1E00
7800
E000
7800
1E00
0780
01E0
0070
0010
ENDCHAR
STARTCHAR equal
ENCODING 61
SWIDTH 600 0
DWIDTH 16 0
BBX 12 7 2 6
BITMAP
FFF0
FFF0
0000
0000
0000
FFF0
FFF0
ENDCHAR
STARTCHAR greater
ENCODING 62
SWIDTH 600 0
DWIDTH 16 0
BBX 12 13 2 3
BITMAP
8000
E000
7800
1E00
0780
01E0
0070
01E0
0780
1E00
7800
E000
8000
ENDCHAR
STARTCHAR question
ENCODING 63
SWIDTH 600 0
DWIDTH 16 0
BBX 12 19 2 0
BITMAP
3F80
FFE0
60F0
0070
0030
0030
0070
00E0
0380
0700
0E00
0C00
1C00
0000
0000
0800
1C00
1C00
1C00
ENDCHAR
STARTCHAR at
ENCODING 64
SWIDTH 600 0
DWIDTH 16 0
BBX 16 21 0 -2
BITMAP
03E0
0FF8
181C
300E
6006
61F2
47F3
C633
CC33
CC33
CC33
CC33
CC33
CC72
C7DE
638C
6000
3000
3804
0FFC
03F0
ENDCHAR
STARTCHAR A
ENCODING 65
SWIDTH 600 0
DWIDTH 16 0
BBX 16 19 0 0
BITMAP
0180
03C0
03C0
03E0
0660
0660
0E70
0C30
0C30
1C38
1818
1FF8
3FFC
300C
300C
700E
6006
6006
E007
ENDCHAR
STARTCHAR B
ENCODING 66
SWIDTH 600 0
DWIDTH 16 0
BBX 13 19 2 0
BITMAP
FF80
FFE0
C0F0
C070
C070
C070
C070
C0E0
FFC0
FFC0
C070
C038
C038
C038
C038
C038
C070
FFE0
FFC0
ENDCHAR
STARTCHAR C
ENCODING 67
SWIDTH 600 0
DWIDTH 16 0
BBX 13 19 2 0
BITMAP
07F0
1FF8
3C10
7800
7000
6000
E000
E000
E000
E000
E000
E000
E000
E000
7000
7000
3C10
1FF0
07E0
ENDCHAR
STARTCHAR D
ENCODING 68
SWIDTH 600 0
DWIDTH 16 0
BBX 13 19 2 0
BITMAP
FF00
FFC0
C1E0
C070
C070
C030
C038
C038
C038
C038
C038
C038
C038
C030
C070
C0E0
C1E0
FFC0
FE00
ENDCHAR
STARTCHAR E
ENCODING 69
SWIDTH 600 0
DWIDTH 16 0
BBX 11 19 3 0
BITMAP
FFE0
FFE0
C000
C000
C000
C000
C000
C000
FFC0
FFC0
C000
C000
C000
C000
C000
C000
C000
FFE0
FFE0
ENDCHAR
STARTCHAR F
ENCODING 70
SWIDTH 600 0
DWIDTH 16 0
BBX 11 19 3 0
BITMAP
FFE0
FFE0
C000
C000
C000
C000
C000
C000
C000
FFE0
FFE0
C000
C000
C000
C000
C000
C000
C000
C000
ENDCHAR
STARTCHAR G
ENCODING 71
SWIDTH 600 0
DWIDTH 16 0
BBX 13 19 1 0
BITMAP
07E0
1FF8
3C30
7000
7000
6000
E000
E000
E000
E1F8
E1F8
E018
E018
E018
6018
7018
3C18
1FF8
07E0
ENDCHAR
STARTCHAR H
ENCODING 72
SWIDTH 600 0
DWIDTH 16 0
BBX 12 19 2 0
BITMAP
C030
C030
C030
C030
C030
C030
C030
C030
FFF0
FFF0
C030
C030
C030
C030
C030
C030
C030
C030
C030
ENDCHAR
STARTCHAR I
ENCODING 73
SWIDTH 600 0
DWIDTH 16 0
BBX 10 19 3 0
BITMAP
FFC0
FFC0
0C00
0C00
0C00
0C00
0C00
0C00
0C00
0C00
0C00
0C00
0C00
0C00
0C00
0C00
0C00
FFC0
FFC0
ENDCHAR
STARTCHAR J
ENCODING 74
SWIDTH 600 0
DWIDTH 16 0
BBX 11 19 2 0
BITMAP
0060
0060
0060
0060
0060
0060
0060
0060
0060
0060
0060
0060
0060
0060
00E0
00E0
83C0
FF80
7E00
ENDCHAR
STARTCHAR K
ENCODING 75
SWIDTH 600 0
DWIDTH 16 0
BBX 12 19 3 0
BITMAP
C070
C0E0
C0C0
C180
C380
C700
C600
CC00
DC00
FC00
EE00
C700
C300
C380
C180
C1C0
C0E0
C060
C070
ENDCHAR
STARTCHAR L
ENCODING 76
SWIDTH 600 0
DWIDTH 16 0
BBX 11 19 3 0
BITMAP
C000
C000
C000
C000
C000
C000
C000
C000
C000
C000
C000
C000
C000
C000
C000
C000
C000
FFE0
FFE0
ENDCHAR
STARTCHAR M
ENCODING 77
SWIDTH 600 0
DWIDTH 16 0
BBX 14 19 1 0
BITMAP
F03C
F03C
F03C
F03C
F07C
D86C
D86C
D86C
D86C
CCCC
CCCC
CCCC
CCCC
CD8C
C78C
C78C
C78C
C70C
C30C
ENDCHAR
STARTCHAR N
ENCODING 78
SWIDTH 600 0
DWIDTH 16 0
BBX 12 19 2 0
BITMAP
E030
E030
F030
F030
D830
D830
CC30
CC30
CE30
C630
C730
C330
C330
C1B0
C1B0
C0F0
C0F0
C070
C070
ENDCHAR
STARTCHAR O
ENCODING 79
SWIDTH 600 0
DWIDTH 16 0
BBX 14 19 1 0
BITMAP
0FC0
1FE0
3870
7038
6018
E01C
E01C
E01C
E01C
E01C
E01C
E01C
E01C
E01C
6018
7038
3870
1FE0
0FC0
ENDCHAR
STARTCHAR P
ENCODING 80
SWIDTH 600 0
DWIDTH 16 0
BBX 12 19 2 0
BITMAP
FF80
FFC0
C0E0
C070
C070
C070
C070
C070
C060
C0E0
FFC0
FF00
C000
C000
C000
C000
C000
C000
C000
ENDCHAR
STARTCHAR Q
ENCODING 81
SWIDTH 600 0
DWIDTH 16 0
BBX 14 24 1 -5
BITMAP
0FC0
1FE0
3870
7038
6018
E01C
E01C
E01C
E01C
E01C
E01C
E01C
E01C
E01C
6018
7038
3870
1FE0
0FC0
00E0
0070
0038
001C
0008
ENDCHAR
STARTCHAR R
ENCODING 82
SWIDTH 600 0
DWIDTH 16 0
BBX 13 19 2 0
BITMAP
FF80
FFC0
C0E0
C070
C070
C070
C070
C070
C0E0
FFC0
FF00
C380
C380
C1C0
C0E0
C0E0
C070
C030
C038
ENDCHAR
STARTCHAR S
ENCODING 83
SWIDTH 600 0
DWIDTH 16 0
BBX 12 19 2 0
BITMAP
1FE0
7FF0
7060
E000
C000
C000
E000
7000
3E00
1F80
03E0
00E0
0070
0030
0030
0070
C0E0
FFC0
7F80
ENDCHAR
STARTCHAR T
ENCODING 84
SWIDTH 600 0
DWIDTH 16 0
BBX 13 19 2 0
BITMAP
FFF8
FFF8
0600
0600
0600
0600
0600
0600
0600
0600
0600
0600
0600
0600
0600
0600
0600
0600
0600
ENDCHAR
STARTCHAR U
ENCODING 85
SWIDTH 600 0
DWIDTH 16 0
BBX 12 19 2 0
BITMAP
C030
C030
C030
C030
C030
C030
C030
C030
C030
C030
C030
C030
C030
C070
E070
E060
70E0
3FC0
1F80
ENDCHAR
STARTCHAR V
ENCODING 86
SWIDTH 600 0
DWIDTH 16 0
BBX 16 19 0 0
BITMAP
E007
6006
6006
700E
300C
300C
381C
1818
1818
1C38
0C30
0E70
0E70
0660
06E0
03C0
03C0
03C0
0180
ENDCHAR
STARTCHAR W
ENCODING 87
SWIDTH 600 0
DWIDTH 16 0
BBX 16 19 0 0
BITMAP
C003
C003
C003
E007
6006
6006
6186
63C6
63C6
63C6
6246
3666
366C
366C
3C3C
3C3C
3C3C
381C
181C
ENDCHAR
STARTCHAR X
ENCODING 88
SWIDTH 600 0
DWIDTH 16 0
BBX 14 19 1 0
BITMAP
E01C
6018
7038
3870
1860
1CE0
0CC0
0F80
0780
0300
0780
0FC0
0CC0
1CE0
1860
3070
7038
6038
E01C
ENDCHAR
STARTCHAR Y
ENCODING 89
SWIDTH 600 0
DWIDTH 16 0
BBX 15 19 1 0
BITMAP
E00E
600C
701C
3018
3838
1830
1C60
0CE0
0CC0
07C0
0780
0380
0300
0300
0300
0300
0300
0300
0300
ENDCHAR
STARTCHAR Z
ENCODING 90
SWIDTH 600 0
DWIDTH 16 0
BBX 14 19 1 0
BITMAP
FFFC
FFFC
0018
0038
0030
0060
00C0
01C0
0180
0300
0600
0E00
0C00
1800
3000
7000
6000
FFFC
FFFC
ENDCHAR
STARTCHAR bracketleft
ENCODING 91
SWIDTH 600 0
DWIDTH 16 0
BBX 7 23 5 -4
BITMAP
FE
FE
C0
C0
C0
C0
C0
C0
C0
C0
C0
C0
C0
C0
C0
C0
C0
C0
C0
C0
C0
FE
FE
ENDCHAR
STARTCHAR backslash
ENCODING 92
SWIDTH 600 0
DWIDTH 16 0
BBX 10 19 3 0
BITMAP
C000
6000
6000
7000
3000
3800
1800
1800
1C00
0C00
0E00
0600
0600
0700
0300
0380
0180
0180
00C0
ENDCHAR
STARTCHAR bracketright
ENCODING 93
SWIDTH 600 0
DWIDTH 16 0
BBX 7 23 4 -4
BITMAP
FE
FE
06
06
06
06
06
06
06
06
06
06
06
06
06
06
06
06
06
06
06
FE
FE
ENDCHAR
STARTCHAR asciicircum
ENCODING 94
SWIDTH 600 0
DWIDTH 16 0
BBX 14 12 1 7
BITMAP
0200
0700
0580
0D80
0CC0
18C0
1860
3060
3030
6018
6018
C00C
ENDCHAR
STARTCHAR underscore
ENCODING 95
SWIDTH 600 0
DWIDTH 16 0
BBX 16 2 0 -4
BITMAP
FFFF
FFFF
ENDCHAR
STARTCHAR grave
ENCODING 96
SWIDTH 600 0
DWIDTH 16 0
BBX 5 4 6 16
BITMAP
E0
70
30
18
ENDCHAR
STARTCHAR a
ENCODING 97
SWIDTH 600 0
DWIDTH 16 0
BBX 11 14 2 0
BITMAP
1F80
7FC0
20E0
00E0
0060
0060
1FE0
7FE0
E060
C060
C0E0
E1E0
7F60
3E60
ENDCHAR
STARTCHAR b
ENCODING 98
SWIDTH 600 0
DWIDTH 16 0
BBX 12 20 2 0
BITMAP
C000
C000
C000
C000
C000
C000
CF80
DFC0
F0E0
E060
E070
C070
C030
C030
C070
E070
E060
F0E0
DFC0
CF80
ENDCHAR
STARTCHAR c
ENCODING 99
SWIDTH 600 0
DWIDTH 16 0
BBX 12 14 2 0
BITMAP
0FE0
3FF0
7820
6000
E000
E000
C000
C000
E000
E000
6000
7810
3FF0
0FE0
ENDCHAR
STARTCHAR d
ENCODING 100
SWIDTH 600 0
DWIDTH 16 0
BBX 12 20 2 0
BITMAP
0030
0030
0030
0030
0030
0030
1F30
3FB0
70F0
6070
E070
C030
C030
C030
C030
E070
6070
70F0
3FB0
1F30
ENDCHAR
STARTCHAR e
ENCODING 101
SWIDTH 600 0
DWIDTH 16 0
BBX 12 14 2 0
BITMAP
0F80
3FC0
70E0
6060
E070
C030
FFF0
FFF0
C000
E000
6000
7020
3FE0
0FC0
ENDCHAR
STARTCHAR f
ENCODING 102
SWIDTH 600 0
DWIDTH 16 0
BBX 13 20 2 0
BITMAP
03F8
07F8
0E00
0C00
0C00
0C00
FFF0
FFF0
0C00
0C00
0C00
0C00
0C00
0C00
0C00
0C00
0C00
0C00
0C00
0C00
ENDCHAR
STARTCHAR g
ENCODING 103
SWIDTH 600 0
DWIDTH 16 0
BBX 14 20 1 -6
BITMAP
0FFC
3FF8
7070
6030
6030
6030
7070
3FE0
0F80
1800
3000
3000
3FF0
3FF8
601C
C00C
C00C
E03C
7FF8
3FC0
ENDCHAR
STARTCHAR h
ENCODING 104
SWIDTH 600 0
DWIDTH 16 0
BBX 12 20 2 0
BITMAP
C000
C000
C000
C000
C000
C000
CFC0
DFE0
F070
E070
E030
C030
C030
C030
C030
C030
C030
C030
C030
C030
ENDCHAR
STARTCHAR i
ENCODING 105
SWIDTH 600 0
DWIDTH 16 0
BBX 11 20 3 0
BITMAP
0C00
0E00
0C00
0000
0000
0000
7C00
7C00
0C00
0C00
0C00
0C00
0C00
0C00
0C00
0C00
0C00
0C00
FFE0
FFE0
ENDCHAR
STARTCHAR j
ENCODING 106
SWIDTH 600 0
DWIDTH 16 0
BBX 9 26 2 -6
BITMAP
0380
0380
0180
0000
0000
0000
7F80
7F80
0180
0180
0180
0180
0180
0180
0180
0180
0180
0180
0180
0180
0180
0180
0380
0380
FF00
FC00
ENDCHAR
STARTCHAR k
ENCODING 107
SWIDTH 600 0
DWIDTH 16 0
BBX 12 20 3 0
BITMAP
C000
C000
C000
C000
C000
C000
C060
C0C0
C180
C300
CE00
DC00
DC00
FE00
E700
C300
C380
C1C0
C0E0
C070
ENDCHAR
STARTCHAR l
ENCODING 108
SWIDTH 600 0
DWIDTH 16 0
BBX 11 20 3 0
BITMAP
7C00
7C00
0C00
0C00
0C00
0C00
0C00
0C00
0C00
0C00
0C00
0C00
0C00
0C00
0C00
0C00
0C00
0C00
FFE0
FFE0
ENDCHAR
STARTCHAR m
ENCODING 109
SWIDTH 600 0
DWIDTH 16 0
BBX 14 14 1 0
BITMAP
CE78
DFF8
E79C
E38C
C30C
C30C
C30C
C30C
C30C
C30C
C30C
C30C
C30C
C30C
ENDCHAR
STARTCHAR n
ENCODING 110
SWIDTH 600 0
DWIDTH 16 0
BBX 12 14 2 0
BITMAP
CFC0
DFE0
F070
E070
E030
C030
C030
C030
C030
C030
C030
C030
C030
C030
ENDCHAR
STARTCHAR o
ENCODING 111
SWIDTH 600 0
DWIDTH 16 0
BBX 14 14 1 0
BITMAP
0FC0
3FF0
7038
6018
E01C
C01C
C00C
C00C
E01C
E01C
6018
7038
3FF0
0FC0
ENDCHAR
STARTCHAR p
ENCODING 112
SWIDTH 600 0
DWIDTH 16 0
BBX 12 20 2 -6
BITMAP
CF80
DFC0
F0E0
E060
E070
C070
C030
C030
C070
E070
E060
F0E0
DFC0
CF80
C000
C000
C000
C000
C000
C000
ENDCHAR
STARTCHAR q
ENCODING 113
SWIDTH 600 0
DWIDTH 16 0
BBX 12 20 2 -6
BITMAP
1F30
3FB0
70F0
6070
E070
C030
C030
C030
C030
E070
6070
70F0
3FB0
1F30
0030
0030
0030
0030
0030
0030
ENDCHAR
STARTCHAR r
ENCODING 114
SWIDTH 600 0
DWIDTH 16 0
BBX 11 14 3 0
BITMAP
C7E0
DFE0
F800
E000
E000
C000
C000
C000
C000
C000
C000
C000
C000
C000
ENDCHAR
STARTCHAR s
ENCODING 115
SWIDTH 600 0
DWIDTH 16 0
BBX 10 14 3 0
BITMAP
3F80
7FC0
E080
C000
E000
7800
3E00
0F80
03C0
00C0
00C0
81C0
FF80
7F00
ENDCHAR
STARTCHAR t
ENCODING 116
SWIDTH 600 0
DWIDTH 16 0
BBX 11 18 2 0
BITMAP
0800
0800
1800
1800
FFE0
FFE0
1800
1800
1800
1800
1800
1800
1800
1800
1800
1C00
0FE0
07E0
ENDCHAR
STARTCHAR u
ENCODING 117
SWIDTH 600 0
DWIDTH 16 0
BBX 12 14 2 0
BITMAP
C030
C030
C030
C030
C030
C030
C030
C030
C030
C070
E070
E0F0
7FB0
3F30
ENDCHAR
STARTCHAR v
ENCODING 118
SWIDTH 600 0
DWIDTH 16 0
BBX 14 14 1 0
BITMAP
E01C
6018
6018
7038
3030
3870
1860
1860
1CE0
0CC0
0CC0
0780
0780
0780
ENDCHAR
STARTCHAR w
ENCODING 119
SWIDTH 600 0
DWIDTH 16 0
BBX 16 14 0 0
BITMAP
C183
C3C3
43C3
63C6
6246
6666
6666
2666
366C
342C
3C3C
3C3C
1C3C
1818
ENDCHAR
STARTCHAR x
ENCODING 120
SWIDTH 600 0
DWIDTH 16 0
BBX 14 14 1 0
BITMAP
6018
7038
3870
1CE0
0CC0
0780
0780
0780
0FC0
0CC0
1860
3870
7038
E01C
ENDCHAR
STARTCHAR y
ENCODING 121
SWIDTH 600 0
DWIDTH 16 0
BBX 14 20 1 -6
BITMAP
E01C
6018
6018
7038
3030
3870
1860
1C60
0CE0
0CC0
0FC0
0780
0780
0380
0300
0700
0600
0E00
FC00
F800
ENDCHAR
STARTCHAR z
ENCODING 122
SWIDTH 600 0
DWIDTH 16 0
BBX 12 14 2 0
BITMAP
FFF0
FFF0
0060
00E0
01C0
0380
0700
0E00
0C00
1800
3000
6000
FFF0
FFF0
ENDCHAR
STARTCHAR braceleft
ENCODING 123
SWIDTH 600 0
DWIDTH 16 0
BBX 10 23 3 -4
BITMAP
01C0
07C0
0E00
0C00
0C00
0C00
0C00
0C00
0C00
0C00
1C00
F800
F800
1C00
0C00
0C00
0C00
0C00
0C00
0C00
0E00
07C0
03C0
ENDCHAR
STARTCHAR bar
ENCODING 124
SWIDTH 600 0
DWIDTH 16 0
BBX 2 26 7 -6
BITMAP
C0
C0
C0
C0
C0
C0
C0
C0
C0
C0
C0
C0
C0
C0
C0
C0
C0
C0
C0
C0
C0
C0
C0
C0
C0
C0
ENDCHAR
STARTCHAR braceright
ENCODING 125
SWIDTH 600 0
DWIDTH 16 0
BBX 10 23 3 -4
BITMAP
E000
F800
1C00
0C00
0C00
0C00
0C00
0C00
0C00
0C00
0E00
07C0
07C0
0E00
0C00
0C00
0C00
0C00
0C00
0C00
1C00
F800
E000
ENDCHAR
STARTCHAR asciitilde
ENCODING 126
SWIDTH 600 0
DWIDTH 16 0
BBX 12 3 2 7
BITMAP
7C10
FFF0
83E0
ENDCHAR
STARTCHAR uni00A0
ENCODING 160
SWIDTH 600 0
DWIDTH 16 0
BBX 1 1 0 0
BITMAP
00
ENDCHAR
STARTCHAR exclamdown
ENCODING 161
SWIDTH 600 0
DWIDTH 16 0
BBX 3 19 6 -5
BITMAP
E0
E0
E0
E0
00
00
40
40
60
60
60
60
60
E0
E0
E0
E0
E0
E0
ENDCHAR
STARTCHAR cent
ENCODING 162
SWIDTH 600 0
DWIDTH 16 0
BBX 12 19 2 0
BITMAP
0300
0300
0FF0
3FF0
7800
6000
E000
E000
C000
C000
E000
E000
6000
7810
3FF0
0FE0
0300
0300
0300
ENDCHAR
STARTCHAR sterling
ENCODING 163
SWIDTH 600 0
DWIDTH 16 0
BBX 12 19 2 0
BITMAP
07C0
1FE0
3820
3800
3000
3000
3000
3000
3000
FF80
FF80
3000
3000
3000
3000
3000
6000
FFF0
FFF0
ENDCHAR
STARTCHAR currency
ENCODING 164
SWIDTH 600 0
DWIDTH 16 0
BBX 12 12 2 3
BITMAP
4020
EF70
7FE0
30C0
6060
6060
6060
6060
30C0
7FE0
EF70
4020
ENDCHAR
STARTCHAR yen
ENCODING 165
SWIDTH 600 0
DWIDTH 16 0
BBX 14 19 1 0
BITMAP
E01C
6018
7038
3030
3870
1860
1C60
0CC0
0EC0
0780
3FF0
3FF0
0300
0300
3FF0
3FF0
0300
0300
0300
ENDCHAR
STARTCHAR brokenbar
ENCODING 166
SWIDTH 600 0
DWIDTH 16 0
BBX 2 26 7 -6
BITMAP
C0
C0
C0
C0
C0
C0
C0
C0
C0
C0
00
00
00
00
00
00
C0
C0
C0
C0
C0
C0
C0
C0
C0
C0
ENDCHAR
STARTCHAR section
ENCODING 167
SWIDTH 600 0
DWIDTH 16 0
BBX 10 20 3 0
BITMAP
3F80
7FC0
E080
C000
E000
7800
3E00
6780
C1C0
C0C0
C0C0
70C0
7F80
1F00
0380
01C0
00C0
81C0
FF80
7E00
ENDCHAR
STARTCHAR dieresis
ENCODING 168
SWIDTH 600 0
DWIDTH 16 0
BBX 7 3 5 16
BITMAP
C6
C6
C6
ENDCHAR
STARTCHAR copyright
ENCODING 169
SWIDTH 600 0
DWIDTH 16 0
BBX 16 19 0 0
BITMAP
07E0
1E78
300C
6006
43E6
4FE2
CC03
D803
9801
9801
9801
D803
CC03
4FE2
43E2
6006
300C
1E78
07E0
ENDCHAR
STARTCHAR ordfeminine
ENCODING 170
SWIDTH 600 0
DWIDTH 16 0
BBX 8 9 4 10
BITMAP
7E
7F
03
3F
F3
C3
C7
FF
7B
ENDCHAR
STARTCHAR guillemotleft
ENCODING 171
SWIDTH 600 0
DWIDTH 16 0
BBX 10 11 3 1
BITMAP
1080
18C0
3180
7380
6300
C600
6300
7380
3180
18C0
1080
ENDCHAR
STARTCHAR logicalnot
ENCODING 172
SWIDTH 600 0
DWIDTH 16 0
BBX 12 7 2 3
BITMAP
FFF0
FFF0
0030
0030
0030
0030
0030
ENDCHAR
STARTCHAR uni00AD
ENCODING 173
SWIDTH 600 0
DWIDTH 16 0
BBX 8 2 4 6
BITMAP
FF
FF
ENDCHAR
STARTCHAR registered
ENCODING 174
SWIDTH 600 0
DWIDTH 16 0
BBX 16 19 0 0
BITMAP
07E0
1E78
300C
6006
47C6
47F2
C633
C633
8631
87E1
87C1
C6E3
C663
4632
463A
6006
300C
1E78
07E0
ENDCHAR
STARTCHAR macron
ENCODING 175
SWIDTH 600 0
DWIDTH 16 0
BBX 16 2 0 20
BITMAP
FFFF
FFFF
ENDCHAR
STARTCHAR degree
ENCODING 176
SWIDTH 600 0
DWIDTH 16 0
BBX 8 8 4 11
BITMAP
3C
7E
C3
C3
C3
C3
7E
3C
ENDCHAR
STARTCHAR plusminus
ENCODING 177
SWIDTH 600 0
DWIDTH 16 0
BBX 12 15 2 0
BITMAP
0600
0600
0600
0600
0600
FFF0
FFF0
0600
0600
0600
0600
0600
0000
FFF0
FFF0
ENDCHAR
STARTCHAR uni00B2
ENCODING 178
SWIDTH 600 0
DWIDTH 16 0
BBX 6 10 4 9
BITMAP
78
FC
0C
0C
0C
18
30
60
C0
FC
ENDCHAR
STARTCHAR uni00B3
ENCODING 179
SWIDTH 600 0
DWIDTH 16 0
BBX 6 10 4 9
BITMAP
78
FC
0C
0C
30
1C
0C
0C
FC
F8
ENDCHAR
STARTCHAR acute
ENCODING 180
SWIDTH 600 0
DWIDTH 16 0
BBX 5 4 6 16
BITMAP
38
70
60
C0
ENDCHAR
STARTCHAR mu
ENCODING 181
SWIDTH 600 0
DWIDTH 16 0
BBX 12 20 2 -6
BITMAP
C030
C030
C030
C030
C030
C030
C030
C030
C030
C070
E070
E0F0
FFB0
DF30
C000
C000
C000
C000
C000
C000
ENDCHAR
STARTCHAR paragraph
ENCODING 182
SWIDTH 600 0
DWIDTH 16 0
BBX 13 23 1 -3
BITMAP
1FF8
3FF8
7F98
FF98
FF98
FF98
FF98
FF98
FF98
FF98
7F98
7F98
1F98
0198
0198
0198
0198
0198
0198
0198
0198
0198
0198
ENDCHAR
STARTCHAR periodcentered
ENCODING 183
SWIDTH 600 0
DWIDTH 16 0
BBX 3 4 6 7
BITMAP
E0
E0
E0
E0
ENDCHAR
STARTCHAR cedilla
ENCODING 184
SWIDTH 600 0
DWIDTH 16 0
BBX 5 6 6 -6
BITMAP
20
60
38
18
38
F0
ENDCHAR
STARTCHAR uni00B9
ENCODING 185
SWIDTH 600 0
DWIDTH 16 0
BBX 5 10 4 9
BITMAP
38
78
D8
18
18
18
18
18
18
18
ENDCHAR
STARTCHAR ordmasculine
ENCODING 186
SWIDTH 600 0
DWIDTH 16 0
BBX 8 9 4 10
BITMAP
3C
7E
C3
C3
C3
C3
C3
7E
3C
ENDCHAR
STARTCHAR guillemotright
ENCODING 187
SWIDTH 600 0
DWIDTH 16 0
BBX 10 11 3 1
BITMAP
4200
C600
6300
7380
3180
18C0
3180
7380
6300
C600
4200
ENDCHAR
STARTCHAR onequarter
ENCODING 188
SWIDTH 600 0
DWIDTH 16 0
BBX 16 19 0 0
BITMAP
380C
7818
D818
1830
1830
1860
1860
18C0
18C0
1986
030E
031E
0636
0666
0C46
0CFF
1806
1806
3006
ENDCHAR
STARTCHAR onehalf
ENCODING 189
SWIDTH 600 0
DWIDTH 16 0
BBX 15 19 -1 0
BITMAP
380C
7818
D818
1830
1830
1860
1860
18C0
18C0
19BC
037E
0306
0606
0606
0C0C
0C18
1830
1860
307E
ENDCHAR
STARTCHAR threequarters
ENCODING 190
SWIDTH 600 0
DWIDTH 16 0
BBX 16 19 0 0
BITMAP
7806
FC0C
0C0C
0C18
3018
1C30
0C30
0C60
FC60
F8C6
018E
019E
0336
0366
0646
06FF
0C06
0C06
1806
ENDCHAR
STARTCHAR questiondown
ENCODING 191
SWIDTH 600 0
DWIDTH 16 0
BBX 12 19 2 -5
BITMAP
0700
0700
0700
0200
0000
0000
0700
0600
0600
1C00
3800
7000
E000
C000
C000
E000
F060
7FF0
1FC0
ENDCHAR
STARTCHAR Agrave
ENCODING 192
SWIDTH 600 0
DWIDTH 16 0
BBX 16 24 0 0
BITMAP
0700
0380
0180
00C0
0000
0180
03C0
03C0
03E0
0660
0660
0E70
0C30
0C30
1C38
1818
1FF8
3FFC
300C
300C
700E
6006
6006
E007
ENDCHAR
STARTCHAR Aacute
ENCODING 193
SWIDTH 600 0
DWIDTH 16 0
BBX 16 24 0 0
BITMAP
0070
00E0
00C0
0180
0000
0180
03C0
03C0
03E0
0660
0660
0E70
0C30
0C30
1C38
1818
1FF8
3FFC
300C
300C
700E
6006
6006
E007
ENDCHAR
STARTCHAR Acircumflex
ENCODING 194
SWIDTH 600 0
DWIDTH 16 0
BBX 16 24 0 0
BITMAP
01C0
03E0
0760
0C30
0000
0180
03C0
03C0
03E0
0660
0660
0E70
0C30
0C30
1C38
1818
1FF8
3FFC
300C
300C
700E
6006
6006
E007
ENDCHAR
STARTCHAR Atilde
ENCODING 195
SWIDTH 600 0
DWIDTH 16 0
BBX 16 24 0 0
BITMAP
0708
0798
0CF0
0870
0000
0180
03C0
03C0
03E0
0660
0660
0E70
0C30
0C30
1C38
1818
1FF8
3FFC
300C
300C
700E
6006
6006
E007
ENDCHAR
STARTCHAR Adieresis
ENCODING 196
SWIDTH 600 0
DWIDTH 16 0
BBX 16 23 0 0
BITMAP
0630
0630
0630
0000
0180
03C0
03C0
03E0
0660
0660
0E70
0C30
0C30
1C38
1818
1FF8
3FFC
300C
300C
700E
6006
6006
E007
ENDCHAR
STARTCHAR Aring
ENCODING 197
SWIDTH 600 0
DWIDTH 16 0
BBX 16 23 0 0
BITMAP
03C0
0660
0420
0660
03C0
03C0
03C0
03E0
0660
0660
0E70
0C30
0C30
1C38
1818
1FF8
3FFC
300C
300C
700E
6006
6006
E007
ENDCHAR
STARTCHAR AE
ENCODING 198
SWIDTH 600 0
DWIDTH 16 0
BBX 15 19 0 0
BITMAP
0FFE
0FFE
1980
1980
1980
1980
1980
3180
31FE
31FE
3180
3F80
7F80
6180
6180
6180
6180
C1FE
C1FE
ENDCHAR
STARTCHAR Ccedilla
ENCODING 199
SWIDTH 600 0
DWIDTH 16 0
BBX 13 25 2 -6
BITMAP
07F0
1FF8
3C10
7800
7000
6000
E000
E000
E000
E000
E000
E000
E000
E000
7000
7000
3C10
1FF0
07E0
0100
0300
01C0
00C0
01C0
0780
ENDCHAR
STARTCHAR Egrave
ENCODING 200
SWIDTH 600 0
DWIDTH 16 0
BBX 11 24 3 0
BITMAP
3800
1C00
0C00
0600
0000
FFE0
FFE0
C000
C000
C000
C000
C000
C000
FFC0
FFC0
C000
C000
C000
C000
C000
C000
C000
FFE0
FFE0
ENDCHAR
STARTCHAR Eacute
ENCODING 201
SWIDTH 600 0
DWIDTH 16 0
BBX 11 24 3 0
BITMAP
0380
0700
0600
0C00
0000
FFE0
FFE0
C000
C000
C000
C000
C000
C000
FFC0
FFC0
C000
C000
C000
C000
C000
C000
C000
FFE0
FFE0
ENDCHAR
STARTCHAR Ecircumflex
ENCODING 202
SWIDTH 600 0
DWIDTH 16 0
BBX 11 24 3 0
BITMAP
0700
0F80
1D80
30C0
0000
FFE0
FFE0
C000
C000
C000
C000
C000
C000
FFC0
FFC0
C000
C000
C000
C000
C000
C000
C000
FFE0
FFE0
ENDCHAR
STARTCHAR Edieresis
ENCODING 203
SWIDTH 600 0
DWIDTH 16 0
BBX 11 23 3 0
BITMAP
3180
3180
3180
0000
FFE0
FFE0
C000
C000
C000
C000
C000
C000
FFC0
FFC0
C000
C000
C000
C000
C000
C000
C000
FFE0
FFE0
ENDCHAR
STARTCHAR Igrave
ENCODING 204
SWIDTH 600 0
DWIDTH 16 0
BBX 10 24 3 0
BITMAP
3800
1C00
0C00
0600
0000
FFC0
FFC0
0C00
0C00
0C00
0C00
0C00
0C00
0C00
0C00
0C00
0C00
0C00
0C00
0C00
0C00
0C00
FFC0
FFC0
ENDCHAR
STARTCHAR Iacute
ENCODING 205
SWIDTH 600 0
DWIDTH 16 0
BBX 10 24 3 0
BITMAP
0380
0700
0600
0C00
0000
FFC0
FFC0
0C00
0C00
0C00
0C00
0C00
0C00
0C00
0C00
0C00
0C00
0C00
0C00
0C00
0C00
0C00
FFC0
FFC0
ENDCHAR
STARTCHAR Icircumflex
ENCODING 206
SWIDTH 600 0
DWIDTH 16 0
BBX 10 24 3 0
BITMAP
0E00
1F00
3B00
6180
0000
FFC0
FFC0
0C00
0C00
0C00
0C00
0C00
0C00
0C00
0C00
0C00
0C00
0C00
0C00
0C00
0C00
0C00
FFC0
FFC0
ENDCHAR
STARTCHAR Idieresis
ENCODING 207
SWIDTH 600 0
DWIDTH 16 0
BBX 10 23 3 0
BITMAP
3180
3180
3180
0000
FFC0
FFC0
0C00
0C00
0C00
0C00
0C00
0C00
0C00
0C00
0C00
0C00
0C00
0C00
0C00
0C00
0C00
FFC0
FFC0
ENDCHAR
STARTCHAR Eth
ENCODING 208
SWIDTH 600 0
DWIDTH 16 0
BBX 15 19 0 0
BITMAP
3FC0
3FF0
3078
301C
301C
300C
300E
300E
FF8E
FF8E
300E
300E
300E
300C
301C
3038
3078
3FF0
3F80
ENDCHAR
STARTCHAR Ntilde
ENCODING 209
SWIDTH 600 0
DWIDTH 16 0
BBX 12 24 2 0
BITMAP
1C20
1E60
33C0
21C0
0000
E030
E030
F030
F030
D830
D830
CC30
CC30
CE30
C630
C730
C330
C330
C1B0
C1B0
C0F0
C0F0
C070
C070
ENDCHAR
STARTCHAR Ograve
ENCODING 210
SWIDTH 600 0
DWIDTH 16 0
BBX 14 24 1 0
BITMAP
0E00
0700
0300
0180
0000
0FC0
1FE0
3870
7038
6018
E01C
E01C
E01C
E01C
E01C
E01C
E01C
E01C
E01C
6018
7038
3870
1FE0
0FC0
ENDCHAR
STARTCHAR Oacute
ENCODING 211
SWIDTH 600 0
DWIDTH 16 0
BBX 14 24 1 0
BITMAP
00E0
01C0
0180
0300
0000
0FC0
1FE0
3870
7038
6018
E01C
E01C
E01C
E01C
E01C
E01C
E01C
E01C
E01C
6018
7038
3870
1FE0
0FC0
ENDCHAR
STARTCHAR Ocircumflex
ENCODING 212
SWIDTH 600 0
DWIDTH 16 0
BBX 14 24 1 0
BITMAP
0380
07C0
0EC0
1860
0000
0FC0
1FE0
3870
7038
6018
E01C
E01C
E01C
E01C
E01C
E01C
E01C
E01C
E01C
6018
7038
3870
1FE0
0FC0
ENDCHAR
STARTCHAR Otilde
ENCODING 213
SWIDTH 600 0
DWIDTH 16 0
BBX 14 24 1 0
BITMAP
0E10
0F30
19E0
10E0
0000
0FC0
1FE0
3870
7038
6018
E01C
E01C
E01C
E01C
E01C
E01C
E01C
E01C
E01C
6018
7038
3870
1FE0
0FC0
ENDCHAR
STARTCHAR Odieresis
ENCODING 214
SWIDTH 600 0
DWIDTH 16 0
BBX 14 23 1 0
BITMAP
0C60
0C60
0C60
0000
0FC0
1FE0
3870
7038
6018
E01C
E01C
E01C
E01C
E01C
E01C
E01C
E01C
E01C
6018
7038
3870
1FE0
0FC0
ENDCHAR
STARTCHAR multiply
ENCODING 215
SWIDTH 600 0
DWIDTH 16 0
BBX 11 11 2 4
BITMAP
4040
E0E0
71C0
3B80
1F00
0E00
1F00
3B80
71C0
E0E0
4040
ENDCHAR
STARTCHAR Oslash
ENCODING 216
SWIDTH 600 0
DWIDTH 16 0
BBX 14 21 1 -1
BITMAP
0008
0FCC
1FF8
3878
7038
6078
E0FC
E0DC
E1DC
E39C
E31C
E71C
E61C
EC1C
FC1C
7818
7038
7870
7FE0
EFC0
4000
ENDCHAR
STARTCHAR Ugrave
ENCODING 217
SWIDTH 600 0
DWIDTH 16 0
BBX 12 24 2 0
BITMAP
1C00
0E00
0600
0300
0000
C030
C030
C030
C030
C030
C030
C030
C030
C030
C030
C030
C030
C030
C070
E070
E060
70E0
3FC0
1F80
ENDCHAR
STARTCHAR Uacute
ENCODING 218
SWIDTH 600 0
DWIDTH 16 0
BBX 12 24 2 0
BITMAP
01C0
0380
0300
0600
0000
C030
C030
C030
C030
C030
C030
C030
C030
C030
C030
C030
C030
C030
C070
E070
E060
70E0
3FC0
1F80
ENDCHAR
STARTCHAR Ucircumflex
ENCODING 219
SWIDTH 600 0
DWIDTH 16 0
BBX 12 24 2 0
BITMAP
0700
0F80
1D80
30C0
0000
C030
C030
C030
C030
C030
C030
C030
C030
C030
C030
C030
C030
C030
C070
E070
E060
70E0
3FC0
1F80
ENDCHAR
STARTCHAR Udieresis
ENCODING 220
SWIDTH 600 0
DWIDTH 16 0
BBX 12 23 2 0
BITMAP
18C0
18C0
18C0
0000
C030
C030
C030
C030
C030
C030
C030
C030
C030
C030
C030
C030
C030
C070
E070
E060
70E0
3FC0
1F80
ENDCHAR
STARTCHAR Yacute
ENCODING 221
SWIDTH 600 0
DWIDTH 16 0
BBX 15 24 1 0
BITMAP
00E0
01C0
0180
0300
0000
E00E
600C
701C
3018
3838
1830
1C60
0CE0
0CC0
07C0
0780
0380
0300
0300
0300
0300
0300
0300
0300
ENDCHAR
STARTCHAR Thorn
ENCODING 222
SWIDTH 600 0
DWIDTH 16 0
BBX 12 19 2 0
BITMAP
C000
C000
C000
FF80
FFC0
C0E0
C070
C070
C070
C070
C070
C060
C1E0
FFC0
FF00
C000
C000
C000
C000
ENDCHAR
STARTCHAR germandbls
ENCODING 223
SWIDTH 600 0
DWIDTH 16 0
BBX 13 20 2 0
BITMAP
1F80
7FC0
E0E0
E060
C060
C0E0
C1C0
C380
C300
C300
C380
C1C0
C0F0
C070
C038
C018
C018
C838
CFF0
C7E0
ENDCHAR
STARTCHAR agrave
ENCODING 224
SWIDTH 600 0
DWIDTH 16 0
BBX 11 20 2 0
BITMAP
1C00
0E00
0600
0300
0000
0000
1F80
7FC0
20E0
00E0
0060
0060
1FE0
7FE0
E060
C060
C0E0
E1E0
7F60
3E60
ENDCHAR
STARTCHAR aacute
ENCODING 225
SWIDTH 600 0
DWIDTH 16 0
BBX 11 20 2 0
BITMAP
01C0
0380
0300
0600
0000
0000
1F80
7FC0
20E0
00E0
0060
0060
1FE0
7FE0
E060
C060
C0E0
E1E0
7F60
3E60
ENDCHAR
STARTCHAR acircumflex
ENCODING 226
SWIDTH 600 0
DWIDTH 16 0
BBX 11 20 2 0
BITMAP
0700
0F80
1D80
30C0
0000
0000
1F80
7FC0
20E0
00E0
0060
0060
1FE0
7FE0
E060
C060
C0E0
E1E0
7F60
3E60
ENDCHAR
STARTCHAR atilde
ENCODING 227
SWIDTH 600 0
DWIDTH 16 0
BBX 11 20 2 0
BITMAP
1C20
1E60
33C0
21C0
0000
0000
1F80
7FC0
20E0
00E0
0060
0060
1FE0
7FE0
E060
C060
C0E0
E1E0
7F60
3E60
ENDCHAR
STARTCHAR adieresis
ENCODING 228
SWIDTH 600 0
DWIDTH 16 0
BBX 11 19 2 0
BITMAP
18C0
18C0
18C0
0000
0000
1F80
7FC0
20E0
00E0
0060
0060
1FE0
7FE0
E060
C060
C0E0
E1E0
7F60
3E60
ENDCHAR
STARTCHAR aring
ENCODING 229
SWIDTH 600 0
DWIDTH 16 0
BBX 11 21 2 0
BITMAP
0F00
1980
1080
1980
0F00
0000
0000
1F80
7FC0
20E0
00E0
0060
0060
1FE0
7FE0
E060
C060
C0E0
E1E0
7F60
3E60
ENDCHAR
STARTCHAR ae
ENCODING 230
SWIDTH 600 0
DWIDTH 16 0
BBX 14 14 1 0
BITMAP
3C70
7EF8
4798
039C
030C
030C
3FFC
7FFC
E300
C300
C380
E7C4
7CFC
7878
ENDCHAR
STARTCHAR ccedilla
ENCODING 231
SWIDTH 600 0
DWIDTH 16 0
BBX 12 20 2 -6
BITMAP
0FE0
3FF0
7820
6000
E000
E000
C000
C000
E000
E000
6000
7810
3FF0
0FE0
0200
0600
0380
0180
0380
0F00
ENDCHAR
STARTCHAR egrave
ENCODING 232
SWIDTH 600 0
DWIDTH 16 0
BBX 12 20 2 0
BITMAP
1C00
0E00
0600
0300
0000
0000
0F80
3FC0
70E0
6060
E070
C030
FFF0
FFF0
C000
E000
6000
7020
3FE0
0FC0
ENDCHAR
STARTCHAR eacute
ENCODING 233
SWIDTH 600 0
DWIDTH 16 0
BBX 12 20 2 0
BITMAP
01C0
0380
0300
0600
0000
0000
0F80
3FC0
70E0
6060
E070
C030
FFF0
FFF0
C000
E000
6000
7020
3FE0
0FC0
ENDCHAR
STARTCHAR ecircumflex
ENCODING 234
SWIDTH 600 0
DWIDTH 16 0
BBX 12 20 2 0
BITMAP
0700
0F80
1D80
30C0
0000
0000
0F80
3FC0
70E0
6060
E070
C030
FFF0
FFF0
C000
E000
6000
7020
3FE0
0FC0
ENDCHAR
STARTCHAR edieresis
ENCODING 235
SWIDTH 600 0
DWIDTH 16 0
BBX 12 19 2 0
BITMAP
18C0
18C0
18C0
0000
0000
0F80
3FC0
70E0
6060
E070
C030
FFF0
FFF0
C000
E000
6000
7020
3FE0
0FC0
ENDCHAR
STARTCHAR igrave
ENCODING 236
SWIDTH 600 0
DWIDTH 16 0
BBX 11 20 3 0
BITMAP
3800
1C00
0C00
0600
0000
0000
7C00
7C00
0C00
0C00
0C00
0C00
0C00
0C00
0C00
0C00
0C00
0C00
FFE0
FFE0
ENDCHAR
STARTCHAR iacute
ENCODING 237
SWIDTH 600 0
DWIDTH 16 0
BBX 11 20 3 0
BITMAP
0380
0700
0600
0C00
0000
0000
7C00
7C00
0C00
0C00
0C00
0C00
0C00
0C00
0C00
0C00
0C00
0C00
FFE0
FFE0
ENDCHAR
STARTCHAR icircumflex
ENCODING 238
SWIDTH 600 0
DWIDTH 16 0
BBX 11 20 3 0
BITMAP
0E00
1F00
3B00
6180
0000
0000
7C00
7C00
0C00
0C00
0C00
0C00
0C00
0C00
0C00
0C00
0C00
0C00
FFE0
FFE0
ENDCHAR
STARTCHAR idieresis
ENCODING 239
SWIDTH 600 0
DWIDTH 16 0
BBX 11 19 3 0
BITMAP
3180
3180
3180
0000
0000
7C00
7C00
0C00
0C00
0C00
0C00
0C00
0C00
0C00
0C00
0C00
0C00
FFE0
FFE0
ENDCHAR
STARTCHAR eth
ENCODING 240
SWIDTH 600 0
DWIDTH 16 0
BBX 12 20 2 0
BITMAP
1840
1DE0
0F80
0F80
3DC0
10C0
00E0
0060
1F60
3FB0
70F0
E070
E070
C030
C030
E070
E060
70E0
3FC0
1F80
ENDCHAR
STARTCHAR ntilde
ENCODING 241
SWIDTH 600 0
DWIDTH 16 0
BBX 12 20 2 0
BITMAP
1C20
1E60
33C0
21C0
0000
0000
CFC0
DFE0
F070
E070
E030
C030
C030
C030
C030
C030
C030
C030
C030
C030
ENDCHAR
STARTCHAR ograve
ENCODING 242
SWIDTH 600 0
DWIDTH 16 0
BBX 14 20 1 0
BITMAP
0E00
0700
0300
0180
0000
0000
0FC0
3FF0
7038
6018
E01C
C01C
C00C
C00C
E01C
E01C
6018
7038
3FF0
0FC0
ENDCHAR
STARTCHAR oacute
ENCODING 243
SWIDTH 600 0
DWIDTH 16 0
BBX 14 20 1 0
BITMAP
00E0
01C0
0180
0300
0000
0000
0FC0
3FF0
7038
6018
E01C
C01C
C00C
C00C
E01C
E01C
6018
7038
3FF0
0FC0
ENDCHAR
STARTCHAR ocircumflex
ENCODING 244
SWIDTH 600 0
DWIDTH 16 0
BBX 14 20 1 0
BITMAP
0380
07C0
0EC0
1860
0000
0000
0FC0
3FF0
7038
6018
E01C
C01C
C00C
C00C
E01C
E01C
6018
7038
3FF0
0FC0
ENDCHAR
STARTCHAR otilde
ENCODING 245
SWIDTH 600 0
DWIDTH 16 0
BBX 14 20 1 0
BITMAP
0E10
0F30
19E0
10E0
0000
0000
0FC0
3FF0
7038
6018
E01C
C01C
C00C
C00C
E01C
E01C
6018
7038
3FF0
0FC0
ENDCHAR
STARTCHAR odieresis
ENCODING 246
SWIDTH 600 0
DWIDTH 16 0
BBX 14 19 1 0
BITMAP
0C60
0C60
0C60
0000
0000
0FC0
3FF0
7038
6018
E01C
C01C
C00C
C00C
E01C
E01C
6018
7038
3FF0
0FC0
ENDCHAR
STARTCHAR divide
ENCODING 247
SWIDTH 600 0
DWIDTH 16 0
BBX 11 12 2 3
BITMAP
0E00
0E00
0E00
0000
0000
FFE0
FFE0
0000
0000
0E00
0E00
0E00
ENDCHAR
STARTCHAR oslash
ENCODING 248
SWIDTH 600 0
DWIDTH 16 0
BBX 14 16 1 -1
BITMAP
0010
0FF8
3FF0
7078
60F8
E0DC
C1DC
C38C
C70C
C61C
EE1C
7C18
7838
3FF0
7FC0
2000
ENDCHAR
STARTCHAR ugrave
ENCODING 249
SWIDTH 600 0
DWIDTH 16 0
BBX 12 20 2 0
BITMAP
1C00
0E00
0600
0300
0000
0000
C030
C030
C030
C030
C030
C030
C030
C030
C030
C070
E070
E0F0
7FB0
3F30
ENDCHAR
STARTCHAR uacute
ENCODING 250
SWIDTH 600 0
DWIDTH 16 0
BBX 12 20 2 0
BITMAP
01C0
0380
0300
0600
0000
0000
C030
C030
C030
C030
C030
C030
C030
C030
C030
C070
E070
E0F0
7FB0
3F30
ENDCHAR
STARTCHAR ucircumflex
ENCODING 251
SWIDTH 600 0
DWIDTH 16 0
BBX 12 20 2 0
BITMAP
0700
0F80
1D80
30C0
0000
0000
C030
C030
C030
C030
C030
C030
C030
C030
C030
C070
E070
E0F0
7FB0
3F30
ENDCHAR
STARTCHAR udieresis
ENCODING 252
SWIDTH 600 0
DWIDTH 16 0
BBX 12 19 2 0
BITMAP
18C0
18C0
18C0
0000
0000
C030
C030
C030
C030
C030
C030
C030
C030
C030
C070
E070
E0F0
7FB0
3F30
ENDCHAR
STARTCHAR yacute
ENCODING 253
SWIDTH 600 0
DWIDTH 16 0
BBX 14 26 1 -6
BITMAP
00E0
01C0
0180
0300
0000
0000
E01C
6018
6018
7038
3030
3870
1860
1C60
0CE0
0CC0
0FC0
0780
0780
0380
0300
0700
0600
0E00
FC00
F800
ENDCHAR
STARTCHAR thorn
ENCODING 254
SWIDTH 600 0
DWIDTH 16 0
BBX 12 26 2 -6
BITMAP
C000
C000
C000
C000
C000
C000
CF80
DFC0
F0E0
E060
E070
C070
C030
C030
C070
E070
E060
F0E0
DFC0
CF80
C000
C000
C000
C000
C000
C000
ENDCHAR
STARTCHAR ydieresis
ENCODING 255
SWIDTH 600 0
DWIDTH 16 0
BBX 14 25 1 -6
BITMAP
0C60
0C60
0C60
0000
0000
E01C
6018
6018
7038
3030
3870
1860
1C60
0CE0
0CC0
0FC0
0780
0780
0380
0300
0700
0600
0E00
FC00
F800
ENDCHAR
STARTCHAR .notdef
ENCODING -1
SWIDTH 600 0
DWIDTH 16 0
BBX 12 19 2 0
BITMAP
FFF0
8010
8010
8010
8010
8010
8010
8010
8010
8010
8010
8010
8010
8010
8010
8010
8010
8010
FFF0
ENDCHAR
STARTCHAR Amacron
ENCODING -1
SWIDTH 600 0
DWIDTH 16 0
BBX 16 22 0 0
BITMAP
0FF0
0FF0
0000
0180
03C0
03C0
03E0
0660
0660
0E70
0C30
0C30
1C38
1818
1FF8
3FFC
300C
300C
700E
6006
6006
E007
ENDCHAR
STARTCHAR amacron
ENCODING -1
SWIDTH 600 0
DWIDTH 16 0
BBX 11 18 2 0
BITMAP
3FC0
3FC0
0000
0000
1F80
7FC0
20E0
00E0
0060
0060
1FE0
7FE0
E060
C060
C0E0
E1E0
7F60
3E60
ENDCHAR
STARTCHAR Abreve
ENCODING -1
SWIDTH 600 0
DWIDTH 16 0
BBX 16 24 0 0
BITMAP
0810
0C30
07E0
03C0
0000
0180
03C0
03C0
03E0
0660
0660
0E70
0C30
0C30
1C38
1818
1FF8
3FFC
300C
300C
700E
6006
6006
E007
ENDCHAR
STARTCHAR abreve
ENCODING -1
SWIDTH 600 0
DWIDTH 16 0
BBX 11 20 2 0
BITMAP
2040
30C0
1F80
0F00
0000
0000
1F80
7FC0
20E0
00E0
0060
0060
1FE0
7FE0
E060
C060
C0E0
E1E0
7F60
3E60
ENDCHAR
STARTCHAR Aogonek
ENCODING -1
SWIDTH 600 0
DWIDTH 16 0
BBX 16 25 0 -6
BITMAP
0180
03C0
03C0
03E0
0660
0660
0E70
0C30
0C30
1C38
1818
1FF8
3FFC
300C
300C
700E
6006
6006
E007
0004
0008
0018
0018
001F
000F
ENDCHAR
STARTCHAR aogonek
ENCODING -1
SWIDTH 600 0
DWIDTH 16 0
BBX 12 20 2 -6
BITMAP
1F80
7FC0
20E0
00E0
0060
0060
1FE0
7FE0
E060
C060
C0E0
E1E0
7F60
3E60
0040
0080
0180
0180
01F0
00F0
ENDCHAR
STARTCHAR Cacute
ENCODING -1
SWIDTH 600 0
DWIDTH 16 0
BBX 13 24 2 0
BITMAP
0070
00E0
00C0
0180
0000
07F0
1FF8
3C10
7800
7000
6000
E000
E000
E000
E000
E000
E000
E000
E000
7000
7000
3C10
1FF0
07E0
ENDCHAR
STARTCHAR cacute
ENCODING -1
SWIDTH 600 0
DWIDTH 16 0
BBX 12 20 2 0
BITMAP
00E0
01C0
0180
0300
0000
0000
0FE0
3FF0
7820
6000
E000
E000
C000
C000
E000
E000
6000
7810
3FF0
0FE0
ENDCHAR
STARTCHAR Ccircumflex
ENCODING -1
SWIDTH 600 0
DWIDTH 16 0
BBX 13 24 2 0
BITMAP
01C0
03E0
0760
0C30
0000
07F0
1FF8
3C10
7800
7000
6000
E000
E000
E000
E000
E000
E000
E000
E000
7000
7000
3C10
1FF0
07E0
ENDCHAR
STARTCHAR ccircumflex
ENCODING -1
SWIDTH 600 0
DWIDTH 16 0
BBX 12 20 2 0
BITMAP
0380
07C0
0EC0
1860
0000
0000
0FE0
3FF0
7820
6000
E000
E000
C000
C000
E000
E000
6000
7810
3FF0
0FE0
ENDCHAR
STARTCHAR Cdotaccent
ENCODING -1
SWIDTH 600 0
DWIDTH 16 0
BBX 13 23 2 0
BITMAP
0180
01C0
0180
0000
07F0
1FF8
3C10
7800
7000
6000
E000
E000
E000
E000
E000
E000
E000
E000
7000
7000
3C10
1FF0
07E0
ENDCHAR
STARTCHAR cdotaccent
ENCODING -1
SWIDTH 600 0
DWIDTH 16 0
BBX 12 19 2 0
BITMAP
0300
0380
0300
0000
0000
0FE0
3FF0
7820
6000
E000
E000
C000
C000
E000
E000
6000
7810
3FF0
0FE0
ENDCHAR
STARTCHAR Ccaron
ENCODING -1
SWIDTH 600 0
DWIDTH 16 0
BBX 13 24 2 0
BITMAP
0C30
0760
03E0
01C0
0000
07F0
1FF8
3C10
7800
7000
6000
E000
E000
E000
E000
E000
E000
E000
E000
7000
7000
3C10
1FF0
07E0
ENDCHAR
STARTCHAR ccaron
ENCODING -1
SWIDTH 600 0
DWIDTH 16 0
BBX 12 20 2 0
BITMAP
1860
0EC0
07C0
0380
0000
0000
0FE0
3FF0
7820
6000
E000
E000
C000
C000
E000
E000
6000
7810
3FF0
0FE0
ENDCHAR
STARTCHAR Dcaron
ENCODING -1
SWIDTH 600 0
DWIDTH 16 0
BBX 13 24 2 0
BITMAP
30C0
1D80
0F80
0700
0000
FF00
FFC0
C1E0
C070
C070
C030
C038
C038
C038
C038
C038
C038
C038
C030
C070
C0E0
C1E0
FFC0
FE00
ENDCHAR
STARTCHAR dcaron
ENCODING -1
SWIDTH 600 0
DWIDTH 16 0
BBX 16 20 1 0
BITMAP
0033
0037
0036
0036
0030
0030
1F30
3FB0
70F0
6070
E070
C030
C030
C030
C030
E070
6070
70F0
3FB0
1F30
ENDCHAR
STARTCHAR Dcroat
ENCODING -1
SWIDTH 600 0
DWIDTH 16 0
BBX 15 19 0 0
BITMAP
3FC0
3FF0
3078
301C
301C
300C
300E
300E
FF8E
FF8E
300E
300E
300E
300C
301C
3038
3078
3FF0
3F80
ENDCHAR
STARTCHAR dcroat
ENCODING -1
SWIDTH 600 0
DWIDTH 16 0
BBX 14 20 2 0
BITMAP
0030
0030
07FC
07FC
0030
0030
1F30
3FB0
70F0
6070
E070
C030
C030
C030
C030
E070
6070
70F0
3FB0
1F30
ENDCHAR
STARTCHAR Emacron
ENCODING -1
SWIDTH 600 0
DWIDTH 16 0
BBX 11 22 3 0
BITMAP
3FC0
3FC0
0000
FFE0
FFE0
C000
C000
C000
C000
C000
C000
FFC0
FFC0
C000
C000
C000
C000
C000
C000
C000
FFE0
FFE0
ENDCHAR
STARTCHAR emacron
ENCODING -1
SWIDTH 600 0
DWIDTH 16 0
BBX 12 18 2 0
BITMAP
3FC0
3FC0
0000
0000
0F80
3FC0
70E0
6060
E070
C030
FFF0
FFF0
C000
E000
6000
7020
3FE0
0FC0
ENDCHAR
STARTCHAR Ebreve
ENCODING -1
SWIDTH 600 0
DWIDTH 16 0
BBX 11 24 3 0
BITMAP
2040
30C0
1F80
0F00
0000
FFE0
FFE0
C000
C000
C000
C000
C000
C000
FFC0
FFC0
C000
C000
C000
C000
C000
C000
C000
FFE0
FFE0
ENDCHAR
STARTCHAR ebreve
ENCODING -1
SWIDTH 600 0
DWIDTH 16 0
BBX 12 20 2 0
BITMAP
2040
30C0
1F80
0F00
0000
0000
0F80
3FC0
70E0
6060
E070
C030
FFF0
FFF0
C000
E000
6000
7020
3FE0
0FC0
ENDCHAR
STARTCHAR Edotaccent
ENCODING -1
SWIDTH 600 0
DWIDTH 16 0
BBX 11 23 3 0
BITMAP
0600
0700
0600
0000
FFE0
FFE0
C000
C000
C000
C000
C000
C000
FFC0
FFC0
C000
C000
C000
C000
C000
C000
C000
FFE0
FFE0
ENDCHAR
STARTCHAR edotaccent
ENCODING -1
SWIDTH 600 0
DWIDTH 16 0
BBX 12 19 2 0
BITMAP
0600
0700
0600
0000
0000
0F80
3FC0
70E0
6060
E070
C030
FFF0
FFF0
C000
E000
6000
7020
3FE0
0FC0
ENDCHAR
STARTCHAR Eogonek
ENCODING -1
SWIDTH 600 0
DWIDTH 16 0
BBX 11 25 3 -6
BITMAP
FFE0
FFE0
C000
C000
C000
C000
C000
C000
FFC0
FFC0
C000
C000
C000
C000
C000
C000
C000
FFE0
FFE0
0080
0100
0300
0300
03E0
01E0
ENDCHAR
STARTCHAR eogonek
ENCODING -1
SWIDTH 600 0
DWIDTH 16 0
BBX 12 20 2 -6
BITMAP
0F80
3FC0
70E0
6060
E070
C030
FFF0
FFF0
C000
E000
6000
7020
3FE0
0FC0
0040
0080
0180
0180
01F0
00F0
ENDCHAR
STARTCHAR Ecaron
ENCODING -1
SWIDTH 600 0
DWIDTH 16 0
BBX 11 24 3 0
BITMAP
30C0
1D80
0F80
0700
0000
FFE0
FFE0
C000
C000
C000
C000
C000
C000
FFC0
FFC0
C000
C000
C000
C000
C000
C000
C000
FFE0
FFE0
ENDCHAR
STARTCHAR ecaron
ENCODING -1
SWIDTH 600 0
DWIDTH 16 0
BBX 12 20 2 0
BITMAP
1860
0EC0
07C0
0380
0000
0000
0F80
3FC0
70E0
6060
E070
C030
FFF0
FFF0
C000
E000
6000
7020
3FE0
0FC0
ENDCHAR
STARTCHAR Gcircumflex
ENCODING -1
SWIDTH 600 0
DWIDTH 16 0
BBX 13 24 1 0
BITMAP
01C0
03E0
0760
0C30
0000
07E0
1FF8
3C30
7000
7000
6000
E000
E000
E000
E1F8
E1F8
E018
E018
E018
6018
7018
3C18
1FF8
07E0
ENDCHAR
STARTCHAR gcircumflex
ENCODING -1
SWIDTH 600 0
DWIDTH 16 0
BBX 14 26 1 -6
BITMAP
0380
07C0
0EC0
1860
0000
0000
0FFC
3FF8
7070
6030
6030
6030
7070
3FE0
0F80
1800
3000
3000
3FF0
3FF8
601C
C00C
C00C
E03C
7FF8
3FC0
ENDCHAR
STARTCHAR Gbreve
ENCODING -1
SWIDTH 600 0
DWIDTH 16 0
BBX 13 24 1 0
BITMAP
0810
0C30
07E0
03C0
0000
07E0
1FF8
3C30
7000
7000
6000
E000
E000
E000
E1F8
E1F8
E018
E018
E018
6018
7018
3C18
1FF8
07E0
ENDCHAR
STARTCHAR gbreve
ENCODING -1
SWIDTH 600 0
DWIDTH 16 0
BBX 14 26 1 -6
BITMAP
1020
1860
0FC0
0780
0000
0000
0FFC
3FF8
7070
6030
6030
6030
7070
3FE0
0F80
1800
3000
3000
3FF0
3FF8
601C
C00C
C00C
E03C
7FF8
3FC0
ENDCHAR
STARTCHAR Gdotaccent
ENCODING -1
SWIDTH 600 0
DWIDTH 16 0
BBX 13 23 1 0
BITMAP
0180
01C0
0180
0000
07E0
1FF8
3C30
7000
7000
6000
E000
E000
E000
E1F8
E1F8
E018
E018
E018
6018
7018
3C18
1FF8
07E0
ENDCHAR
STARTCHAR gdotaccent
ENCODING -1
SWIDTH 600 0
DWIDTH 16 0
BBX 14 25 1 -6
BITMAP
0300
0380
0300
0000
0000
0FFC
3FF8
7070
6030
6030
6030
7070
3FE0
0F80
1800
3000
3000
3FF0
3FF8
601C
C00C
C00C
E03C
7FF8
3FC0
ENDCHAR
STARTCHAR uni0122
ENCODING -1
SWIDTH 600 0
DWIDTH 16 0
BBX 13 25 1 -6
BITMAP
07E0
1FF8
3C30
7000
7000
6000
E000
E000
E000
E1F8
E1F8
E018
E018
E018
6018
7018
3C18
1FF8
07E0
0000
0000
0180
0180
0300
0300
ENDCHAR
STARTCHAR uni0123
ENCODING -1
SWIDTH 600 0
DWIDTH 16 0
BBX 14 26 1 -6
BITMAP
0180
0180
0300
0300
0000
0000
0FFC
3FF8
7070
6030
6030
6030
7070
3FE0
0F80
1800
3000
3000
3FF0
3FF8
601C
C00C
C00C
E03C
7FF8
3FC0
ENDCHAR
STARTCHAR Hcircumflex
ENCODING -1
SWIDTH 600 0
DWIDTH 16 0
BBX 12 24 2 0
BITMAP
0700
0F80
1D80
30C0
0000
C030
C030
C030
C030
C030
C030
C030
C030
FFF0
FFF0
C030
C030
C030
C030
C030
C030
C030
C030
C030
ENDCHAR
STARTCHAR hcircumflex
ENCODING -1
SWIDTH 600 0
DWIDTH 16 0
BBX 12 25 2 0
BITMAP
0700
0F80
1D80
30C0
0000
C000
C000
C000
C000
C000
C000
CFC0
DFE0
F070
E070
E030
C030
C030
C030
C030
C030
C030
C030
C030
C030
ENDCHAR
STARTCHAR Hbar
ENCODING -1
SWIDTH 600 0
DWIDTH 16 0
BBX 16 19 0 0
BITMAP
300C
300C
300C
FFFF
FFFF
300C
300C
300C
3FFC
3FFC
300C
300C
300C
300C
300C
300C
300C
300C
300C
ENDCHAR
STARTCHAR hbar
ENCODING -1
SWIDTH 600 0
DWIDTH 16 0
BBX 14 20 0 0
BITMAP
3000
3000
FFC0
FFC0
3000
3000
33F0
37F8
3C1C
381C
380C
300C
300C
300C
300C
300C
300C
300C
300C
300C
ENDCHAR
STARTCHAR Itilde
ENCODING -1
SWIDTH 600 0
DWIDTH 16 0
BBX 10 24 3 0
BITMAP
3840
3CC0
6780
4380
0000
FFC0
FFC0
0C00
0C00
0C00
0C00
0C00
0C00
0C00
0C00
0C00
0C00
0C00
0C00
0C00
0C00
0C00
FFC0
FFC0
ENDCHAR
STARTCHAR itilde
ENCODING -1
SWIDTH 600 0
DWIDTH 16 0
BBX 11 20 3 0
BITMAP
3840
3CC0
6780
4380
0000
0000
7C00
7C00
0C00
0C00
0C00
0C00
0C00
0C00
0C00
0C00
0C00
0C00
FFE0
FFE0
ENDCHAR
STARTCHAR Imacron
ENCODING -1
SWIDTH 600 0
DWIDTH 16 0
BBX 10 22 3 0
BITMAP
7F80
7F80
0000
FFC0
FFC0
0C00
0C00
0C00
0C00
0C00
0C00
0C00
0C00
0C00
0C00
0C00
0C00
0C00
0C00
0C00
FFC0
FFC0
ENDCHAR
STARTCHAR imacron
ENCODING -1
SWIDTH 600 0
DWIDTH 16 0
BBX 11 18 3 0
BITMAP
7F80
7F80
0000
0000
7C00
7C00
0C00
0C00
0C00
0C00
0C00
0C00
0C00
0C00
0C00
0C00
FFE0
FFE0
ENDCHAR
STARTCHAR Ibreve
ENCODING -1
SWIDTH 600 0
DWIDTH 16 0
BBX 10 24 3 0
BITMAP
4080
6180
3F00
1E00
0000
FFC0
FFC0
0C00
0C00
0C00
0C00
0C00
0C00
0C00
0C00
0C00
0C00
0C00
0C00
0C00
0C00
0C00
FFC0
FFC0
ENDCHAR
STARTCHAR ibreve
ENCODING -1
SWIDTH 600 0
DWIDTH 16 0
BBX 11 20 3 0
BITMAP
2040
30C0
1F80
0F00
0000
0000
7C00
7C00
0C00
0C00
0C00
0C00
0C00
0C00
0C00
0C00
0C00
0C00
FFE0
FFE0
ENDCHAR
STARTCHAR Iogonek
ENCODING -1
SWIDTH 600 0
DWIDTH 16 0
BBX 10 25 3 -6
BITMAP
FFC0
FFC0
0C00
0C00
0C00
0C00
0C00
0C00
0C00
0C00
0C00
0C00
0C00
0C00
0C00
0C00
0C00
FFC0
FFC0
0400
0800
1800
1800
1F00
0F00
ENDCHAR
STARTCHAR iogonek
ENCODING -1
SWIDTH 600 0
DWIDTH 16 0
BBX 11 26 3 -6
BITMAP
0C00
0E00
0C00
0000
0000
0000
7C00
7C00
0C00
0C00
0C00
0C00
0C00
0C00
0C00
0C00
0C00
0C00
FFE0
FFE0
0400
0800
1800
1800
1F00
0F00
ENDCHAR
STARTCHAR Idotaccent
ENCODING -1
SWIDTH 600 0
DWIDTH 16 0
BBX 10 23 3 0
BITMAP
0C00
0E00
0C00
0000
FFC0
FFC0
0C00
0C00
0C00
0C00
0C00
0C00
0C00
0C00
0C00
0C00
0C00
0C00
0C00
0C00
0C00
FFC0
FFC0
ENDCHAR
STARTCHAR dotlessi
ENCODING -1
SWIDTH 600 0
DWIDTH 16 0
BBX 11 14 3 0
BITMAP
7C00
7C00
0C00
0C00
0C00
0C00
0C00
0C00
0C00
0C00
0C00
0C00
FFE0
FFE0
ENDCHAR
STARTCHAR IJ
ENCODING -1
SWIDTH 600 0
DWIDTH 16 0
BBX 12 19 2 0
BITMAP
C030
C030
C030
C030
C030
C030
C030
C030
C030
C030
C030
C030
C030
C030
C030
C070
C0E0
CFE0
CF80
ENDCHAR
STARTCHAR ij
ENCODING -1
SWIDTH 600 0
DWIDTH 16 0
BBX 11 26 3 -6
BITMAP
C0E0
E0E0
C0E0
0000
0000
0000
C7E0
C7E0
C060
C060
C060
C060
C060
C060
C060
C060
C060
C060
C060
C060
0060
0060
0060
00E0
0FC0
0F80
ENDCHAR
STARTCHAR Jcircumflex
ENCODING -1
SWIDTH 600 0
DWIDTH 16 0
BBX 14 24 2 0
BITMAP
0070
00F8
01D8
030C
0000
0060
0060
0060
0060
0060
0060
0060
0060
0060
0060
0060
0060
0060
0060
00E0
00E0
83C0
FF80
7E00
ENDCHAR
STARTCHAR jcircumflex
ENCODING -1
SWIDTH 600 0
DWIDTH 16 0
BBX 10 26 2 -6
BITMAP
0700
0F80
1D80
30C0
0000
0000
7F80
7F80
0180
0180
0180
0180
0180
0180
0180
0180
0180
0180
0180
0180
0180
0180
0380
0380
FF00
FC00
ENDCHAR
STARTCHAR uni0136
ENCODING -1
SWIDTH 600 0
DWIDTH 16 0
BBX 12 25 3 -6
BITMAP
C070
C0E0
C0C0
C180
C380
C700
C600
CC00
DC00
FC00
EE00
C700
C300
C380
C180
C1C0
C0E0
C060
C070
0000
0000
0600
0600
0C00
0C00
ENDCHAR
STARTCHAR uni0137
ENCODING -1
SWIDTH 600 0
DWIDTH 16 0
BBX 12 26 3 -6
BITMAP
C000
C000
C000
C000
C000
C000
C060
C0C0
C180
C300
CE00
DC00
DC00
FE00
E700
C300
C380
C1C0
C0E0
C070
0000
0000
0600
0600
0C00
0C00
ENDCHAR
STARTCHAR kgreenlandic
ENCODING -1
SWIDTH 600 0
DWIDTH 16 0
BBX 12 14 3 0
BITMAP
C060
C0C0
C180
C300
C600
CC00
D800
FC00
EE00
C700
C380
C1C0
C0E0
C070
ENDCHAR
STARTCHAR Lacute
ENCODING -1
SWIDTH 600 0
DWIDTH 16 0
BBX 11 24 3 0
BITMAP
1C00
3800
3000
6000
0000
C000
C000
C000
C000
C000
C000
C000
C000
C000
C000
C000
C000
C000
C000
C000
C000
C000
FFE0
FFE0
ENDCHAR
STARTCHAR lacute
ENCODING -1
SWIDTH 600 0
DWIDTH 16 0
BBX 11 25 3 0
BITMAP
0380
0700
0600
0C00
0000
7C00
7C00
0C00
0C00
0C00
0C00
0C00
0C00
0C00
0C00
0C00
0C00
0C00
0C00
0C00
0C00
0C00
0C00
FFE0
FFE0
ENDCHAR
STARTCHAR uni013B
ENCODING -1
SWIDTH 600 0
DWIDTH 16 0
BBX 11 25 3 -6
BITMAP
C000
C000
C000
C000
C000
C000
C000
C000
C000
C000
C000
C000
C000
C000
C000
C000
C000
FFE0
FFE0
0000
0000
0600
0600
0C00
0C00
ENDCHAR
STARTCHAR uni013C
ENCODING -1
SWIDTH 600 0
DWIDTH 16 0
BBX 11 26 3 -6
BITMAP
7C00
7C00
0C00
0C00
0C00
0C00
0C00
0C00
0C00
0C00
0C00
0C00
0C00
0C00
0C00
0C00
0C00
0C00
FFE0
FFE0
0000
0000
0600
0600
0C00
0C00
ENDCHAR
STARTCHAR Lcaron
ENCODING -1
SWIDTH 600 0
DWIDTH 16 0
BBX 11 19 3 0
BITMAP
C0C0
C1C0
C180
C180
C000
C000
C000
C000
C000
C000
C000
C000
C000
C000
C000
C000
C000
FFE0
FFE0
ENDCHAR
STARTCHAR lcaron
ENCODING -1
SWIDTH 600 0
DWIDTH 16 0
BBX 11 20 3 0
BITMAP
7C60
7CE0
0CC0
0CC0
0C00
0C00
0C00
0C00
0C00
0C00
0C00
0C00
0C00
0C00
0C00
0C00
0C00
0C00
FFE0
FFE0
ENDCHAR
STARTCHAR Ldot
ENCODING -1
SWIDTH 600 0
DWIDTH 16 0
BBX 11 19 3 0
BITMAP
C000
C000
C000
C000
C000
C000
C000
C000
C180
C1C0
C180
C000
C000
C000
C000
C000
C000
FFE0
FFE0
ENDCHAR
STARTCHAR ldot
ENCODING -1
SWIDTH 600 0
DWIDTH 16 0
BBX 11 20 3 0
BITMAP
7C00
7C00
0C00
0C00
0C00
0C00
0C00
0C00
0C00
0C00
0CC0
0CE0
0CC0
0C00
0C00
0C00
0C00
0C00
FFE0
FFE0
ENDCHAR
STARTCHAR Lslash
ENCODING -1
SWIDTH 600 0
DWIDTH 16 0
BBX 13 19 1 0
BITMAP
3000
3000
3000
3000
3000
3000
3080
31C0
3780
3E00
3C00
7000
F000
7000
3000
3000
3000
3FF8
3FF8
ENDCHAR
STARTCHAR lslash
ENCODING -1
SWIDTH 600 0
DWIDTH 16 0
BBX 11 20 3 0
BITMAP
7C00
7C00
0C00
0C00
0C00
0C00
0C00
0D00
0F80
0F00
1E00
3C00
7C00
2C00
0C00
0C00
0C00
0C00
FFE0
FFE0
ENDCHAR
STARTCHAR Nacute
ENCODING -1
SWIDTH 600 0
DWIDTH 16 0
BBX 12 24 2 0
BITMAP
01C0
0380
0300
0600
0000
E030
E030
F030
F030
D830
D830
CC30
CC30
CE30
C630
C730
C330
C330
C1B0
C1B0
C0F0
C0F0
C070
C070
ENDCHAR
STARTCHAR nacute
ENCODING -1
SWIDTH 600 0
DWIDTH 16 0
BBX 12 20 2 0
BITMAP
01C0
0380
0300
0600
0000
0000
CFC0
DFE0
F070
E070
E030
C030
C030
C030
C030
C030
C030
C030
C030
C030
ENDCHAR
STARTCHAR uni0145
ENCODING -1
SWIDTH 600 0
DWIDTH 16 0
BBX 12 25 2 -6
BITMAP
E030
E030
F030
F030
D830
D830
CC30
CC30
CE30
C630
C730
C330
C330
C1B0
C1B0
C0F0
C0F0
C070
C070
0000
0000
0600
0600
0C00
0C00
ENDCHAR
STARTCHAR uni0146
ENCODING -1
SWIDTH 600 0
DWIDTH 16 0
BBX 12 20 2 -6
BITMAP
CFC0
DFE0
F070
E070
E030
C030
C030
C030
C030
C030
C030
C030
C030
C030
0000
0000
0600
0600
0C00
0C00
ENDCHAR
STARTCHAR Ncaron
ENCODING -1
SWIDTH 600 0
DWIDTH 16 0
BBX 12 24 2 0
BITMAP
30C0
1D80
0F80
0700
0000
E030
E030
F030
F030
D830
D830
CC30
CC30
CE30
C630
C730
C330
C330
C1B0
C1B0
C0F0
C0F0
C070
C070
ENDCHAR
STARTCHAR ncaron
ENCODING -1
SWIDTH 600 0
DWIDTH 16 0
BBX 12 20 2 0
BITMAP
30C0
1D80
0F80
0700
0000
0000
CFC0
DFE0
F070
E070
E030
C030
C030
C030
C030
C030
C030
C030
C030
C030
ENDCHAR
STARTCHAR napostrophe
ENCODING -1
SWIDTH 600 0
DWIDTH 16 0
BBX 15 20 0 0
BITMAP
7000
7000
6000
6000
C000
C000
19F8
1BFC
1E0E
1C0E
1C06
1806
1806
1806
1806
1806
1806
1806
1806
1806
ENDCHAR
STARTCHAR Eng
ENCODING -1
SWIDTH 600 0
DWIDTH 16 0
BBX 12 24 2 -5
BITMAP
E030
E030
F030
F030
D830
D830
CC30
CC30
C630
C630
C330
C330
C1B0
C1B0
C0F0
C0F0
C070
C070
C030
0030
0030
0060
07E0
0780
ENDCHAR
STARTCHAR eng
ENCODING -1
SWIDTH 600 0
DWIDTH 16 0
BBX 12 20 2 -6
BITMAP
CFC0
DFE0
F070
E070
E030
C030
C030
C030
C030
C030
C030
C030
C030
C030
0030
0030
0030
0070
03E0
03C0
ENDCHAR
STARTCHAR Omacron
ENCODING -1
SWIDTH 600 0
DWIDTH 16 0
BBX 14 22 1 0
BITMAP
1FE0
1FE0
0000
0FC0
1FE0
3870
7038
6018
E01C
E01C
E01C
E01C
E01C
E01C
E01C
E01C
E01C
6018
7038
3870
1FE0
0FC0
ENDCHAR
STARTCHAR omacron
ENCODING -1
SWIDTH 600 0
DWIDTH 16 0
BBX 14 18 1 0
BITMAP
1FE0
1FE0
0000
0000
0FC0
3FF0
7038
6018
E01C
C01C
C00C
C00C
E01C
E01C
6018
7038
3FF0
0FC0
ENDCHAR
STARTCHAR Obreve
ENCODING -1
SWIDTH 600 0
DWIDTH 16 0
BBX 14 24 1 0
BITMAP
1020
1860
0FC0
0780
0000
0FC0
1FE0
3870
7038
6018
E01C
E01C
E01C
E01C
E01C
E01C
E01C
E01C
E01C
6018
7038
3870
1FE0
0FC0
ENDCHAR
STARTCHAR obreve
ENCODING -1
SWIDTH 600 0
DWIDTH 16 0
BBX 14 20 1 0
BITMAP
1020
1860
0FC0
0780
0000
0000
0FC0
3FF0
7038
6018
E01C
C01C
C00C
C00C
E01C
E01C
6018
7038
3FF0
0FC0
ENDCHAR
STARTCHAR Ohungarumlaut
ENCODING -1
SWIDTH 600 0
DWIDTH 16 0
BBX 14 24 1 0
BITMAP
0738
0E70
0C60
18C0
0000
0FC0
1FE0
3870
7038
6018
E01C
E01C
E01C
E01C
E01C
E01C
E01C
E01C
E01C
6018
7038
3870
1FE0
0FC0
ENDCHAR
STARTCHAR ohungarumlaut
ENCODING -1
SWIDTH 600 0
DWIDTH 16 0
BBX 14 20 1 0
BITMAP
0738
0E70
0C60
18C0
0000
0000
0FC0
3FF0
7038
6018
E01C
C01C
C00C
C00C
E01C
E01C
6018
7038
3FF0
0FC0
ENDCHAR
STARTCHAR OE
ENCODING -1
SWIDTH 600 0
DWIDTH 16 0
BBX 15 19 0 0
BITMAP
0FFE
3FFE
78C0
70C0
60C0
E0C0
E0C0
C0C0
C0FE
C0FE
C0C0
C0C0
E0C0
E0C0
60C0
70C0
78C0
3FFE
0FFE
ENDCHAR
STARTCHAR oe
ENCODING -1
SWIDTH 600 0
DWIDTH 16 0
BBX 14 14 1 0
BITMAP
3C70
7CF8
6798
E39C
C30C
C30C
C3FC
C3FC
C300
C300
E380
6780
7EF8
3C78
ENDCHAR
STARTCHAR Racute
ENCODING -1
SWIDTH 600 0
DWIDTH 16 0
BBX 13 24 2 0
BITMAP
0380
0700
0600
0C00
0000
FF80
FFC0
C0E0
C070
C070
C070
C070
C070
C0E0
FFC0
FF00
C380
C380
C1C0
C0E0
C0E0
C070
C030
C038
ENDCHAR
STARTCHAR racute
ENCODING -1
SWIDTH 600 0
DWIDTH 16 0
BBX 11 20 3 0
BITMAP
0380
0700
0600
0C00
0000
0000
C7E0
DFE0
F800
E000
E000
C000
C000
C000
C000
C000
C000
C000
C000
C000
ENDCHAR
STARTCHAR uni0156
ENCODING -1
SWIDTH 600 0
DWIDTH 16 0
BBX 13 25 2 -6
BITMAP
FF80
FFC0
C0E0
C070
C070
C070
C070
C070
C0E0
FFC0
FF00
C380
C380
C1C0
C0E0
C0E0
C070
C030
C038
0000
0000
0300
0300
0600
0600
ENDCHAR
STARTCHAR uni0157
ENCODING -1
SWIDTH 600 0
DWIDTH 16 0
BBX 11 20 3 -6
BITMAP
C7E0
DFE0
F800
E000
E000
C000
C000
C000
C000
C000
C000
C000
C000
C000
0000
0000
6000
6000
C000
C000
ENDCHAR
STARTCHAR Rcaron
ENCODING -1
SWIDTH 600 0
DWIDTH 16 0
BBX 13 24 2 0
BITMAP
30C0
1D80
0F80
0700
0000
FF80
FFC0
C0E0
C070
C070
C070
C070
C070
C0E0
FFC0
FF00
C380
C380
C1C0
C0E0
C0E0
C070
C030
C038
ENDCHAR
STARTCHAR rcaron
ENCODING -1
SWIDTH 600 0
DWIDTH 16 0
BBX 11 20 3 0
BITMAP
6180
3B00
1F00
0E00
0000
0000
C7E0
DFE0
F800
E000
E000
C000
C000
C000
C000
C000
C000
C000
C000
C000
ENDCHAR
STARTCHAR Sacute
ENCODING -1
SWIDTH 600 0
DWIDTH 16 0
BBX 12 24 2 0
BITMAP
01C0
0380
0300
0600
0000
1FE0
7FF0
7060
E000
C000
C000
E000
7000
3E00
1F80
03E0
00E0
0070
0030
0030
0070
C0E0
FFC0
7F80
ENDCHAR
STARTCHAR sacute
ENCODING -1
SWIDTH 600 0
DWIDTH 16 0
BBX 10 20 3 0
BITMAP
0380
0700
0600
0C00
0000
0000
3F80
7FC0
E080
C000
E000
7800
3E00
0F80
03C0
00C0
00C0
81C0
FF80
7F00
ENDCHAR
STARTCHAR Scircumflex
ENCODING -1
SWIDTH 600 0
DWIDTH 16 0
BBX 12 24 2 0
BITMAP
0380
07C0
0EC0
1860
0000
1FE0
7FF0
7060
E000
C000
C000
E000
7000
3E00
1F80
03E0
00E0
0070
0030
0030
0070
C0E0
FFC0
7F80
ENDCHAR
STARTCHAR scircumflex
ENCODING -1
SWIDTH 600 0
DWIDTH 16 0
BBX 10 20 3 0
BITMAP
0700
0F80
1D80
30C0
0000
0000
3F80
7FC0
E080
C000
E000
7800
3E00
0F80
03C0
00C0
00C0
81C0
FF80
7F00
ENDCHAR
STARTCHAR Scedilla
ENCODING -1
SWIDTH 600 0
DWIDTH 16 0
BBX 12 25 2 -6
BITMAP
1FE0
7FF0
7060
E000
C000
C000
E000
7000
3E00
1F80
03E0
00E0
0070
0030
0030
0070
C0E0
FFC0
7F80
0400
0C00
0700
0300
0700
1E00
ENDCHAR
STARTCHAR scedilla
ENCODING -1
SWIDTH 600 0
DWIDTH 16 0
BBX 10 20 3 -6
BITMAP
3F80
7FC0
E080
C000
E000
7800
3E00
0F80
03C0
00C0
00C0
81C0
FF80
7F00
0400
0C00
0700
0300
0700
1E00
ENDCHAR
STARTCHAR Scaron
ENCODING -1
SWIDTH 600 0
DWIDTH 16 0
BBX 12 24 2 0
BITMAP
1860
0EC0
07C0
0380
0000
1FE0
7FF0
7060
E000
C000
C000
E000
7000
3E00
1F80
03E0
00E0
0070
0030
0030
0070
C0E0
FFC0
7F80
ENDCHAR
STARTCHAR scaron
ENCODING -1
SWIDTH 600 0
DWIDTH 16 0
BBX 10 20 3 0
BITMAP
6180
3B00
1F00
0E00
0000
0000
3F80
7FC0
E080
C000
E000
7800
3E00
0F80
03C0
00C0
00C0
81C0
FF80
7F00
ENDCHAR
STARTCHAR uni021A
ENCODING -1
SWIDTH 600 0
DWIDTH 16 0
BBX 13 25 2 -6
BITMAP
FFF8
FFF8
0600
0600
0600
0600
0600
0600
0600
0600
0600
0600
0600
0600
0600
0600
0600
0600
0600
0000
0000
0300
0300
0600
0600
ENDCHAR
STARTCHAR uni021B
ENCODING -1
SWIDTH 600 0
DWIDTH 16 0
BBX 11 24 2 -6
BITMAP
0800
0800
1800
1800
FFE0
FFE0
1800
1800
1800
1800
1800
1800
1800
1800
1800
1C00
0FE0
07E0
0000
0000
0300
0300
0600
0600
ENDCHAR
STARTCHAR Tcaron
ENCODING -1
SWIDTH 600 0
DWIDTH 16 0
BBX 13 24 2 0
BITMAP
1860
0EC0
07C0
0380
0000
FFF8
FFF8
0600
0600
0600
0600
0600
0600
0600
0600
0600
0600
0600
0600
0600
0600
0600
0600
0600
ENDCHAR
STARTCHAR tcaron
ENCODING -1
SWIDTH 600 0
DWIDTH 16 0
BBX 12 20 2 0
BITMAP
0030
0070
0860
0860
1800
1800
FFE0
FFE0
1800
1800
1800
1800
1800
1800
1800
1800
1800
1C00
0FE0
07E0
ENDCHAR
STARTCHAR Tbar
ENCODING -1
SWIDTH 600 0
DWIDTH 16 0
BBX 13 19 2 0
BITMAP
FFF8
FFF8
0600
0600
0600
0600
0600
0600
7FE0
7FE0
0600
0600
0600
0600
0600
0600
0600
0600
0600
ENDCHAR
STARTCHAR tbar
ENCODING -1
SWIDTH 600 0
DWIDTH 16 0
BBX 11 18 2 0
BITMAP
0800
0800
1800
1800
FFE0
FFE0
1800
1800
1800
7F80
7F80
1800
1800
1800
1800
1C00
0FE0
07E0
ENDCHAR
STARTCHAR Utilde
ENCODING -1
SWIDTH 600 0
DWIDTH 16 0
BBX 12 24 2 0
BITMAP
1C20
1E60
33C0
21C0
0000
C030
C030
C030
C030
C030
C030
C030
C030
C030
C030
C030
C030
C030
C070
E070
E060
70E0
3FC0
1F80
ENDCHAR
STARTCHAR utilde
ENCODING -1
SWIDTH 600 0
DWIDTH 16 0
BBX 12 20 2 0
BITMAP
1C20
1E60
33C0
21C0
0000
0000
C030
C030
C030
C030
C030
C030
C030
C030
C030
C070
E070
E0F0
7FB0
3F30
ENDCHAR
STARTCHAR Umacron
ENCODING -1
SWIDTH 600 0
DWIDTH 16 0
BBX 12 22 2 0
BITMAP
3FC0
3FC0
0000
C030
C030
C030
C030
C030
C030
C030
C030
C030
C030
C030
C030
C030
C070
E070
E060
70E0
3FC0
1F80
ENDCHAR
STARTCHAR umacron
ENCODING -1
SWIDTH 600 0
DWIDTH 16 0
BBX 12 18 2 0
BITMAP
3FC0
3FC0
0000
0000
C030
C030
C030
C030
C030
C030
C030
C030
C030
C070
E070
E0F0
7FB0
3F30
ENDCHAR
STARTCHAR Ubreve
ENCODING -1
SWIDTH 600 0
DWIDTH 16 0
BBX 12 24 2 0
BITMAP
2040
30C0
1F80
0F00
0000
C030
C030
C030
C030
C030
C030
C030
C030
C030
C030
C030
C030
C030
C070
E070
E060
70E0
3FC0
1F80
ENDCHAR
STARTCHAR ubreve
ENCODING -1
SWIDTH 600 0
DWIDTH 16 0
BBX 12 20 2 0
BITMAP
2040
30C0
1F80
0F00
0000
0000
C030
C030
C030
C030
C030
C030
C030
C030
C030
C070
E070
E0F0
7FB0
3F30
ENDCHAR
STARTCHAR Uring
ENCODING -1
SWIDTH 600 0
DWIDTH 16 0
BBX 12 25 2 0
BITMAP
0F00
1980
1080
1980
0F00
0000
C030
C030
C030
C030
C030
C030
C030
C030
C030
C030
C030
C030
C030
C070
E070
E060
70E0
3FC0
1F80
ENDCHAR
STARTCHAR uring
ENCODING -1
SWIDTH 600 0
DWIDTH 16 0
BBX 12 21 2 0
BITMAP
0F00
1980
1080
1980
0F00
0000
0000
C030
C030
C030
C030
C030
C030
C030
C030
C030
C070
E070
E0F0
7FB0
3F30
ENDCHAR
STARTCHAR Uhungarumlaut
ENCODING -1
SWIDTH 600 0
DWIDTH 16 0
BBX 12 24 2 0
BITMAP
0E70
1CE0
18C0
3180
0000
C030
C030
C030
C030
C030
C030
C030
C030
C030
C030
C030
C030
C030
C070
E070
E060
70E0
3FC0
1F80
ENDCHAR
STARTCHAR uhungarumlaut
ENCODING -1
SWIDTH 600 0
DWIDTH 16 0
BBX 12 20 2 0
BITMAP
0E70
1CE0
18C0
3180
0000
0000
C030
C030
C030
C030
C030
C030
C030
C030
C030
C070
E070
E0F0
7FB0
3F30
ENDCHAR
STARTCHAR Uogonek
ENCODING -1
SWIDTH 600 0
DWIDTH 16 0
BBX 12 25 2 -6
BITMAP
C030
C030
C030
C030
C030
C030
C030
C030
C030
C030
C030
C030
C030
C070
E070
E060
70E0
3FC0
1F80
0200
0400
0C00
0C00
0F80
0780
ENDCHAR
STARTCHAR uogonek
ENCODING -1
SWIDTH 600 0
DWIDTH 16 0
BBX 13 20 2 -6
BITMAP
C030
C030
C030
C030
C030
C030
C030
C030
C030
C070
E070
E0F0
7FB0
3F30
0020
0040
00C0
00C0
00F8
0078
ENDCHAR
STARTCHAR Wcircumflex
ENCODING -1
SWIDTH 600 0
DWIDTH 16 0
BBX 16 24 0 0
BITMAP
01C0
03E0
0760
0C30
0000
C003
C003
C003
E007
6006
6006
6186
63C6
63C6
63C6
6246
3666
366C
366C
3C3C
3C3C
3C3C
381C
181C
ENDCHAR
STARTCHAR wcircumflex
ENCODING -1
SWIDTH 600 0
DWIDTH 16 0
BBX 16 20 0 0
BITMAP
01C0
03E0
0760
0C30
0000
0000
C183
C3C3
43C3
63C6
6246
6666
6666
2666
366C
342C
3C3C
3C3C
1C3C
1818
ENDCHAR
STARTCHAR Ycircumflex
ENCODING -1
SWIDTH 600 0
DWIDTH 16 0
BBX 15 24 1 0
BITMAP
01C0
03E0
0760
0C30
0000
E00E
600C
701C
3018
3838
1830
1C60
0CE0
0CC0
07C0
0780
0380
0300
0300
0300
0300
0300
0300
0300
ENDCHAR
STARTCHAR ycircumflex
ENCODING -1
SWIDTH 600 0
DWIDTH 16 0
BBX 14 26 1 -6
BITMAP
0380
07C0
0EC0
1860
0000
0000
E01C
6018
6018
7038
3030
3870
1860
1C60
0CE0
0CC0
0FC0
0780
0780
0380
0300
0700
0600
0E00
FC00
F800
ENDCHAR
STARTCHAR Ydieresis
ENCODING -1
SWIDTH 600 0
DWIDTH 16 0
BBX 15 23 1 0
BITMAP
0C60
0C60
0C60
0000
E00E
600C
701C
3018
3838
1830
1C60
0CE0
0CC0
07C0
0780
0380
0300
0300
0300
0300
0300
0300
0300
ENDCHAR
STARTCHAR Zacute
ENCODING -1
SWIDTH 600 0
DWIDTH 16 0
BBX 14 24 1 0
BITMAP
01C0
0380
0300
0600
0000
FFFC
FFFC
0018
0038
0030
0060
00C0
01C0
0180
0300
0600
0E00
0C00
1800
3000
7000
6000
FFFC
FFFC
ENDCHAR
STARTCHAR zacute
ENCODING -1
SWIDTH 600 0
DWIDTH 16 0
BBX 12 20 2 0
BITMAP
01C0
0380
0300
0600
0000
0000
FFF0
FFF0
0060
00E0
01C0
0380
0700
0E00
0C00
1800
3000
6000
FFF0
FFF0
ENDCHAR
STARTCHAR Zdotaccent
ENCODING -1
SWIDTH 600 0
DWIDTH 16 0
BBX 14 23 1 0
BITMAP
0300
0380
0300
0000
FFFC
FFFC
0018
0038
0030
0060
00C0
01C0
0180
0300
0600
0E00
0C00
1800
3000
7000
6000
FFFC
FFFC
ENDCHAR
STARTCHAR zdotaccent
ENCODING -1
SWIDTH 600 0
DWIDTH 16 0
BBX 12 19 2 0
BITMAP
0600
0700
0600
0000
0000
FFF0
FFF0
0060
00E0
01C0
0380
0700
0E00
0C00
1800
3000
6000
FFF0
FFF0
ENDCHAR
STARTCHAR Zcaron
ENCODING -1
SWIDTH 600 0
DWIDTH 16 0
BBX 14 24 1 0
BITMAP
1860
0EC0
07C0
0380
0000
FFFC
FFFC
0018
0038
0030
0060
00C0
01C0
0180
0300
0600
0E00
0C00
1800
3000
7000
6000
FFFC
FFFC
ENDCHAR
STARTCHAR zcaron
ENCODING -1
SWIDTH 600 0
DWIDTH 16 0
BBX 12 20 2 0
BITMAP
30C0
1D80
0F80
0700
0000
0000
FFF0
FFF0
0060
00E0
01C0
0380
0700
0E00
0C00
1800
3000
6000
FFF0
FFF0
ENDCHAR
STARTCHAR longs
ENCODING -1
SWIDTH 600 0
DWIDTH 16 0
BBX 8 20 5 0
BITMAP
3F
7F
E0
C0
C0
C0
C0
C0
C0
C0
C0
C0
C0
C0
C0
C0
C0
C0
C0
C0
ENDCHAR
STARTCHAR florin
ENCODING -1
SWIDTH 600 0
DWIDTH 16 0
BBX 10 25 3 -6
BITMAP
07C0
0FC0
1C00
1800
1800
1800
3F80
7F80
1800
1800
1800
1800
1800
1800
1800
1800
1800
1800
1800
1800
1800
1800
1800
F800
F000
ENDCHAR
STARTCHAR Aringacute
ENCODING -1
SWIDTH 600 0
DWIDTH 16 0
BBX 16 27 0 0
BITMAP
00E0
01C0
0180
0300
03C0
0660
0420
0660
03C0
03C0
03C0
03E0
0660
0660
0E70
0C30
0C30
1C38
1818
1FF8
3FFC
300C
300C
700E
6006
6006
E007
ENDCHAR
STARTCHAR aringacute
ENCODING -1
SWIDTH 600 0
DWIDTH 16 0
BBX 11 26 2 0
BITMAP
0380
0700
0600
0C00
0000
0F00
1980
1080
1980
0F00
0000
0000
1F80
7FC0
20E0
00E0
0060
0060
1FE0
7FE0
E060
C060
C0E0
E1E0
7F60
3E60
ENDCHAR
STARTCHAR AEacute
ENCODING -1
SWIDTH 600 0
DWIDTH 16 0
BBX 15 24 0 0
BITMAP
0038
0070
0060
00C0
0000
0FFE
0FFE
1980
1980
1980
1980
1980
3180
31FE
31FE
3180
3F80
7F80
6180
6180
6180
6180
C1FE
C1FE
ENDCHAR
STARTCHAR aeacute
ENCODING -1
SWIDTH 600 0
DWIDTH 16 0
BBX 14 20 1 0
BITMAP
00E0
01C0
0180
0300
0000
0000
3C70
7EF8
4798
039C
030C
030C
3FFC
7FFC
E300
C300
C380
E7C4
7CFC
7878
ENDCHAR
STARTCHAR Oslashacute
ENCODING -1
SWIDTH 600 0
DWIDTH 16 0
BBX 14 25 1 -1
BITMAP
01C0
0380
0300
0600
0008
0FCC
1FF8
3878
7038
6078
E0FC
E0DC
E1DC
E39C
E31C
E71C
E61C
EC1C
FC1C
7818
7038
7870
7FE0
EFC0
4000
ENDCHAR
STARTCHAR oslashacute
ENCODING -1
SWIDTH 600 0
DWIDTH 16 0
BBX 14 21 1 -1
BITMAP
00E0
01C0
0180
0300
0000
0010
0FF8
3FF0
7078
60F8
E0DC
C1DC
C38C
C70C
C61C
EE1C
7C18
7838
3FF0
7FC0
2000
ENDCHAR
STARTCHAR uni0218
ENCODING -1
SWIDTH 600 0
DWIDTH 16 0
BBX 12 25 2 -6
BITMAP
1FE0
7FF0
7060
E000
C000
C000
E000
7000
3E00
1F80
03E0
00E0
0070
0030
0030
0070
C0E0
FFC0
7F80
0000
0000
0300
0300
0600
0600
ENDCHAR
STARTCHAR uni0219
ENCODING -1
SWIDTH 600 0
DWIDTH 16 0
BBX 10 20 3 -6
BITMAP
3F80
7FC0
E080
C000
E000
7800
3E00
0F80
03C0
00C0
00C0
81C0
FF80
7F00
0000
0000
0C00
0C00
1800
1800
ENDCHAR
STARTCHAR circumflex
ENCODING -1
SWIDTH 600 0
DWIDTH 16 0
BBX 8 4 4 16
BITMAP
1C
3E
76
C3
ENDCHAR
STARTCHAR caron
ENCODING -1
SWIDTH 600 0
DWIDTH 16 0
BBX 8 4 4 16
BITMAP
C3
76
3E
1C
ENDCHAR
STARTCHAR uni02C9
ENCODING -1
SWIDTH 600 0
DWIDTH 16 0
BBX 8 2 4 16
BITMAP
FF
FF
ENDCHAR
STARTCHAR breve
ENCODING -1
SWIDTH 600 0
DWIDTH 16 0
BBX 8 4 4 16
BITMAP
81
C3
7E
3C
ENDCHAR
STARTCHAR dotaccent
ENCODING -1
SWIDTH 600 0
DWIDTH 16 0
BBX 3 3 7 16
BITMAP
C0
E0
C0
ENDCHAR
STARTCHAR ring
ENCODING -1
SWIDTH 600 0
DWIDTH 16 0
BBX 6 5 5 16
BITMAP
78
CC
84
CC
78
ENDCHAR
STARTCHAR ogonek
ENCODING -1
SWIDTH 600 0
DWIDTH 16 0
BBX 5 6 6 -6
BITMAP
20
40
C0
C0
F8
78
ENDCHAR
STARTCHAR tilde
ENCODING -1
SWIDTH 600 0
DWIDTH 16 0
BBX 9 4 4 16
BITMAP
7080
7980
CF00
8700
ENDCHAR
STARTCHAR hungarumlaut
ENCODING -1
SWIDTH 600 0
DWIDTH 16 0
BBX 10 4 3 16
BITMAP
39C0
7380
6300
C600
ENDCHAR
STARTCHAR tonos
ENCODING -1
SWIDTH 600 0
DWIDTH 16 0
BBX 3 4 7 16
BITMAP
E0
E0
C0
C0
ENDCHAR
STARTCHAR dieresistonos
ENCODING -1
SWIDTH 600 0
DWIDTH 16 0
BBX 8 5 4 16
BITMAP
0E
0C
DB
D3
C3
ENDCHAR
STARTCHAR Alphatonos
ENCODING -1
SWIDTH 600 0
DWIDTH 16 0
BBX 16 19 0 0
BITMAP
7180
73C0
63C0
63E0
0660
0660
0E70
0C30
0C30
1C38
1818
1FF8
3FFC
300C
300C
700E
6006
6006
E007
ENDCHAR
STARTCHAR anoteleia
ENCODING -1
SWIDTH 600 0
DWIDTH 16 0
BBX 3 4 6 7
BITMAP
E0
E0
E0
E0
ENDCHAR
STARTCHAR Epsilontonos
ENCODING -1
SWIDTH 600 0
DWIDTH 16 0
BBX 15 19 -1 0
BITMAP
EFFE
EFFE
CC00
CC00
0C00
0C00
0C00
0C00
0FFC
0FFC
0C00
0C00
0C00
0C00
0C00
0C00
0C00
0FFE
0FFE
ENDCHAR
STARTCHAR Etatonos
ENCODING -1
SWIDTH 600 0
DWIDTH 16 0
BBX 15 19 -1 0
BITMAP
F806
F806
D806
D806
1806
1806
1806
1806
1FFE
1FFE
1806
1806
1806
1806
1806
1806
1806
1806
1806
ENDCHAR
STARTCHAR Iotatonos
ENCODING -1
SWIDTH 600 0
DWIDTH 16 0
BBX 13 19 0 0
BITMAP
FFF8
FFF8
C180
C180
0180
0180
0180
0180
0180
0180
0180
0180
0180
0180
0180
0180
0180
1FF8
1FF8
ENDCHAR
STARTCHAR Omicrontonos
ENCODING -1
SWIDTH 600 0
DWIDTH 16 0
BBX 16 19 -1 0
BITMAP
E3F0
E7F8
CE1C
DC0E
1806
3807
3807
3807
3807
3807
3807
3807
3807
3807
1806
1C0E
0E1C
07F8
03F0
ENDCHAR
STARTCHAR Upsilontonos
ENCODING -1
SWIDTH 600 0
DWIDTH 16 0
BBX 18 19 -2 0
BITMAP
FC01C0
EC0180
CE0380
C60300
070700
030600
038C00
019C00
019800
00F800
00F000
007000
006000
006000
006000
006000
006000
006000
006000
ENDCHAR
STARTCHAR Omegatonos
ENCODING -1
SWIDTH 600 0
DWIDTH 16 0
BBX 16 19 -1 0
BITMAP
E3F0
E7F8
CE1C
DC0E
1806
3807
3807
3807
3807
3807
3807
3807
1806
1806
1C0E
0C0C
0618
3F3F
3F3F
ENDCHAR
STARTCHAR iotadieresistonos
ENCODING -1
SWIDTH 600 0
DWIDTH 16 0
BBX 9 21 4 0
BITMAP
0E00
0C00
DB00
D300
C300
0000
0000
3000
3000
3000
3000
3000
3000
3000
3000
3000
3000
3000
3800
1F80
0F80
ENDCHAR
STARTCHAR Alpha
ENCODING -1
SWIDTH 600 0
DWIDTH 16 0
BBX 16 19 0 0
BITMAP
0180
03C0
03C0
03E0
0660
0660
0E70
0C30
0C30
1C38
1818
1FF8
3FFC
300C
300C
700E
6006
6006
E007
ENDCHAR
STARTCHAR Beta
ENCODING -1
SWIDTH 600 0
DWIDTH 16 0
BBX 13 19 2 0
BITMAP
FF80
FFE0
C0F0
C070
C070
C070
C070
C0E0
FFC0
FFC0
C070
C038
C038
C038
C038
C038
C070
FFE0
FFC0
ENDCHAR
STARTCHAR Gamma
ENCODING -1
SWIDTH 600 0
DWIDTH 16 0
BBX 11 19 3 0
BITMAP
FFE0
FFE0
C000
C000
C000
C000
C000
C000
C000
C000
C000
C000
C000
C000
C000
C000
C000
C000
C000
ENDCHAR
STARTCHAR uni0394
ENCODING -1
SWIDTH 600 0
DWIDTH 16 0
BBX 14 19 1 0
BITMAP
0300
0780
0780
0780
0FC0
0CC0
0CC0
1CE0
1860
1860
3870
3030
3030
7038
6018
6018
E01C
FFFC
FFFC
ENDCHAR
STARTCHAR Epsilon
ENCODING -1
SWIDTH 600 0
DWIDTH 16 0
BBX 11 19 3 0
BITMAP
FFE0
FFE0
C000
C000
C000
C000
C000
C000
FFC0
FFC0
C000
C000
C000
C000
C000
C000
C000
FFE0
FFE0
ENDCHAR
STARTCHAR Zeta
ENCODING -1
SWIDTH 600 0
DWIDTH 16 0
BBX 14 19 1 0
BITMAP
FFFC
FFFC
0018
0038
0030
0060
00C0
01C0
0180
0300
0600
0E00
0C00
1800
3000
7000
6000
FFFC
FFFC
ENDCHAR
STARTCHAR Eta
ENCODING -1
SWIDTH 600 0
DWIDTH 16 0
BBX 12 19 2 0
BITMAP
C030
C030
C030
C030
C030
C030
C030
C030
FFF0
FFF0
C030
C030
C030
C030
C030
C030
C030
C030
C030
ENDCHAR
STARTCHAR Theta
ENCODING -1
SWIDTH 600 0
DWIDTH 16 0
BBX 14 19 1 0
BITMAP
0FC0
1FE0
3870
7038
6018
E01C
E01C
E01C
EFDC
EFDC
E01C
E01C
E01C
E01C
6018
7038
3870
1FE0
0FC0
ENDCHAR
STARTCHAR Iota
ENCODING -1
SWIDTH 600 0
DWIDTH 16 0
BBX 10 19 3 0
BITMAP
FFC0
FFC0
0C00
0C00
0C00
0C00
0C00
0C00
0C00
0C00
0C00
0C00
0C00
0C00
0C00
0C00
0C00
FFC0
FFC0
ENDCHAR
STARTCHAR Kappa
ENCODING -1
SWIDTH 600 0
DWIDTH 16 0
BBX 12 19 3 0
BITMAP
C070
C0E0
C0C0
C180
C380
C700
C600
CC00
DC00
FC00
EE00
C700
C300
C380
C180
C1C0
C0E0
C060
C070
ENDCHAR
STARTCHAR Lambda
ENCODING -1
SWIDTH 600 0
DWIDTH 16 0
BBX 15 19 0 0
BITMAP
0380
0380
07C0
06C0
06C0
0EE0
0C60
0C60
1C70
1C70
1830
3838
3838
3018
701C
701C
600C
E00E
E00E
ENDCHAR
STARTCHAR Mu
ENCODING -1
SWIDTH 600 0
DWIDTH 16 0
BBX 14 19 1 0
BITMAP
F03C
F03C
F03C
F03C
F07C
D86C
D86C
D86C
D86C
CCCC
CCCC
CCCC
CCCC
CD8C
C78C
C78C
C78C
C70C
C30C
ENDCHAR
STARTCHAR Nu
ENCODING -1
SWIDTH 600 0
DWIDTH 16 0
BBX 12 19 2 0
BITMAP
E030
E030
F030
F030
D830
D830
CC30
CC30
CE30
C630
C730
C330
C330
C1B0
C1B0
C0F0
C0F0
C070
C070
ENDCHAR
STARTCHAR Xi
ENCODING -1
SWIDTH 600 0
DWIDTH 16 0
BBX 14 19 1 0
BITMAP
7FF8
7FF8
0000
0000
0000
0000
0000
0000
3FF0
3FF0
0000
0000
0000
0000
0000
0000
0000
FFFC
FFFC
ENDCHAR
STARTCHAR Omicron
ENCODING -1
SWIDTH 600 0
DWIDTH 16 0
BBX 14 19 1 0
BITMAP
0FC0
1FE0
3870
7038
6018
E01C
E01C
E01C
E01C
E01C
E01C
E01C
E01C
E01C
6018
7038
3870
1FE0
0FC0
ENDCHAR
STARTCHAR Pi
ENCODING -1
SWIDTH 600 0
DWIDTH 16 0
BBX 12 19 2 0
BITMAP
FFF0
FFF0
C030
C030
C030
C030
C030
C030
C030
C030
C030
C030
C030
C030
C030
C030
C030
C030
C030
ENDCHAR
STARTCHAR Rho
ENCODING -1
SWIDTH 600 0
DWIDTH 16 0
BBX 12 19 2 0
BITMAP
FF80
FFC0
C0E0
C070
C070
C070
C070
C070
C060
C0E0
FFC0
FF00
C000
C000
C000
C000
C000
C000
C000
ENDCHAR
STARTCHAR Sigma
ENCODING -1
SWIDTH 600 0
DWIDTH 16 0
BBX 12 19 2 0
BITMAP
FFE0
FFE0
6000
7000
3000
1800
1C00
0E00
0600
0600
0E00
1C00
1800
3800
3000
7000
E000
FFF0
FFF0
ENDCHAR
STARTCHAR Tau
ENCODING -1
SWIDTH 600 0
DWIDTH 16 0
BBX 13 19 2 0
BITMAP
FFF8
FFF8
0600
0600
0600
0600
0600
0600
0600
0600
0600
0600
0600
0600
0600
0600
0600
0600
0600
ENDCHAR
STARTCHAR Upsilon
ENCODING -1
SWIDTH 600 0
DWIDTH 16 0
BBX 15 19 1 0
BITMAP
E00E
600C
701C
3018
3838
1830
1C60
0CE0
0CC0
07C0
0780
0380
0300
0300
0300
0300
0300
0300
0300
ENDCHAR
STARTCHAR Phi
ENCODING -1
SWIDTH 600 0
DWIDTH 16 0
BBX 15 19 0 0
BITMAP
0300
0300
1FE0
3FF8
731C
630C
E30E
C306
C306
C306
C30E
E30E
630C
733C
3FF8
1FE0
0300
0300
0300
ENDCHAR
STARTCHAR Chi
ENCODING -1
SWIDTH 600 0
DWIDTH 16 0
BBX 14 19 1 0
BITMAP
E01C
6018
7038
3870
1860
1CE0
0CC0
0F80
0780
0300
0780
0FC0
0CC0
1CE0
1860
3070
7038
6038
E01C
ENDCHAR
STARTCHAR Psi
ENCODING -1
SWIDTH 600 0
DWIDTH 16 0
BBX 14 19 1 0
BITMAP
C30C
C30C
C30C
C30C
C30C
C30C
C30C
C30C
E31C
E31C
7338
3FF8
1FE0
0300
0300
0300
0300
0300
0300
ENDCHAR
STARTCHAR uni03A9
ENCODING -1
SWIDTH 600 0
DWIDTH 16 0
BBX 14 19 1 0
BITMAP
0FC0
1FE0
3870
7038
6018
E01C
E01C
E01C
E01C
E01C
E01C
E01C
6018
6018
7038
3030
1860
FCFC
FCFC
ENDCHAR
STARTCHAR Iotadieresis
ENCODING -1
SWIDTH 600 0
DWIDTH 16 0
BBX 10 23 3 0
BITMAP
3180
3180
3180
0000
FFC0
FFC0
0C00
0C00
0C00
0C00
0C00
0C00
0C00
0C00
0C00
0C00
0C00
0C00
0C00
0C00
0C00
FFC0
FFC0
ENDCHAR
STARTCHAR Upsilondieresis
ENCODING -1
SWIDTH 600 0
DWIDTH 16 0
BBX 15 23 1 0
BITMAP
0C60
0C60
0C60
0000
E00E
600C
701C
3018
3838
1830
1C60
0CE0
0CC0
07C0
0780
0380
0300
0300
0300
0300
0300
0300
0300
ENDCHAR
STARTCHAR alphatonos
ENCODING -1
SWIDTH 600 0
DWIDTH 16 0
BBX 14 20 2 0
BITMAP
0700
0700
0600
0600
0000
0000
1F18
3FB0
70F0
6070
E070
C030
C030
C030
C030
E070
6070
70F0
3FBC
1F1C
ENDCHAR
STARTCHAR epsilontonos
ENCODING -1
SWIDTH 600 0
DWIDTH 16 0
BBX 10 20 3 0
BITMAP
0700
0700
0600
0600
0000
0000
3F80
7FC0
E080
C000
C000
6000
3F00
3F00
E000
C000
C000
E040
7FC0
3F80
ENDCHAR
STARTCHAR etatonos
ENCODING -1
SWIDTH 600 0
DWIDTH 16 0
BBX 12 26 2 -6
BITMAP
0380
0380
0300
0300
0000
0000
CFC0
DFE0
F070
E070
E030
C030
C030
C030
C030
C030
C030
C030
C030
C030
0030
0030
0030
0030
0030
0030
ENDCHAR
STARTCHAR iotatonos
ENCODING -1
SWIDTH 600 0
DWIDTH 16 0
BBX 7 20 6 0
BITMAP
70
70
60
60
00
00
C0
C0
C0
C0
C0
C0
C0
C0
C0
C0
C0
E0
7E
3E
ENDCHAR
STARTCHAR upsilondieresistonos
ENCODING -1
SWIDTH 600 0
DWIDTH 16 0
BBX 12 21 2 0
BITMAP
0380
0300
36C0
34C0
30C0
0000
0000
C060
C060
C070
C030
C030
C030
C030
C030
C070
E070
E060
70E0
3FC0
1F80
ENDCHAR
STARTCHAR alpha
ENCODING -1
SWIDTH 600 0
DWIDTH 16 0
BBX 14 14 2 0
BITMAP
1F18
3FB0
70F0
6070
E070
C030
C030
C030
C030
E070
6070
70F0
3FBC
1F1C
ENDCHAR
STARTCHAR beta
ENCODING -1
SWIDTH 600 0
DWIDTH 16 0
BBX 12 26 2 -6
BITMAP
1F00
3FC0
71C0
E0E0
C060
C060
C0E0
C0C0
C1C0
CF00
CF80
C0E0
C070
C030
C030
C030
C070
E0E0
FFE0
DF80
C000
C000
C000
C000
C000
C000
ENDCHAR
STARTCHAR gamma
ENCODING -1
SWIDTH 600 0
DWIDTH 16 0
BBX 14 20 1 -6
BITMAP
E01C
6018
7018
3038
3830
1830
1870
1C60
0C60
0EC0
06C0
06C0
0380
0380
0300
0300
0300
0700
0600
0600
ENDCHAR
STARTCHAR delta
ENCODING -1
SWIDTH 600 0
DWIDTH 16 0
BBX 12 20 2 0
BITMAP
0F80
1FE0
3860
3000
3000
1800
1E00
0F00
0FC0
38E0
7060
6070
E070
C030
C030
E070
E060
70E0
3FC0
1F80
ENDCHAR
STARTCHAR epsilon
ENCODING -1
SWIDTH 600 0
DWIDTH 16 0
BBX 10 14 3 0
BITMAP
3F80
7FC0
E080
C000
C000
6000
3F00
3F00
E000
C000
C000
E040
7FC0
3F80
ENDCHAR
STARTCHAR zeta
ENCODING -1
SWIDTH 600 0
DWIDTH 16 0
BBX 12 25 2 -5
BITMAP
7FF0
7FF0
00E0
01C0
0700
0E00
1C00
3800
3000
6000
6000
E000
C000
C000
C000
E000
E000
7C00
3FC0
0FF0
0070
0030
0030
0060
0060
ENDCHAR
STARTCHAR eta
ENCODING -1
SWIDTH 600 0
DWIDTH 16 0
BBX 12 20 2 -6
BITMAP
CFC0
DFE0
F070
E070
E030
C030
C030
C030
C030
C030
C030
C030
C030
C030
0030
0030
0030
0030
0030
0030
ENDCHAR
STARTCHAR theta
ENCODING -1
SWIDTH 600 0
DWIDTH 16 0
BBX 12 19 2 0
BITMAP
0F00
3FC0
70E0
6060
6060
E070
C070
C030
FFF0
FFF0
C030
C070
E070
E070
6060
6060
70E0
3FC0
0F00
ENDCHAR
STARTCHAR iota
ENCODING -1
SWIDTH 600 0
DWIDTH 16 0
BBX 7 14 6 0
BITMAP
C0
C0
C0
C0
C0
C0
C0
C0
C0
C0
C0
E0
7E
3E
ENDCHAR
STARTCHAR kappa
ENCODING -1
SWIDTH 600 0
DWIDTH 16 0
BBX 12 14 3 0
BITMAP
C060
C0C0
C180
C300
C600
CC00
D800
FC00
EE00
C700
C380
C1C0
C0E0
C070
ENDCHAR
STARTCHAR lambda
ENCODING -1
SWIDTH 600 0
DWIDTH 16 0
BBX 14 20 1 0
BITMAP
3C00
3E00
0600
0300
0300
0380
0380
0380
07C0
06C0
0EC0
0CE0
1C60
1860
1870
3030
3030
7038
601C
E01C
ENDCHAR
STARTCHAR uni03BC
ENCODING -1
SWIDTH 600 0
DWIDTH 16 0
BBX 12 20 2 -6
BITMAP
C030
C030
C030
C030
C030
C030
C030
C030
C030
C070
E070
E0F0
FFB0
DF30
C000
C000
C000
C000
C000
C000
ENDCHAR
STARTCHAR nu
ENCODING -1
SWIDTH 600 0
DWIDTH 16 0
BBX 13 14 1 0
BITMAP
C018
E018
6018
6038
7038
3030
3830
1830
1860
1C60
0CC0
0DC0
0780
0700
ENDCHAR
STARTCHAR xi
ENCODING -1
SWIDTH 600 0
DWIDTH 16 0
BBX 12 25 2 -5
BITMAP
7FE0
7FE0
1C00
3800
7000
6000
6000
7000
3800
1FE0
1FE0
7000
6000
E000
C000
E000
E000
7C00
3FC0
0FF0
0070
0030
0030
0060
0060
ENDCHAR
STARTCHAR omicron
ENCODING -1
SWIDTH 600 0
DWIDTH 16 0
BBX 14 14 1 0
BITMAP
0FC0
3FF0
7038
6018
E01C
C01C
C00C
C00C
E01C
E01C
6018
7038
3FF0
0FC0
ENDCHAR
STARTCHAR pi
ENCODING -1
SWIDTH 600 0
DWIDTH 16 0
BBX 16 14 0 0
BITMAP
7FFF
FFFF
1818
1818
1818
1818
1818
1818
1818
1818
1818
1818
181E
180E
ENDCHAR
STARTCHAR rho
ENCODING -1
SWIDTH 600 0
DWIDTH 16 0
BBX 12 20 2 -6
BITMAP
0F80
3FC0
70E0
6060
E070
C030
C030
C030
C070
C070
C060
E0E0
FFC0
DF80
C000
C000
C000
C000
C000
C000
ENDCHAR
STARTCHAR sigma1
ENCODING -1
SWIDTH 600 0
DWIDTH 16 0
BBX 12 19 2 -5
BITMAP
0FE0
3FF0
7820
7000
E000
E000
C000
C000
C000
E000
6000
7800
3F80
0FE0
00F0
0030
0030
0060
0060
ENDCHAR
STARTCHAR sigma
ENCODING -1
SWIDTH 600 0
DWIDTH 16 0
BBX 13 14 2 0
BITMAP
0FF8
3FF8
70C0
6060
E060
E070
C030
C030
C030
E070
6060
70E0
3FC0
1F80
ENDCHAR
STARTCHAR tau
ENCODING -1
SWIDTH 600 0
DWIDTH 16 0
BBX 12 14 2 0
BITMAP
7FF0
FFF0
0C00
0C00
0C00
0C00
0C00
0C00
0C00
0C00
0C00
0E00
07E0
03E0
ENDCHAR
STARTCHAR upsilon
ENCODING -1
SWIDTH 600 0
DWIDTH 16 0
BBX 12 14 2 0
BITMAP
C060
C060
C070
C030
C030
C030
C030
C030
C070
E070
E060
70E0
3FC0
1F80
ENDCHAR
STARTCHAR phi
ENCODING -1
SWIDTH 600 0
DWIDTH 16 0
BBX 14 20 1 -6
BITMAP
20E0
31F8
6318
631C
C30C
C30C
C30C
C30C
C30C
C31C
6318
7338
3FF0
0FC0
0300
0300
0300
0300
0300
0300
ENDCHAR
STARTCHAR chi
ENCODING -1
SWIDTH 600 0
DWIDTH 16 0
BBX 14 20 1 -6
BITMAP
701C
7818
1838
1C30
0C60
0EE0
06C0
07C0
0780
0380
0380
0780
0F80
0DC0
1CC0
18E0
3860
7070
603C
E03C
ENDCHAR
STARTCHAR psi
ENCODING -1
SWIDTH 600 0
DWIDTH 16 0
BBX 14 26 1 -6
BITMAP
0300
0300
0300
0300
0300
0300
C318
C318
C31C
C30C
C30C
C30C
C30C
C30C
C30C
E31C
E318
7338
3FF0
1FC0
0300
0300
0300
0300
0300
0300
ENDCHAR
STARTCHAR omega
ENCODING -1
SWIDTH 600 0
DWIDTH 16 0
BBX 14 14 1 0
BITMAP
6018
6018
6018
C00C
C00C
C30C
C30C
C30C
C30C
C30C
C30C
6798
7FF8
3CF0
ENDCHAR
STARTCHAR iotadieresis
ENCODING -1
SWIDTH 600 0
DWIDTH 16 0
BBX 9 19 4 0
BITMAP
C600
C600
C600
0000
0000
3000
3000
3000
3000
3000
3000
3000
3000
3000
3000
3000
3800
1F80
0F80
ENDCHAR
STARTCHAR upsilondieresis
ENCODING -1
SWIDTH 600 0
DWIDTH 16 0
BBX 12 19 2 0
BITMAP
18C0
18C0
18C0
0000
0000
C060
C060
C070
C030
C030
C030
C030
C030
C070
E070
E060
70E0
3FC0
1F80
ENDCHAR
STARTCHAR omicrontonos
ENCODING -1
SWIDTH 600 0
DWIDTH 16 0
BBX 14 20 1 0
BITMAP
01C0
01C0
0180
0180
0000
0000
0FC0
3FF0
7038
6018
E01C
C01C
C00C
C00C
E01C
E01C
6018
7038
3FF0
0FC0
ENDCHAR
STARTCHAR upsilontonos
ENCODING -1
SWIDTH 600 0
DWIDTH 16 0
BBX 12 20 2 0
BITMAP
0700
0700
0600
0600
0000
0000
C060
C060
C070
C030
C030
C030
C030
C030
C070
E070
E060
70E0
3FC0
1F80
ENDCHAR
STARTCHAR omegatonos
ENCODING -1
SWIDTH 600 0
DWIDTH 16 0
BBX 14 20 1 0
BITMAP
0380
0380
0300
0300
0000
0000
6018
6018
6018
C00C
C00C
C30C
C30C
C30C
C30C
C30C
C30C
6798
7FF8
3CF0
ENDCHAR
STARTCHAR uni0401
ENCODING -1
SWIDTH 600 0
DWIDTH 16 0
BBX 11 23 3 0
BITMAP
3180
3180
3180
0000
FFE0
FFE0
C000
C000
C000
C000
C000
C000
FFC0
FFC0
C000
C000
C000
C000
C000
C000
C000
FFE0
FFE0
ENDCHAR
STARTCHAR uni0402
ENCODING -1
SWIDTH 600 0
DWIDTH 16 0
BBX 15 19 0 0
BITMAP
FFE0
FFE0
0C00
0C00
0C00
0C00
0C00
0FF0
0FFC
0C1E
0C0E
0C06
0C06
0C06
0C06
0C0E
0C0E
0C7C
0C78
ENDCHAR
STARTCHAR uni0403
ENCODING -1
SWIDTH 600 0
DWIDTH 16 0
BBX 11 24 3 0
BITMAP
0380
0700
0600
0C00
0000
FFE0
FFE0
C000
C000
C000
C000
C000
C000
C000
C000
C000
C000
C000
C000
C000
C000
C000
C000
C000
ENDCHAR
STARTCHAR uni0404
ENCODING -1
SWIDTH 600 0
DWIDTH 16 0
BBX 13 19 2 0
BITMAP
07F0
1FF8
3C10
7800
7000
6000
E000
E000
FFC0
FFC0
E000
E000
E000
E000
7000
7000
3C10
1FF0
07E0
ENDCHAR
STARTCHAR uni0405
ENCODING -1
SWIDTH 600 0
DWIDTH 16 0
BBX 12 19 2 0
BITMAP
1FE0
7FF0
7060
E000
C000
C000
E000
7000
3E00
1F80
03E0
00E0
0070
0030
0030
0070
C0E0
FFC0
7F80
ENDCHAR
STARTCHAR uni0406
ENCODING -1
SWIDTH 600 0
DWIDTH 16 0
BBX 10 19 3 0
BITMAP
FFC0
FFC0
0C00
0C00
0C00
0C00
0C00
0C00
0C00
0C00
0C00
0C00
0C00
0C00
0C00
0C00
0C00
FFC0
FFC0
ENDCHAR
STARTCHAR uni0407
ENCODING -1
SWIDTH 600 0
DWIDTH 16 0
BBX 10 23 3 0
BITMAP
3180
3180
3180
0000
FFC0
FFC0
0C00
0C00
0C00
0C00
0C00
0C00
0C00
0C00
0C00
0C00
0C00
0C00
0C00
0C00
0C00
FFC0
FFC0
ENDCHAR
STARTCHAR uni0408
ENCODING -1
SWIDTH 600 0
DWIDTH 16 0
BBX 11 19 2 0
BITMAP
0060
0060
0060
0060
0060
0060
0060
0060
0060
0060
0060
0060
0060
0060
00E0
00E0
83C0
FF80
7E00
ENDCHAR
STARTCHAR uni0409
ENCODING -1
SWIDTH 600 0
DWIDTH 16 0
BBX 16 19 0 0
BITMAP
1F80
1F80
1980
1980
1980
1980
1980
1980
19F8
19FE
198E
1987
3183
3183
3183
3187
318E
F1FE
E1F8
ENDCHAR
STARTCHAR uni040A
ENCODING -1
SWIDTH 600 0
DWIDTH 16 0
BBX 15 19 1 0
BITMAP
C300
C300
C300
C300
C300
C300
C300
C300
FFF0
FFFC
C31C
C30E
C306
C306
C306
C30E
C31C
C3FC
C3F0
ENDCHAR
STARTCHAR uni040B
ENCODING -1
SWIDTH 600 0
DWIDTH 16 0
BBX 15 19 0 0
BITMAP
FFE0
FFE0
0C00
0C00
0C00
0C00
0C00
0FF0
0FFC
0C1C
0C0E
0C06
0C06
0C06
0C06
0C06
0C06
0C06
0C06
ENDCHAR
STARTCHAR uni040C
ENCODING -1
SWIDTH 600 0
DWIDTH 16 0
BBX 12 24 3 0
BITMAP
01C0
0380
0300
0600
0000
C070
C0E0
C0C0
C180
C380
C700
CE00
CC00
DC00
F800
DC00
CE00
C600
C700
C380
C1C0
C0C0
C0E0
C070
ENDCHAR
STARTCHAR uni040E
ENCODING -1
SWIDTH 600 0
DWIDTH 16 0
BBX 16 24 0 0
BITMAP
1818
1C38
0FF0
07E0
0000
E007
6006
700E
300C
380C
181C
1C18
0C38
0E30
0770
0760
0360
01C0
01C0
0180
0380
4700
7E00
7C00
ENDCHAR
STARTCHAR uni040F
ENCODING -1
SWIDTH 600 0
DWIDTH 16 0
BBX 12 24 2 -5
BITMAP
C030
C030
C030
C030
C030
C030
C030
C030
C030
C030
C030
C030
C030
C030
C030
C030
C030
FFF0
FFF0
0600
0600
0600
0600
0600
ENDCHAR
STARTCHAR uni0410
ENCODING -1
SWIDTH 600 0
DWIDTH 16 0
BBX 16 19 0 0
BITMAP
0180
03C0
03C0
03E0
0660
0660
0E70
0C30
0C30
1C38
1818
1FF8
3FFC
300C
300C
700E
6006
6006
E007
ENDCHAR
STARTCHAR uni0411
ENCODING -1
SWIDTH 600 0
DWIDTH 16 0
BBX 13 19 2 0
BITMAP
FFF0
FFF0
C000
C000
C000
C000
C000
C000
FFC0
FFE0
C070
C038
C038
C038
C038
C038
C070
FFE0
FFC0
ENDCHAR
STARTCHAR uni0412
ENCODING -1
SWIDTH 600 0
DWIDTH 16 0
BBX 13 19 2 0
BITMAP
FF80
FFE0
C0F0
C070
C070
C070
C070
C0E0
FFC0
FFC0
C070
C038
C038
C038
C038
C038
C070
FFE0
FFC0
ENDCHAR
STARTCHAR uni0413
ENCODING -1
SWIDTH 600 0
DWIDTH 16 0
BBX 11 19 3 0
BITMAP
FFE0
FFE0
C000
C000
C000
C000
C000
C000
C000
C000
C000
C000
C000
C000
C000
C000
C000
C000
C000
ENDCHAR
STARTCHAR uni0414
ENCODING -1
SWIDTH 600 0
DWIDTH 16 0
BBX 15 24 0 -5
BITMAP
07F8
07F8
0618
0618
0618
0E18
0E18
0E18
0C18
0C18
1C18
1C18
1818
3818
3818
3018
7018
FFFE
FFFE
C006
C006
C006
C006
C006
ENDCHAR
STARTCHAR uni0415
ENCODING -1
SWIDTH 600 0
DWIDTH 16 0
BBX 11 19 3 0
BITMAP
FFE0
FFE0
C000
C000
C000
C000
C000
C000
FFC0
FFC0
C000
C000
C000
C000
C000
C000
C000
FFE0
FFE0
ENDCHAR
STARTCHAR uni0416
ENCODING -1
SWIDTH 600 0
DWIDTH 16 0
BBX 16 19 0 0
BITMAP
C183
6186
6186
318C
318C
1998
1D98
0DB0
0FB0
07F0
0DB0
0DB8
1998
199C
318C
318E
6186
6187
C183
ENDCHAR
STARTCHAR uni0417
ENCODING -1
SWIDTH 600 0
DWIDTH 16 0
BBX 12 19 2 0
BITMAP
1F80
7FE0
60F0
0070
0070
0070
0060
01E0
3F80
3FC0
01E0
0070
0070
0070
0070
0070
C0E0
FFC0
7F00
ENDCHAR
STARTCHAR uni0418
ENCODING -1
SWIDTH 600 0
DWIDTH 16 0
BBX 13 19 2 0
BITMAP
C038
C078
C078
C0F8
C0D8
C1D8
C198
C398
C318
C718
C618
CE18
CC18
DC18
D818
F818
F018
E018
E018
ENDCHAR
STARTCHAR uni0419
ENCODING -1
SWIDTH 600 0
DWIDTH 16 0
BBX 13 24 2 0
BITMAP
3030
3870
1FE0
0FC0
0000
C038
C078
C078
C0F8
C0D8
C1D8
C198
C398
C318
C718
C618
CE18
CC18
DC18
D818
F818
F018
E018
E018
ENDCHAR
STARTCHAR uni041A
ENCODING -1
SWIDTH 600 0
DWIDTH 16 0
BBX 12 19 3 0
BITMAP
C070
C0E0
C0C0
C180
C380
C700
CE00
CC00
DC00
F800
DC00
CE00
C600
C700
C380
C1C0
C0C0
C0E0
C070
ENDCHAR
STARTCHAR uni041B
ENCODING -1
SWIDTH 600 0
DWIDTH 16 0
BBX 14 19 0 0
BITMAP
03FC
03FC
030C
070C
070C
070C
070C
070C
060C
060C
0E0C
0E0C
0E0C
0E0C
0C0C
1C0C
1C0C
F80C
F00C
ENDCHAR
STARTCHAR uni041C
ENCODING -1
SWIDTH 600 0
DWIDTH 16 0
BBX 14 19 1 0
BITMAP
F03C
F03C
F03C
F03C
F07C
D86C
D86C
D86C
D86C
CCCC
CCCC
CCCC
CCCC
CD8C
C78C
C78C
C78C
C70C
C30C
ENDCHAR
STARTCHAR uni041D
ENCODING -1
SWIDTH 600 0
DWIDTH 16 0
BBX 12 19 2 0
BITMAP
C030
C030
C030
C030
C030
C030
C030
C030
FFF0
FFF0
C030
C030
C030
C030
C030
C030
C030
C030
C030
ENDCHAR
STARTCHAR uni041E
ENCODING -1
SWIDTH 600 0
DWIDTH 16 0
BBX 14 19 1 0
BITMAP
0FC0
1FE0
3870
7038
6018
E01C
E01C
E01C
E01C
E01C
E01C
E01C
E01C
E01C
6018
7038
3870
1FE0
0FC0
ENDCHAR
STARTCHAR uni041F
ENCODING -1
SWIDTH 600 0
DWIDTH 16 0
BBX 12 19 2 0
BITMAP
FFF0
FFF0
C030
C030
C030
C030
C030
C030
C030
C030
C030
C030
C030
C030
C030
C030
C030
C030
C030
ENDCHAR
STARTCHAR uni0420
ENCODING -1
SWIDTH 600 0
DWIDTH 16 0
BBX 12 19 2 0
BITMAP
FF80
FFC0
C0E0
C070
C070
C070
C070
C070
C060
C0E0
FFC0
FF00
C000
C000
C000
C000
C000
C000
C000
ENDCHAR
STARTCHAR uni0421
ENCODING -1
SWIDTH 600 0
DWIDTH 16 0
BBX 13 19 2 0
BITMAP
07F0
1FF8
3C10
7800
7000
6000
E000
E000
E000
E000
E000
E000
E000
E000
7000
7000
3C10
1FF0
07E0
ENDCHAR
STARTCHAR uni0422
ENCODING -1
SWIDTH 600 0
DWIDTH 16 0
BBX 13 19 2 0
BITMAP
FFF8
FFF8
0600
0600
0600
0600
0600
0600
0600
0600
0600
0600
0600
0600
0600
0600
0600
0600
0600
ENDCHAR
STARTCHAR uni0423
ENCODING -1
SWIDTH 600 0
DWIDTH 16 0
BBX 16 19 0 0
BITMAP
E007
6006
700E
300C
380C
181C
1C18
0C38
0E30
0770
0760
0360
01C0
01C0
0180
0380
4700
7E00
7C00
ENDCHAR
STARTCHAR uni0424
ENCODING -1
SWIDTH 600 0
DWIDTH 16 0
BBX 15 19 0 0
BITMAP
0300
0300
1FE0
3FF8
731C
630C
E30E
C306
C306
C306
C30E
E30E
630C
733C
3FF8
1FE0
0300
0300
0300
ENDCHAR
STARTCHAR uni0425
ENCODING -1
SWIDTH 600 0
DWIDTH 16 0
BBX 14 19 1 0
BITMAP
E01C
6018
7038
3870
1860
1CE0
0CC0
0F80
0780
0300
0780
0FC0
0CC0
1CE0
1860
3070
7038
6038
E01C
ENDCHAR
STARTCHAR uni0426
ENCODING -1
SWIDTH 600 0
DWIDTH 16 0
BBX 14 24 2 -5
BITMAP
C030
C030
C030
C030
C030
C030
C030
C030
C030
C030
C030
C030
C030
C030
C030
C030
C030
FFFC
FFFC
000C
000C
000C
000C
000C
ENDCHAR
STARTCHAR uni0427
ENCODING -1
SWIDTH 600 0
DWIDTH 16 0
BBX 12 19 2 0
BITMAP
C030
C030
C030
C030
C030
C030
C030
C030
E030
E0F0
7FF0
3F30
0030
0030
0030
0030
0030
0030
0030
ENDCHAR
STARTCHAR uni0428
ENCODING -1
SWIDTH 600 0
DWIDTH 16 0
BBX 12 19 2 0
BITMAP
C630
C630
C630
C630
C630
C630
C630
C630
C630
C630
C630
C630
C630
C630
C630
C630
C630
FFF0
FFF0
ENDCHAR
STARTCHAR uni0429
ENCODING -1
SWIDTH 600 0
DWIDTH 16 0
BBX 15 24 1 -5
BITMAP
C618
C618
C618
C618
C618
C618
C618
C618
C618
C618
C618
C618
C618
C618
C618
C618
C618
FFFE
FFFE
0006
0006
0006
0006
0006
ENDCHAR
STARTCHAR uni042A
ENCODING -1
SWIDTH 600 0
DWIDTH 16 0
BBX 15 19 0 0
BITMAP
FC00
FC00
0C00
0C00
0C00
0C00
0C00
0C00
0FE0
0FF8
0C3C
0C0E
0C0E
0C0E
0C0E
0C0E
0C1C
0FF8
0FE0
ENDCHAR
STARTCHAR uni042B
ENCODING -1
SWIDTH 600 0
DWIDTH 16 0
BBX 14 19 1 0
BITMAP
C00C
C00C
C00C
C00C
C00C
C00C
C00C
C00C
FE0C
FF0C
C38C
C1CC
C0CC
C0CC
C0CC
C1CC
C38C
FF0C
FC0C
ENDCHAR
STARTCHAR uni042C
ENCODING -1
SWIDTH 600 0
DWIDTH 16 0
BBX 12 19 2 0
BITMAP
C000
C000
C000
C000
C000
C000
C000
C000
FF80
FFC0
C0E0
C070
C070
C070
C070
C070
C0E0
FFC0
FF80
ENDCHAR
STARTCHAR uni042D
ENCODING -1
SWIDTH 600 0
DWIDTH 16 0
BBX 13 19 1 0
BITMAP
7F00
FFC0
C1E0
00F0
0070
0030
0038
0038
3FF8
3FF8
0038
0038
0038
0030
0070
0060
81E0
FFC0
7F00
ENDCHAR
STARTCHAR uni042E
ENCODING -1
SWIDTH 600 0
DWIDTH 16 0
BBX 14 19 1 0
BITMAP
C1E0
C3F0
C738
C618
CE1C
CC0C
CC0C
CC0C
FC0C
FC0C
CC0C
CC0C
CC0C
CC0C
CE1C
C618
C738
C3F0
C1E0
ENDCHAR
STARTCHAR uni042F
ENCODING -1
SWIDTH 600 0
DWIDTH 16 0
BBX 13 19 1 0
BITMAP
0FF8
3FF8
3818
7018
7018
7018
7018
7018
3818
1FF8
07F8
0E18
0C18
1C18
3818
3818
7018
6018
E018
ENDCHAR
STARTCHAR uni0430
ENCODING -1
SWIDTH 600 0
DWIDTH 16 0
BBX 11 14 2 0
BITMAP
1F80
7FC0
20E0
00E0
0060
0060
1FE0
7FE0
E060
C060
C0E0
E1E0
7F60
3E60
ENDCHAR
STARTCHAR uni0431
ENCODING -1
SWIDTH 600 0
DWIDTH 16 0
BBX 12 20 2 0
BITMAP
0070
0FF0
1F80
3800
7000
6000
E000
E780
DFE0
F8E0
E070
C070
C030
C030
E030
6070
6060
70E0
3FC0
0F80
ENDCHAR
STARTCHAR uni0432
ENCODING -1
SWIDTH 600 0
DWIDTH 16 0
BBX 12 14 2 0
BITMAP
FFC0
FFE0
C070
C030
C030
C060
FFC0
FFE0
C070
C030
C030
C070
FFE0
FFC0
ENDCHAR
STARTCHAR uni0433
ENCODING -1
SWIDTH 600 0
DWIDTH 16 0
BBX 10 14 4 0
BITMAP
FFC0
FFC0
C000
C000
C000
C000
C000
C000
C000
C000
C000
C000
C000
C000
ENDCHAR
STARTCHAR uni0434
ENCODING -1
SWIDTH 600 0
DWIDTH 16 0
BBX 15 19 0 -5
BITMAP
07F8
07F8
0618
0618
0618
0C18
0C18
0C18
1818
1818
3018
7018
FFFE
FFFE
C006
C006
C006
C006
C006
ENDCHAR
STARTCHAR uni0435
ENCODING -1
SWIDTH 600 0
DWIDTH 16 0
BBX 12 14 2 0
BITMAP
0F80
3FC0
70E0
6060
E070
C030
FFF0
FFF0
C000
E000
6000
7020
3FE0
0FC0
ENDCHAR
STARTCHAR uni0436
ENCODING -1
SWIDTH 600 0
DWIDTH 16 0
BBX 16 14 0 0
BITMAP
C183
6186
318C
398C
1998
0DB0
07F0
0FB0
0DB8
1998
398C
318E
6186
E187
ENDCHAR
STARTCHAR uni0437
ENCODING -1
SWIDTH 600 0
DWIDTH 16 0
BBX 10 14 3 0
BITMAP
7F00
FF80
41C0
00C0
00C0
0180
3F00
3F80
01C0
00C0
00C0
81C0
FF80
7E00
ENDCHAR
STARTCHAR uni0438
ENCODING -1
SWIDTH 600 0
DWIDTH 16 0
BBX 12 14 2 0
BITMAP
C070
C0F0
C1F0
C1B0
C3B0
C330
C630
C630
CC30
DC30
D830
F830
F030
E030
ENDCHAR
STARTCHAR uni0439
ENCODING -1
SWIDTH 600 0
DWIDTH 16 0
BBX 12 20 2 0
BITMAP
3030
3870
1FE0
0FC0
0000
0000
C070
C0F0
C1F0
C1B0
C3B0
C330
C630
C630
CC30
DC30
D830
F830
F030
E030
ENDCHAR
STARTCHAR uni043A
ENCODING -1
SWIDTH 600 0
DWIDTH 16 0
BBX 12 14 3 0
BITMAP
C060
C0C0
C180
C300
C600
CC00
F800
DC00
CE00
C700
C380
C1C0
C0E0
C070
ENDCHAR
STARTCHAR uni043B
ENCODING -1
SWIDTH 600 0
DWIDTH 16 0
BBX 14 14 0 0
BITMAP
07FC
07FC
060C
060C
060C
0E0C
0C0C
0C0C
0C0C
1C0C
180C
380C
F00C
E00C
ENDCHAR
STARTCHAR uni043C
ENCODING -1
SWIDTH 600 0
DWIDTH 16 0
BBX 14 14 1 0
BITMAP
E01C
E01C
F03C
F03C
D02C
D86C
D86C
CCCC
CCCC
CCCC
C78C
C78C
C30C
C30C
ENDCHAR
STARTCHAR uni043D
ENCODING -1
SWIDTH 600 0
DWIDTH 16 0
BBX 12 14 2 0
BITMAP
C030
C030
C030
C030
C030
C030
FFF0
FFF0
C030
C030
C030
C030
C030
C030
ENDCHAR
STARTCHAR uni043E
ENCODING -1
SWIDTH 600 0
DWIDTH 16 0
BBX 14 14 1 0
BITMAP
0FC0
3FF0
7038
6018
E01C
C01C
C00C
C00C
E01C
E01C
6018
7038
3FF0
0FC0
ENDCHAR
STARTCHAR uni043F
ENCODING -1
SWIDTH 600 0
DWIDTH 16 0
BBX 12 14 2 0
BITMAP
FFF0
FFF0
C030
C030
C030
C030
C030
C030
C030
C030
C030
C030
C030
C030
ENDCHAR
STARTCHAR uni0440
ENCODING -1
SWIDTH 600 0
DWIDTH 16 0
BBX 12 20 2 -6
BITMAP
CF80
DFC0
F0E0
E060
E070
C070
C030
C030
C070
E070
E060
F0E0
DFC0
CF80
C000
C000
C000
C000
C000
C000
ENDCHAR
STARTCHAR uni0441
ENCODING -1
SWIDTH 600 0
DWIDTH 16 0
BBX 12 14 2 0
BITMAP
0FE0
3FF0
7820
6000
E000
E000
C000
C000
E000
E000
6000
7810
3FF0
0FE0
ENDCHAR
STARTCHAR uni0442
ENCODING -1
SWIDTH 600 0
DWIDTH 16 0
BBX 12 14 2 0
BITMAP
FFF0
FFF0
0600
0600
0600
0600
0600
0600
0600
0600
0600
0600
0600
0600
ENDCHAR
STARTCHAR uni0443
ENCODING -1
SWIDTH 600 0
DWIDTH 16 0
BBX 14 20 1 -6
BITMAP
E01C
6018
6018
7038
3030
3870
1860
1C60
0CE0
0CC0
0FC0
0780
0780
0380
0300
0700
0600
0E00
FC00
F800
ENDCHAR
STARTCHAR uni0444
ENCODING -1
SWIDTH 600 0
DWIDTH 16 0
BBX 14 26 1 -6
BITMAP
0300
0300
0300
0300
0300
0300
0FC0
3FF0
7338
6318
C30C
C30C
C30C
C30C
C30C
C30C
6318
7338
3FF0
0FC0
0300
0300
0300
0300
0300
0300
ENDCHAR
STARTCHAR uni0445
ENCODING -1
SWIDTH 600 0
DWIDTH 16 0
BBX 14 14 1 0
BITMAP
6018
7038
3870
1CE0
0CC0
0780
0780
0780
0FC0
0CC0
1860
3870
7038
E01C
ENDCHAR
STARTCHAR uni0446
ENCODING -1
SWIDTH 600 0
DWIDTH 16 0
BBX 13 19 2 -5
BITMAP
C060
C060
C060
C060
C060
C060
C060
C060
C060
C060
C060
C060
FFF8
FFF8
0018
0018
0018
0018
0018
ENDCHAR
STARTCHAR uni0447
ENCODING -1
SWIDTH 600 0
DWIDTH 16 0
BBX 12 14 2 0
BITMAP
C030
C030
C030
C030
C030
C030
E0F0
7FF0
3E30
0030
0030
0030
0030
0030
ENDCHAR
STARTCHAR uni0448
ENCODING -1
SWIDTH 600 0
DWIDTH 16 0
BBX 12 14 2 0
BITMAP
C630
C630
C630
C630
C630
C630
C630
C630
C630
C630
C630
C630
FFF0
FFF0
ENDCHAR
STARTCHAR uni0449
ENCODING -1
SWIDTH 600 0
DWIDTH 16 0
BBX 15 19 1 -5
BITMAP
C318
C318
C318
C318
C318
C318
C318
C318
C318
C318
C318
C318
FFFE
FFFE
0006
0006
0006
0006
0006
ENDCHAR
STARTCHAR uni044A
ENCODING -1
SWIDTH 600 0
DWIDTH 16 0
BBX 14 14 1 0
BITMAP
FE00
FE00
0600
0600
0600
0600
07F0
07F8
061C
060C
060C
061C
07F8
07F0
ENDCHAR
STARTCHAR uni044B
ENCODING -1
SWIDTH 600 0
DWIDTH 16 0
BBX 14 14 1 0
BITMAP
C00C
C00C
C00C
C00C
C00C
C00C
FF0C
FF8C
C1CC
C0CC
C0CC
C1CC
FF8C
FF0C
ENDCHAR
STARTCHAR uni044C
ENCODING -1
SWIDTH 600 0
DWIDTH 16 0
BBX 11 14 3 0
BITMAP
C000
C000
C000
C000
C000
C000
FF80
FFC0
C0E0
C060
C060
C0E0
FFC0
FF80
ENDCHAR
STARTCHAR uni044D
ENCODING -1
SWIDTH 600 0
DWIDTH 16 0
BBX 12 14 2 0
BITMAP
7F00
FFC0
41E0
0060
0070
0030
3FF0
3FF0
0030
0070
0060
81E0
FFC0
7F00
ENDCHAR
STARTCHAR uni044E
ENCODING -1
SWIDTH 600 0
DWIDTH 16 0
BBX 13 14 2 0
BITMAP
C3C0
C7F0
C630
CC18
CC18
CC18
FC18
FC18
CC18
CC18
CC18
C630
C7F0
C3E0
ENDCHAR
STARTCHAR uni044F
ENCODING -1
SWIDTH 600 0
DWIDTH 16 0
BBX 13 14 1 0
BITMAP
0FF8
3FF8
7018
6018
6018
7018
7018
3FF8
0FF8
0C18
1818
3018
7018
E018
ENDCHAR
STARTCHAR uni0451
ENCODING -1
SWIDTH 600 0
DWIDTH 16 0
BBX 12 19 2 0
BITMAP
18C0
18C0
18C0
0000
0000
0F80
3FC0
70E0
6060
E070
C030
FFF0
FFF0
C000
E000
6000
7020
3FE0
0FC0
ENDCHAR
STARTCHAR uni0452
ENCODING -1
SWIDTH 600 0
DWIDTH 16 0
BBX 14 26 0 -6
BITMAP
3000
3000
FF80
FF80
3000
3000
33F0
37F8
3C1C
381C
380C
300C
300C
300C
300C
300C
300C
300C
300C
300C
000C
000C
000C
001C
00F8
00F0
ENDCHAR
STARTCHAR uni0453
ENCODING -1
SWIDTH 600 0
DWIDTH 16 0
BBX 10 20 4 0
BITMAP
0700
0E00
0C00
1800
0000
0000
FFC0
FFC0
C000
C000
C000
C000
C000
C000
C000
C000
C000
C000
C000
C000
ENDCHAR
STARTCHAR uni0454
ENCODING -1
SWIDTH 600 0
DWIDTH 16 0
BBX 12 14 2 0
BITMAP
0FE0
3FF0
7800
6000
E000
E000
FFC0
FFC0
C000
E000
6000
7810
3FF0
0FE0
ENDCHAR
STARTCHAR uni0455
ENCODING -1
SWIDTH 600 0
DWIDTH 16 0
BBX 10 14 3 0
BITMAP
3F80
7FC0
E080
C000
E000
7800
3E00
0F80
03C0
00C0
00C0
81C0
FF80
7F00
ENDCHAR
STARTCHAR uni0456
ENCODING -1
SWIDTH 600 0
DWIDTH 16 0
BBX 11 20 3 0
BITMAP
0C00
0E00
0C00
0000
0000
0000
7C00
7C00
0C00
0C00
0C00
0C00
0C00
0C00
0C00
0C00
0C00
0C00
FFE0
FFE0
ENDCHAR
STARTCHAR uni0457
ENCODING -1
SWIDTH 600 0
DWIDTH 16 0
BBX 11 19 3 0
BITMAP
3180
3180
3180
0000
0000
7C00
7C00
0C00
0C00
0C00
0C00
0C00
0C00
0C00
0C00
0C00
0C00
FFE0
FFE0
ENDCHAR
STARTCHAR uni0458
ENCODING -1
SWIDTH 600 0
DWIDTH 16 0
BBX 9 26 2 -6
BITMAP
0380
0380
0180
0000
0000
0000
7F80
7F80
0180
0180
0180
0180
0180
0180
0180
0180
0180
0180
0180
0180
0180
0180
0380
0380
FF00
FC00
ENDCHAR
STARTCHAR uni0459
ENCODING -1
SWIDTH 600 0
DWIDTH 16 0
BBX 15 14 0 0
BITMAP
1F80
1F80
1980
1980
1980
1980
39F8
31FC
318E
3186
3186
318E
F1FC
E1F8
ENDCHAR
STARTCHAR uni045A
ENCODING -1
SWIDTH 600 0
DWIDTH 16 0
BBX 15 14 1 0
BITMAP
C300
C300
C300
C300
C300
C300
FFF8
FFFC
C30E
C306
C306
C30E
C3FC
C3F0
ENDCHAR
STARTCHAR uni045B
ENCODING -1
SWIDTH 600 0
DWIDTH 16 0
BBX 14 20 0 0
BITMAP
3000
3000
FFC0
FFC0
3000
3000
33F0
37F8
3C1C
381C
380C
300C
300C
300C
300C
300C
300C
300C
300C
300C
ENDCHAR
STARTCHAR uni045C
ENCODING -1
SWIDTH 600 0
DWIDTH 16 0
BBX 12 20 3 0
BITMAP
0380
0700
0600
0C00
0000
0000
C060
C0C0
C180
C300
C600
CC00
D800
FC00
EE00
C700
C380
C1C0
C0E0
C070
ENDCHAR
STARTCHAR uni045E
ENCODING -1
SWIDTH 600 0
DWIDTH 16 0
BBX 14 26 1 -6
BITMAP
3030
3870
1FE0
0FC0
0000
0000
E01C
6018
6018
7038
3030
3870
1860
1C60
0CE0
0CC0
0FC0
0780
0780
0380
0300
0700
0600
0E00
FC00
F800
ENDCHAR
STARTCHAR uni045F
ENCODING -1
SWIDTH 600 0
DWIDTH 16 0
BBX 12 19 2 -5
BITMAP
C030
C030
C030
C030
C030
C030
C030
C030
C030
C030
C030
C030
FFF0
FFF0
0600
0600
0600
0600
0600
ENDCHAR
STARTCHAR uni0490
ENCODING -1
SWIDTH 600 0
DWIDTH 16 0
BBX 11 23 3 0
BITMAP
0060
0060
0060
0060
FFE0
FFE0
C000
C000
C000
C000
C000
C000
C000
C000
C000
C000
C000
C000
C000
C000
C000
C000
C000
ENDCHAR
STARTCHAR uni0491
ENCODING -1
SWIDTH 600 0
DWIDTH 16 0
BBX 9 18 4 0
BITMAP
0180
0180
0180
0180
FF80
FF80
C000
C000
C000
C000
C000
C000
C000
C000
C000
C000
C000
C000
ENDCHAR
STARTCHAR Wgrave
ENCODING -1
SWIDTH 600 0
DWIDTH 16 0
BBX 16 24 0 0
BITMAP
0700
0380
0180
00C0
0000
C003
C003
C003
E007
6006
6006
6186
63C6
63C6
63C6
6246
3666
366C
366C
3C3C
3C3C
3C3C
381C
181C
ENDCHAR
STARTCHAR wgrave
ENCODING -1
SWIDTH 600 0
DWIDTH 16 0
BBX 16 20 0 0
BITMAP
0E00
0700
0300
0180
0000
0000
C183
C3C3
43C3
63C6
6246
6666
6666
2666
366C
342C
3C3C
3C3C
1C3C
1818
ENDCHAR
STARTCHAR Wacute
ENCODING -1
SWIDTH 600 0
DWIDTH 16 0
BBX 16 24 0 0
BITMAP
0070
00E0
00C0
0180
0000
C003
C003
C003
E007
6006
6006
6186
63C6
63C6
63C6
6246
3666
366C
366C
3C3C
3C3C
3C3C
381C
181C
ENDCHAR
STARTCHAR wacute
ENCODING -1
SWIDTH 600 0
DWIDTH 16 0
BBX 16 20 0 0
BITMAP
0070
00E0
00C0
0180
0000
0000
C183
C3C3
43C3
63C6
6246
6666
6666
2666
366C
342C
3C3C
3C3C
1C3C
1818
ENDCHAR
STARTCHAR Wdieresis
ENCODING -1
SWIDTH 600 0
DWIDTH 16 0
BBX 16 23 0 0
BITMAP
0630
0630
0630
0000
C003
C003
C003
E007
6006
6006
6186
63C6
63C6
63C6
6246
3666
366C
366C
3C3C
3C3C
3C3C
381C
181C
ENDCHAR
STARTCHAR wdieresis
ENCODING -1
SWIDTH 600 0
DWIDTH 16 0
BBX 16 19 0 0
BITMAP
0630
0630
0630
0000
0000
C183
C3C3
43C3
63C6
6246
6666
6666
2666
366C
342C
3C3C
3C3C
1C3C
1818
ENDCHAR
STARTCHAR Ygrave
ENCODING -1
SWIDTH 600 0
DWIDTH 16 0
BBX 15 24 1 0
BITMAP
0E00
0700
0300
0180
0000
E00E
600C
701C
3018
3838
1830
1C60
0CE0
0CC0
07C0
0780
0380
0300
0300
0300
0300
0300
0300
0300
ENDCHAR
STARTCHAR ygrave
ENCODING -1
SWIDTH 600 0
DWIDTH 16 0
BBX 14 26 1 -6
BITMAP
1C00
0E00
0600
0300
0000
0000
E01C
6018
6018
7038
3030
3870
1860
1C60
0CE0
0CC0
0FC0
0780
0780
0380
0300
0700
0600
0E00
FC00
F800
ENDCHAR
STARTCHAR endash
ENCODING -1
SWIDTH 600 0
DWIDTH 16 0
BBX 12 2 2 6
BITMAP
FFF0
FFF0
ENDCHAR
STARTCHAR emdash
ENCODING -1
SWIDTH 600 0
DWIDTH 16 0
BBX 16 2 0 6
BITMAP
FFFF
FFFF
ENDCHAR
STARTCHAR uni2015
ENCODING -1
SWIDTH 600 0
DWIDTH 16 0
BBX 16 2 0 6
BITMAP
FFFF
FFFF
ENDCHAR
STARTCHAR underscoredbl
ENCODING -1
SWIDTH 600 0
DWIDTH 16 0
BBX 16 5 0 -6
BITMAP
FFFF
FFFF
0000
FFFF
FFFF
ENDCHAR
STARTCHAR quoteleft
ENCODING -1
SWIDTH 600 0
DWIDTH 16 0
BBX 4 6 6 13
BITMAP
30
70
70
60
E0
E0
ENDCHAR
STARTCHAR quoteright
ENCODING -1
SWIDTH 600 0
DWIDTH 16 0
BBX 4 6 6 13
BITMAP
70
70
60
E0
E0
C0
ENDCHAR
STARTCHAR quotesinglbase
ENCODING -1
SWIDTH 600 0
DWIDTH 16 0
BBX 4 7 6 -4
BITMAP
70
70
60
60
E0
C0
C0
ENDCHAR
STARTCHAR quotereversed
ENCODING -1
SWIDTH 600 0
DWIDTH 16 0
BBX 4 6 6 13
BITMAP
E0
E0
60
70
70
30
ENDCHAR
STARTCHAR quotedblleft
ENCODING -1
SWIDTH 600 0
DWIDTH 16 0
BBX 9 6 3 13
BITMAP
3180
7380
7380
6300
E700
E700
ENDCHAR
STARTCHAR quotedblright
ENCODING -1
SWIDTH 600 0
DWIDTH 16 0
BBX 9 6 3 13
BITMAP
7380
7380
6300
E700
E700
C600
ENDCHAR
STARTCHAR quotedblbase
ENCODING -1
SWIDTH 600 0
DWIDTH 16 0
BBX 9 7 3 -4
BITMAP
7380
7380
6300
6300
E700
C600
C600
ENDCHAR
STARTCHAR dagger
ENCODING -1
SWIDTH 600 0
DWIDTH 16 0
BBX 9 20 3 0
BITMAP
1C00
1C00
1800
1800
0800
FF80
FF80
0800
0800
0800
1800
1800
1800
1800
1800
1C00
1C00
1C00
1C00
1C00
ENDCHAR
STARTCHAR daggerdbl
ENCODING -1
SWIDTH 600 0
DWIDTH 16 0
BBX 10 20 3 0
BITMAP
0E00
0E00
0C00
0400
FFC0
FFC0
0400
0C00
0C00
0E00
0E00
0C00
0C00
0400
FFC0
FFC0
0400
0C00
0E00
0E00
ENDCHAR
STARTCHAR bullet
ENCODING -1
SWIDTH 600 0
DWIDTH 16 0
BBX 6 7 5 6
BITMAP
78
FC
FC
FC
FC
FC
78
ENDCHAR
STARTCHAR ellipsis
ENCODING -1
SWIDTH 600 0
DWIDTH 16 0
BBX 13 3 1 0
BITMAP
E738
E738
E738
ENDCHAR
STARTCHAR perthousand
ENCODING -1
SWIDTH 600 0
DWIDTH 16 0
BBX 15 19 0 0
BITMAP
7800
F800
CC00
CC00
CC00
CC00
FC00
7980
0700
1C00
7000
DE3C
3E7C
3366
3366
3366
3366
3F7E
1E3C
ENDCHAR
STARTCHAR minute
ENCODING -1
SWIDTH 600 0
DWIDTH 16 0
BBX 3 7 6 12
BITMAP
E0
E0
E0
E0
E0
E0
E0
ENDCHAR
STARTCHAR second
ENCODING -1
SWIDTH 600 0
DWIDTH 16 0
BBX 8 7 4 12
BITMAP
E7
E7
E7
E7
E7
E7
E7
ENDCHAR
STARTCHAR guilsinglleft
ENCODING -1
SWIDTH 600 0
DWIDTH 16 0
BBX 5 11 6 1
BITMAP
10
18
30
70
60
C0
60
70
30
18
10
ENDCHAR
STARTCHAR guilsinglright
ENCODING -1
SWIDTH 600 0
DWIDTH 16 0
BBX 5 11 6 1
BITMAP
40
C0
60
70
30
18
30
70
60
C0
40
ENDCHAR
STARTCHAR exclamdbl
ENCODING -1
SWIDTH 600 0
DWIDTH 16 0
BBX 9 19 3 0
BITMAP
E380
E380
E380
E380
E380
E380
6180
6180
6180
6180
6180
4100
4100
0000
0000
0000
E380
E380
E380
ENDCHAR
STARTCHAR fraction
ENCODING -1
SWIDTH 600 0
DWIDTH 16 0
BBX 12 19 2 0
BITMAP
0030
0060
0060
00C0
00C0
0180
0180
0300
0300
0600
0C00
0C00
1800
1800
3000
3000
6000
6000
C000
ENDCHAR
STARTCHAR uni207F
ENCODING -1
SWIDTH 600 0
DWIDTH 16 0
BBX 8 9 4 10
BITMAP
DE
F7
C3
C3
C3
C3
C3
C3
C3
ENDCHAR
STARTCHAR franc
ENCODING -1
SWIDTH 600 0
DWIDTH 16 0
BBX 12 19 2 0
BITMAP
3FF0
3FF0
3000
3000
3000
3000
3000
3000
3000
3FE0
3FE0
3000
3000
3000
FF00
FF00
3000
3000
3000
ENDCHAR
STARTCHAR lira
ENCODING -1
SWIDTH 600 0
DWIDTH 16 0
BBX 12 19 2 0
BITMAP
07C0
1FE0
1820
3800
3000
3000
3000
3000
FF80
FF80
3000
FF80
FF80
3000
3000
3000
6000
FFF0
FFF0
ENDCHAR
STARTCHAR peseta
ENCODING -1
SWIDTH 600 0
DWIDTH 16 0
BBX 14 19 1 0
BITMAP
F800
FE00
C700
C300
C300
C300
C300
C320
C720
C660
FEFC
F8FC
C060
C060
C060
C060
C060
C07C
C03C
ENDCHAR
STARTCHAR Euro
ENCODING -1
SWIDTH 600 0
DWIDTH 16 0
BBX 13 19 1 0
BITMAP
01F0
07F8
0F18
1C00
1800
3800
3800
FFC0
FFC0
3000
FF80
FF80
3800
1800
1800
1C00
0E08
07F8
03F0
ENDCHAR
STARTCHAR uni2105
ENCODING -1
SWIDTH 600 0
DWIDTH 16 0
BBX 16 19 0 0
BITMAP
3E0C
7E18
C018
C030
C030
C060
C060
7EC0
3EC0
0180
031C
033E
0663
0663
0C63
0C63
1863
183E
301C
ENDCHAR
STARTCHAR uni2113
ENCODING -1
SWIDTH 600 0
DWIDTH 16 0
BBX 10 19 3 0
BITMAP
0F00
1F00
3180
3180
3180
3180
3100
3300
3600
3C00
7000
F000
3000
3000
3000
30C0
38C0
1F80
0F00
ENDCHAR
STARTCHAR uni2116
ENCODING -1
SWIDTH 600 0
DWIDTH 16 0
BBX 16 19 0 0
BITMAP
C300
E300
E300
E300
E300
F300
F31C
D33E
DB63
DB63
DB63
CB63
CF63
CF63
C73E
C71C
C700
C73E
C33E
ENDCHAR
STARTCHAR trademark
ENCODING -1
SWIDTH 600 0
DWIDTH 16 0
BBX 15 9 0 10
BITMAP
FDC6
31CE
31CE
31CE
31EE
31F6
31B6
31B6
31B6
ENDCHAR
STARTCHAR Omega
ENCODING -1
SWIDTH 600 0
DWIDTH 16 0
BBX 14 19 1 0
BITMAP
0FC0
1FE0
3870
7038
6018
E01C
E01C
E01C
E01C
E01C
E01C
E01C
6018
6018
7038
3030
1860
FCFC
FCFC
ENDCHAR
STARTCHAR estimated
ENCODING -1
SWIDTH 600 0
DWIDTH 16 0
BBX 14 14 1 0
BITMAP
0FC0
3870
6018
6018
E01C
E01C
FFFC
E000
E000
E000
6008
6010
3860
0FC0
ENDCHAR
STARTCHAR oneeighth
ENCODING -1
SWIDTH 600 0
DWIDTH 16 0
BBX 15 19 0 0
BITMAP
3818
7830
D830
1860
1860
18C0
18C0
1980
1980
1B7C
06EE
06C6
0CCE
0C78
187C
18C6
30C6
30EE
607C
ENDCHAR
STARTCHAR threeeighths
ENCODING -1
SWIDTH 600 0
DWIDTH 16 0
BBX 16 19 0 0
BITMAP
780C
FC18
0C18
0C30
3030
1C60
0C60
0CC0
FCC0
F9BE
0377
0363
0667
063C
0C3E
0C63
1863
1877
303E
ENDCHAR
STARTCHAR fiveeighths
ENCODING -1
SWIDTH 600 0
DWIDTH 16 0
BBX 16 19 0 0
BITMAP
F80C
C018
C018
C030
F830
1C60
0C60
0CC0
FCC0
F9BE
0377
0363
0667
063C
0C3E
0C63
1863
1877
303E
ENDCHAR
STARTCHAR seveneighths
ENCODING -1
SWIDTH 600 0
DWIDTH 16 0
BBX 15 19 1 0
BITMAP
FE30
0660
0460
0CC0
0CC0
1980
1980
3300
3300
667C
0CEE
0CC6
18CE
1878
307C
30C6
60C6
60EE
C07C
ENDCHAR
STARTCHAR partialdiff
ENCODING -1
SWIDTH 600 0
DWIDTH 16 0
BBX 12 19 2 0
BITMAP
0F80
1FC0
10E0
0070
0070
0030
0F30
3FB0
38F0
7070
6070
E060
E060
C0E0
C0C0
E1C0
E380
7F00
3E00
ENDCHAR
STARTCHAR Delta
ENCODING -1
SWIDTH 600 0
DWIDTH 16 0
BBX 14 19 1 0
BITMAP
0300
0780
0780
0780
0FC0
0CC0
0CC0
1CE0
1860
1860
3870
3030
3030
7038
6018
6018
E01C
FFFC
FFFC
ENDCHAR
STARTCHAR product
ENCODING -1
SWIDTH 600 0
DWIDTH 16 0
BBX 13 25 2 -6
BITMAP
FFF8
FFF8
C018
C018
C018
C018
C018
C018
C018
C018
C018
C018
C018
C018
C018
C018
C018
C018
C018
C018
C018
C018
C018
C018
C018
ENDCHAR
STARTCHAR summation
ENCODING -1
SWIDTH 600 0
DWIDTH 16 0
BBX 14 25 1 -6
BITMAP
FFF8
FFF8
7000
3000
3800
1C00
1C00
0E00
0700
0700
0380
01C0
0180
0380
0700
0700
0E00
0C00
1C00
3800
3800
7000
6000
FFFC
FFFC
ENDCHAR
STARTCHAR minus
ENCODING -1
SWIDTH 600 0
DWIDTH 16 0
BBX 12 2 2 8
BITMAP
FFF0
FFF0
ENDCHAR
STARTCHAR radical
ENCODING -1
SWIDTH 600 0
DWIDTH 16 0
BBX 16 22 0 0
BITMAP
0003
0002
0006
0006
0004
000C
000C
0018
0018
0018
F030
F030
3830
1860
1C60
0C60
0EC0
06C0
07C0
0780
0380
0300
ENDCHAR
STARTCHAR infinity
ENCODING -1
SWIDTH 600 0
DWIDTH 16 0
BBX 14 8 1 5
BITMAP
3870
7CF8
C78C
C30C
C30C
C78C
7CF8
3870
ENDCHAR
STARTCHAR integral
ENCODING -1
SWIDTH 600 0
DWIDTH 16 0
BBX 10 26 3 -6
BITMAP
03C0
07C0
0C00
0C00
0C00
0C00
0C00
0C00
0C00
0C00
0C00
0C00
0C00
0C00
0C00
0C00
0C00
0C00
0C00
0C00
0C00
0C00
0C00
1C00
F800
F000
ENDCHAR
STARTCHAR approxequal
ENCODING -1
SWIDTH 600 0
DWIDTH 16 0
BBX 12 8 2 5
BITMAP
7C10
FFF0
83E0
0000
0000
7C10
FFF0
83E0
ENDCHAR
STARTCHAR notequal
ENCODING -1
SWIDTH 600 0
DWIDTH 16 0
BBX 12 13 2 3
BITMAP
00C0
0180
0180
FFF0
FFF0
0700
0600
0E00
FFF0
FFF0
1800
1800
3000
ENDCHAR
STARTCHAR lessequal
ENCODING -1
SWIDTH 600 0
DWIDTH 16 0
BBX 12 16 2 0
BITMAP
0010
0070
01E0
0780
1E00
7800
E000
7800
1E00
0780
01E0
0070
0010
0000
FFF0
FFF0
ENDCHAR
STARTCHAR greaterequal
ENCODING -1
SWIDTH 600 0
DWIDTH 16 0
BBX 12 16 2 0
BITMAP
8000
E000
7800
1E00
0780
01E0
0070
01E0
0780
1E00
7800
E000
8000
0000
FFF0
FFF0
ENDCHAR
STARTCHAR lozenge
ENCODING -1
SWIDTH 600 0
DWIDTH 16 0
BBX 12 19 2 0
BITMAP
0600
0600
0F00
1F80
1980
39C0
30C0
6060
6060
C030
6060
6060
30C0
39C0
1980
1F80
0F00
0600
0600
ENDCHAR
STARTCHAR uniFB01
ENCODING -1
SWIDTH 600 0
DWIDTH 16 0
BBX 13 20 1 0
BITMAP
0F80
1F98
3818
3018
3000
3000
7F18
FF18
3018
3018
3018
3018
3018
3018
3018
3018
3018
3018
3018
3018
ENDCHAR
STARTCHAR uniFB02
ENCODING -1
SWIDTH 600 0
DWIDTH 16 0
BBX 13 20 1 0
BITMAP
0F98
1F98
3818
3018
3018
3018
7F18
FF18
3018
3018
3018
3018
3018
3018
3018
3018
3018
3018
3018
3018
ENDCHAR
STARTCHAR glyph566
ENCODING -1
SWIDTH 600 0
DWIDTH 16 0
BBX 10 4 3 16
BITMAP
C0C0
E1C0
7F80
3F00
ENDCHAR
STARTCHAR glyph567
ENCODING -1
SWIDTH 600 0
DWIDTH 16 0
BBX 9 20 2 -6
BITMAP
7F80
7F80
0180
0180
0180
0180
0180
0180
0180
0180
0180
0180
0180
0180
0180
0180
0380
0380
FF00
FC00
ENDCHAR
STARTCHAR glyph568
ENCODING -1
SWIDTH 600 0
DWIDTH 16 0
BBX 3 4 7 16
BITMAP
60
E0
C0
C0
ENDCHAR
STARTCHAR glyph569
ENCODING -1
SWIDTH 600 0
DWIDTH 16 0
BBX 3 4 7 -6
BITMAP
60
60
C0
C0
ENDCHAR
STARTCHAR glyph570
ENCODING -1
SWIDTH 600 0
DWIDTH 16 0
BBX 3 4 7 16
BITMAP
60
60
C0
C0
ENDCHAR
STARTCHAR glyph571
ENCODING -1
SWIDTH 600 0
DWIDTH 16 0
BBX 8 10 4 9
BITMAP
06
0E
1E
36
66
46
FF
06
06
06
ENDCHAR
STARTCHAR glyph572
ENCODING -1
SWIDTH 600 0
DWIDTH 16 0
BBX 6 10 4 9
BITMAP
F8
C0
C0
C0
F8
1C
0C
0C
FC
F8
ENDCHAR
STARTCHAR glyph573
ENCODING -1
SWIDTH 600 0
DWIDTH 16 0
BBX 7 10 5 9
BITMAP
FE
06
04
0C
0C
18
18
30
30
60
ENDCHAR
STARTCHAR glyph574
ENCODING -1
SWIDTH 600 0
DWIDTH 16 0
BBX 7 10 4 9
BITMAP
7C
EE
C6
CE
78
7C
C6
C6
EE
7C
ENDCHAR
STARTCHAR uni2000
ENCODING -1
SWIDTH 600 0
DWIDTH 16 0
BBX 1 1 0 0
BITMAP
00
ENDCHAR
STARTCHAR uni2001
ENCODING -1
SWIDTH 600 0
DWIDTH 16 0
BBX 1 1 0 0
BITMAP
00
ENDCHAR
STARTCHAR uni2002
ENCODING -1
SWIDTH 600 0
DWIDTH 16 0
BBX 1 1 0 0
BITMAP
00
ENDCHAR
STARTCHAR uni2003
ENCODING -1
SWIDTH 600 0
DWIDTH 16 0
BBX 1 1 0 0
BITMAP
00
ENDCHAR
STARTCHAR uni2004
ENCODING -1
SWIDTH 600 0
DWIDTH 16 0
BBX 1 1 0 0
BITMAP
00
ENDCHAR
STARTCHAR uni2005
ENCODING -1
SWIDTH 600 0
DWIDTH 16 0
BBX 1 1 0 0
BITMAP
00
ENDCHAR
STARTCHAR uni2006
ENCODING -1
SWIDTH 600 0
DWIDTH 16 0
BBX 1 1 0 0
BITMAP
00
ENDCHAR
STARTCHAR uni2007
ENCODING -1
SWIDTH 600 0
DWIDTH 16 0
BBX 1 1 0 0
BITMAP
00
ENDCHAR
STARTCHAR uni2008
ENCODING -1
SWIDTH 600 0
DWIDTH 16 0
BBX 1 1 0 0
BITMAP
00
ENDCHAR
STARTCHAR uni2009
ENCODING -1
SWIDTH 600 0
DWIDTH 16 0
BBX 1 1 0 0
BITMAP
00
ENDCHAR
STARTCHAR uni200A
ENCODING -1
SWIDTH 600 0
DWIDTH 16 0
BBX 1 1 0 0
BITMAP
00
ENDCHAR
STARTCHAR uni200B
ENCODING -1
SWIDTH 600 0
DWIDTH 16 0
BBX 1 1 0 0
BITMAP
00
ENDCHAR
STARTCHAR uniFEFF
ENCODING -1
SWIDTH 600 0
DWIDTH 16 0
BBX 1 1 0 0
BITMAP
00
ENDCHAR
STARTCHAR uniFFFC
ENCODING -1
SWIDTH 600 0
DWIDTH 16 0
BBX 14 24 1 -5
BITMAP
F7BC
8004
9C04
B604
2200
A204
B604
9C04
0000
0380
8244
8384
8244
0240
0380
8004
8074
8024
0020
0020
8024
80E4
8004
F7BC
ENDCHAR
STARTCHAR uniFFFD
ENCODING -1
SWIDTH 600 0
DWIDTH 16 0
BBX 15 23 0 -4
BITMAP
0100
0380
0380
07C0
0FE0
0820
1010
3B18
3F98
7F1C
FE3E
FC7E
FCFE
7CFC
3FF8
3FF8
1C70
0C60
0C60
07C0
0380
0380
0100
ENDCHAR
STARTCHAR uni01F0
ENCODING -1
SWIDTH 600 0
DWIDTH 16 0
BBX 10 26 2 -6
BITMAP
30C0
1D80
0F80
0700
0000
0000
7F80
7F80
0180
0180
0180
0180
0180
0180
0180
0180
0180
0180
0180
0180
0180
0180
0380
0380
FF00
FC00
ENDCHAR
STARTCHAR uni02BC
ENCODING -1
SWIDTH 600 0
DWIDTH 16 0
BBX 4 6 6 13
BITMAP
70
70
60
E0
E0
C0
ENDCHAR
STARTCHAR theta1
ENCODING -1
SWIDTH 600 0
DWIDTH 16 0
BBX 16 20 0 0
BITMAP
07C0
0FE0
1C70
1838
1818
1C18
0C1C
0F1C
03FF
F07F
F80C
380C
380C
301C
301C
3018
3038
3870
1FE0
0FC0
ENDCHAR
STARTCHAR Upsilon1
ENCODING -1
SWIDTH 600 0
DWIDTH 16 0
BBX 15 19 1 0
BITMAP
E00E
601E
7038
3030
3870
1860
1CE0
0CC0
0EC0
0780
0780
0380
0300
0300
0300
0300
0300
0300
0300
ENDCHAR
STARTCHAR omega1
ENCODING -1
SWIDTH 600 0
DWIDTH 16 0
BBX 16 14 0 0
BITMAP
7FFF
FFFF
300C
300C
6006
6006
6186
6186
6186
6186
6186
73CE
3FFC
1E78
ENDCHAR
STARTCHAR uni1E3E
ENCODING -1
SWIDTH 600 0
DWIDTH 16 0
BBX 14 24 1 0
BITMAP
00E0
01C0
0180
0300
0000
F03C
F03C
F03C
F03C
F07C
D86C
D86C
D86C
D86C
CCCC
CCCC
CCCC
CCCC
CD8C
C78C
C78C
C78C
C70C
C30C
ENDCHAR
STARTCHAR uni1E3F
ENCODING -1
SWIDTH 600 0
DWIDTH 16 0
BBX 14 20 1 0
BITMAP
00E0
01C0
0180
0300
0000
0000
CE78
DFF8
E79C
E38C
C30C
C30C
C30C
C30C
C30C
C30C
C30C
C30C
C30C
C30C
ENDCHAR
STARTCHAR uni1E00
ENCODING -1
SWIDTH 600 0
DWIDTH 16 0
BBX 16 26 0 -7
BITMAP
0180
03C0
03C0
03E0
0660
0660
0E70
0C30
0C30
1C38
1818
1FF8
3FFC
300C
300C
700E
6006
6006
E007
0000
0000
03C0
0660
0420
0660
03C0
ENDCHAR
STARTCHAR uni1E01
ENCODING -1
SWIDTH 600 0
DWIDTH 16 0
BBX 11 21 2 -7
BITMAP
1F80
7FC0
20E0
00E0
0060
0060
1FE0
7FE0
E060
C060
C0E0
E1E0
7F60
3E60
0000
0000
0F00
1980
1080
1980
0F00
ENDCHAR
STARTCHAR uni1F4D
ENCODING -1
SWIDTH 600 0
DWIDTH 16 0
BBX 21 19 -4 0
BITMAP
271F80
C63FC0
CC70E0
ECE070
00C030
01C038
01C038
01C038
01C038
01C038
01C038
01C038
01C038
01C038
00C030
00E070
0070E0
003FC0
001F80
ENDCHAR
STARTCHAR uni02F3
ENCODING -1
SWIDTH 600 0
DWIDTH 16 0
BBX 6 5 5 -7
BITMAP
78
CC
84
CC
78
ENDCHAR
STARTCHAR glyph601
ENCODING -1
SWIDTH 600 0
DWIDTH 16 0
BBX 8 4 4 14
BITMAP
27
C6
CC
EC
ENDCHAR
STARTCHAR uniFB03
ENCODING -1
SWIDTH 600 0
DWIDTH 16 0
BBX 13 20 1 0
BITMAP
1EF8
3FF0
7380
6300
6300
6300
FFF8
FFF8
6318
6318
6318
6318
6318
6318
6318
6318
6318
6318
6318
6318
ENDCHAR
STARTCHAR uniFB04
ENCODING -1
SWIDTH 600 0
DWIDTH 16 0
BBX 13 20 1 0
BITMAP
1EF8
3FF8
7398
6318
6318
6318
FFD8
FFD8
6318
6318
6318
6318
6318
6318
6318
6318
6318
6318
6318
6318
ENDCHAR
STARTCHAR Ohorn
ENCODING -1
SWIDTH 600 0
DWIDTH 16 0
BBX 16 20 1 0
BITMAP
0007
0FC7
1FE6
387C
7038
6018
E01C
E01C
E01C
E01C
E01C
E01C
E01C
E01C
E01C
6018
7038
3870
1FE0
0FC0
ENDCHAR
STARTCHAR ohorn
ENCODING -1
SWIDTH 600 0
DWIDTH 16 0
BBX 16 16 1 0
BITMAP
0007
0007
0FC6
3FFE
703C
6018
E01C
C01C
C00C
C00C
C01C
E01C
6018
7038
3FF0
0FC0
ENDCHAR
STARTCHAR Uhorn
ENCODING -1
SWIDTH 600 0
DWIDTH 16 0
BBX 14 20 2 0
BITMAP
001C
C0DC
C0D8
C0F0
C0E0
C0C0
C0C0
C0C0
C0C0
C0C0
C0C0
C0C0
C0C0
C0C0
C0C0
E1C0
E1C0
7380
7F80
1E00
ENDCHAR
STARTCHAR uhorn
ENCODING -1
SWIDTH 600 0
DWIDTH 16 0
BBX 15 16 2 0
BITMAP
000E
000E
C0CC
C0DC
C0F8
C0E0
C0C0
C0C0
C0C0
C0C0
C0C0
C1C0
C1C0
E3C0
7EC0
3CC0
ENDCHAR
STARTCHAR gravecomb
ENCODING -1
SWIDTH 600 0
DWIDTH 16 0
BBX 5 4 6 16
BITMAP
E0
70
30
18
ENDCHAR
STARTCHAR acutecomb
ENCODING -1
SWIDTH 600 0
DWIDTH 16 0
BBX 5 4 6 16
BITMAP
38
70
60
C0
ENDCHAR
STARTCHAR tildecomb
ENCODING -1
SWIDTH 600 0
DWIDTH 16 0
BBX 9 4 4 16
BITMAP
7080
7980
CF00
8700
ENDCHAR
STARTCHAR hookabovecomb
ENCODING -1
SWIDTH 600 0
DWIDTH 16 0
BBX 5 6 5 15
BITMAP
F0
38
18
18
70
60
ENDCHAR
STARTCHAR dotbelowcomb
ENCODING -1
SWIDTH 600 0
DWIDTH 16 0
BBX 3 3 6 -5
BITMAP
E0
E0
E0
ENDCHAR
STARTCHAR uni0400
ENCODING -1
SWIDTH 600 0
DWIDTH 16 0
BBX 11 24 3 0
BITMAP
3800
1C00
0C00
0600
0000
FFE0
FFE0
C000
C000
C000
C000
C000
C000
FFC0
FFC0
C000
C000
C000
C000
C000
C000
C000
FFE0
FFE0
ENDCHAR
STARTCHAR uni040D
ENCODING -1
SWIDTH 600 0
DWIDTH 16 0
BBX 13 24 2 0
BITMAP
1C00
0E00
0600
0300
0000
C038
C078
C078
C0F8
C0D8
C1D8
C198
C398
C318
C718
C618
CE18
CC18
DC18
D818
F818
F018
E018
E018
ENDCHAR
STARTCHAR uni0450
ENCODING -1
SWIDTH 600 0
DWIDTH 16 0
BBX 12 20 2 0
BITMAP
1C00
0E00
0600
0300
0000
0000
0F80
3FC0
70E0
6060
E070
C030
FFF0
FFF0
C000
E000
6000
7020
3FE0
0FC0
ENDCHAR
STARTCHAR uni045D
ENCODING -1
SWIDTH 600 0
DWIDTH 16 0
BBX 12 20 2 0
BITMAP
1C00
0E00
0600
0300
0000
0000
C070
C0F0
C1F0
C1B0
C3B0
C330
C630
C630
CC30
DC30
D830
F830
F030
E030
ENDCHAR
STARTCHAR uni0460
ENCODING -1
SWIDTH 600 0
DWIDTH 16 0
BBX 14 19 1 0
BITMAP
3CF0
7CF8
6018
6018
E01C
C00C
C00C
C00C
C00C
C00C
C30C
C30C
C30C
C30C
E31C
6318
7338
3FF8
1CF0
ENDCHAR
STARTCHAR uni0461
ENCODING -1
SWIDTH 600 0
DWIDTH 16 0
BBX 15 14 0 0
BITMAP
C306
C306
6106
6186
6186
2186
3184
318C
33CC
1BCC
1AD8
1AD8
0E70
0C60
ENDCHAR
STARTCHAR uni0462
ENCODING -1
SWIDTH 600 0
DWIDTH 16 0
BBX 15 20 0 0
BITMAP
0C00
0C00
0C00
FFF0
FFF0
0C00
0C00
0C00
0C00
0FE0
0FF8
0C3C
0C0E
0C0E
0C0E
0C0E
0C0E
0C1C
0FF8
0FF0
ENDCHAR
STARTCHAR uni0463
ENCODING -1
SWIDTH 600 0
DWIDTH 16 0
BBX 15 17 0 0
BITMAP
1800
1800
1800
FFC0
FFC0
1800
1800
1800
1800
1FF8
1FFC
180E
1806
1806
180E
1FFC
1FF0
ENDCHAR
STARTCHAR uni0464
ENCODING -1
SWIDTH 600 0
DWIDTH 16 0
BBX 14 19 1 0
BITMAP
C0F8
C1FC
C388
C700
C600
CE00
CC00
CC00
FFF0
FFF0
CC00
CC00
CC00
CE00
C600
C700
C788
C3F8
C1F0
ENDCHAR
STARTCHAR uni0465
ENCODING -1
SWIDTH 600 0
DWIDTH 16 0
BBX 13 14 2 0
BITMAP
C1F0
C3F8
C700
C600
CC00
CC00
FFF0
FFF0
CC00
CC00
CE00
C708
C3F8
C1F0
ENDCHAR
STARTCHAR uni0466
ENCODING -1
SWIDTH 600 0
DWIDTH 16 0
BBX 16 19 0 0
BITMAP
0180
03C0
03C0
02C0
0660
0660
0C70
0C30
0FF0
1FF8
1998
1998
319C
318C
318C
618E
6186
6186
C183
ENDCHAR
STARTCHAR uni0467
ENCODING -1
SWIDTH 600 0
DWIDTH 16 0
BBX 14 14 1 0
BITMAP
0780
0780
0780
0CC0
0CC0
18E0
1FE0
1FE0
3370
3330
7338
6318
6318
E31C
ENDCHAR
STARTCHAR uni0468
ENCODING -1
SWIDTH 600 0
DWIDTH 16 0
BBX 15 19 1 0
BITMAP
C0C0
C1C0
C1E0
C1E0
C1E0
C320
C330
C330
FFF0
FFF8
C6D8
C6D8
C6D8
CCCC
CCCC
CCCC
CCCC
D8CE
D8C6
ENDCHAR
STARTCHAR uni0469
ENCODING -1
SWIDTH 600 0
DWIDTH 16 0
BBX 14 14 2 0
BITMAP
C1C0
C1C0
C340
C360
C360
C360
FFF0
FFF0
C7B0
CDB8
CD98
CD98
DD9C
D98C
ENDCHAR
STARTCHAR uni046A
ENCODING -1
SWIDTH 600 0
DWIDTH 16 0
BBX 16 19 0 0
BITMAP
3FFC
3FFC
381C
1818
0C30
0E70
0660
03C0
0FF0
1FF8
399C
318C
318C
718E
6186
6186
6186
E187
C183
ENDCHAR
STARTCHAR uni046B
ENCODING -1
SWIDTH 600 0
DWIDTH 16 0
BBX 15 14 0 0
BITMAP
3FF8
3FF8
1830
0C70
0660
07C0
0FF0
1FF8
3998
319C
718C
618C
618E
E186
ENDCHAR
STARTCHAR uni046C
ENCODING -1
SWIDTH 600 0
DWIDTH 16 0
BBX 15 19 1 0
BITMAP
CFFE
CFFE
CE0E
C60C
C618
C318
C330
C1F0
FFF0
FFF8
CECC
CCCC
CCCC
CCCC
CCCC
DCCE
DCC6
D8C6
D8C6
ENDCHAR
STARTCHAR uni046D
ENCODING -1
SWIDTH 600 0
DWIDTH 16 0
BBX 14 14 2 0
BITMAP
CFF8
CFF8
C630
C630
C330
C1E0
FFF0
FED8
CCD8
CCD8
CCD8
CCCC
D8CC
D8CC
ENDCHAR
STARTCHAR uni046E
ENCODING -1
SWIDTH 600 0
DWIDTH 16 0
BBX 13 27 1 -5
BITMAP
3870
1DF0
0780
1FC0
FFF0
6078
0038
0038
0038
0030
00F0
3FC0
3FE0
0070
0038
0038
0038
0038
0038
0070
3FE0
7F80
E000
C000
E000
7FF8
3FF8
ENDCHAR
STARTCHAR uni046F
ENCODING -1
SWIDTH 600 0
DWIDTH 16 0
BBX 11 21 2 -4
BITMAP
30E0
19E0
0F00
3F80
7FC0
00E0
0060
0060
00C0
1F80
1FC0
00E0
0060
0060
00E0
3FC0
FF00
C000
C000
FFE0
7FE0
ENDCHAR
STARTCHAR uni0470
ENCODING -1
SWIDTH 600 0
DWIDTH 16 0
BBX 14 19 1 0
BITMAP
C30C
C30C
C30C
C30C
C30C
C30C
C30C
C30C
E31C
E31C
7338
3FF8
1FE0
0300
0300
0300
0300
0300
0300
ENDCHAR
STARTCHAR uni0471
ENCODING -1
SWIDTH 600 0
DWIDTH 16 0
BBX 14 26 1 -6
BITMAP
0300
0300
0300
0300
0300
0300
C318
C318
C31C
C30C
C30C
C30C
C30C
C30C
C30C
E31C
E318
7338
3FF0
1FC0
0300
0300
0300
0300
0300
0300
ENDCHAR
STARTCHAR uni0472
ENCODING -1
SWIDTH 600 0
DWIDTH 16 0
BBX 14 19 1 0
BITMAP
0FC0
1FE0
3870
7038
6018
E01C
E01C
E01C
FFFC
FFFC
E01C
E01C
E01C
E01C
6018
7038
3870
1FE0
0FC0
ENDCHAR
STARTCHAR uni0473
ENCODING -1
SWIDTH 600 0
DWIDTH 16 0
BBX 14 14 1 0
BITMAP
0FC0
3FF0
7078
6018
E01C
C01C
FFFC
FFFC
C00C
E01C
6018
7038
3FF0
0FC0
ENDCHAR
STARTCHAR uni0474
ENCODING -1
SWIDTH 600 0
DWIDTH 16 0
BBX 16 19 1 0
BITMAP
E00F
E01F
6018
7038
7038
3030
3030
3870
1860
1860
1CE0
1CE0
0CC0
0CC0
0FC0
0780
0780
0780
0380
ENDCHAR
STARTCHAR uni0475
ENCODING -1
SWIDTH 600 0
DWIDTH 16 0
BBX 14 14 1 0
BITMAP
E01C
603C
6030
7070
3060
3060
38E0
18C0
18C0
0CC0
0D80
0D80
0780
0700
ENDCHAR
STARTCHAR uni0476
ENCODING -1
SWIDTH 600 0
DWIDTH 16 0
BBX 16 24 1 0
BITMAP
7380
3180
18C0
0C60
0000
E00F
E01F
6018
7038
7038
3030
3030
3870
1860
1860
1CE0
1CE0
0CC0
0CC0
0FC0
0780
0780
0780
0380
ENDCHAR
STARTCHAR uni0477
ENCODING -1
SWIDTH 600 0
DWIDTH 16 0
BBX 14 20 1 0
BITMAP
7380
3180
18C0
0C60
0000
0000
E01C
603C
6030
7070
3060
3060
38E0
18C0
18C0
0CC0
0D80
0D80
0780
0700
ENDCHAR
STARTCHAR uni0478
ENCODING -1
SWIDTH 600 0
DWIDTH 16 0
BBX 15 25 1 -6
BITMAP
3800
7C00
6C00
C600
C600
C6C6
C6C6
C6C6
C64C
C66C
C66C
C66C
C66C
C62C
C628
C628
6C38
7C38
3838
0038
0030
0030
0030
00F0
00E0
ENDCHAR
STARTCHAR uni0479
ENCODING -1
SWIDTH 600 0
DWIDTH 16 0
BBX 15 20 1 -6
BITMAP
3986
7CC6
6CC6
C6CC
C6CC
C6CC
C64C
C66C
C678
C678
C678
6E38
7C38
3830
0030
0030
0030
0060
01E0
01C0
ENDCHAR
STARTCHAR uni047A
ENCODING -1
SWIDTH 600 0
DWIDTH 16 0
BBX 14 21 1 -1
BITMAP
0780
0FC0
3FE0
3F70
7038
6018
E01C
E01C
E01C
E01C
E01C
E01C
E01C
E01C
E01C
6018
7038
3F70
3FF0
0FC0
0780
ENDCHAR
STARTCHAR uni047B
ENCODING -1
SWIDTH 600 0
DWIDTH 16 0
BBX 14 16 1 -1
BITMAP
0700
0FC0
3FF0
7338
6018
E01C
C01C
C00C
C00C
C01C
E01C
6018
7738
3FF0
0FC0
0700
ENDCHAR
STARTCHAR uni047C
ENCODING -1
SWIDTH 600 0
DWIDTH 16 0
BBX 14 27 1 0
BITMAP
0F00
1FF0
1870
0380
0380
0180
0200
0000
3CF0
7CF8
6018
6018
E01C
C00C
C00C
C00C
C00C
C00C
C00C
C00C
C00C
C00C
E01C
6118
7338
3FF8
1EE0
ENDCHAR
STARTCHAR uni047D
ENCODING -1
SWIDTH 600 0
DWIDTH 16 0
BBX 14 23 1 0
BITMAP
0F00
1FE0
18E0
0700
0300
0300
0400
0000
0000
3CF0
7CF8
6018
C00C
C00C
C00C
C00C
C00C
C00C
C00C
E01C
6318
7FF8
1FE0
ENDCHAR
STARTCHAR uni047E
ENCODING -1
SWIDTH 600 0
DWIDTH 16 0
BBX 14 22 1 0
BITMAP
3FF0
1320
0000
3CF0
7CF8
6018
6018
E01C
C00C
C00C
C00C
C00C
C00C
C30C
C30C
C30C
C30C
E31C
6318
7338
3FF8
1CE0
ENDCHAR
STARTCHAR uni047F
ENCODING -1
SWIDTH 600 0
DWIDTH 16 0
BBX 15 18 0 0
BITMAP
1FF8
0990
0000
0000
C306
C306
6186
6186
6186
2186
3184
31CC
33CC
1BCC
1A58
1E58
0E70
0C70
ENDCHAR
STARTCHAR uni0480
ENCODING -1
SWIDTH 600 0
DWIDTH 16 0
BBX 13 25 2 -6
BITMAP
07F0
1FF8
3C10
7800
7000
6000
E000
E000
E000
E000
E000
E000
E000
E000
7000
7000
3C00
1FC0
07C0
00C0
00C0
00C0
00C0
00C0
00C0
ENDCHAR
STARTCHAR uni0481
ENCODING -1
SWIDTH 600 0
DWIDTH 16 0
BBX 12 20 2 -6
BITMAP
0FE0
3FF0
7820
6000
E000
E000
C000
C000
E000
E000
6000
7800
3F80
0F80
0180
0180
0180
0180
0180
0180
ENDCHAR
STARTCHAR uni0482
ENCODING -1
SWIDTH 600 0
DWIDTH 16 0
BBX 14 16 1 0
BITMAP
0010
0038
0830
1E60
07E0
01E0
01F0
01BC
4308
F600
3E00
1E00
1F80
39E0
7040
2000
ENDCHAR
STARTCHAR uni0483
ENCODING -1
SWIDTH 600 0
DWIDTH 16 0
BBX 10 3 3 15
BITMAP
00C0
FFC0
C000
ENDCHAR
STARTCHAR uni0484
ENCODING -1
SWIDTH 600 0
DWIDTH 16 0
BBX 10 3 3 16
BITMAP
0F80
FFC0
E0C0
ENDCHAR
STARTCHAR uni0485
ENCODING -1
SWIDTH 600 0
DWIDTH 16 0
BBX 3 4 6 16
BITMAP
E0
E0
C0
60
ENDCHAR
STARTCHAR uni0486
ENCODING -1
SWIDTH 600 0
DWIDTH 16 0
BBX 3 4 6 16
BITMAP
E0
E0
E0
C0
ENDCHAR
STARTCHAR uni0488
ENCODING -1
SWIDTH 600 0
DWIDTH 16 0
BBX 14 13 1 1
BITMAP
0200
0700
2030
7078
0000
0000
E01C
A014
0000
0000
7070
0000
0700
ENDCHAR
STARTCHAR uni0489
ENCODING -1
SWIDTH 600 0
DWIDTH 16 0
BBX 14 14 1 0
BITMAP
0100
0300
2310
3070
1040
0000
E018
601C
0000
0020
1020
6330
0310
0200
ENDCHAR
STARTCHAR uni048A
ENCODING -1
SWIDTH 600 0
DWIDTH 16 0
BBX 14 29 2 -5
BITMAP
6060
70E0
3FC0
1F80
0000
C070
C070
C0F0
C0F0
C1B0
C1B0
C330
C330
C730
C630
CE30
CC30
CC30
D830
D830
F030
F030
E03C
E03C
0018
0018
0018
0038
0030
ENDCHAR
STARTCHAR uni048B
ENCODING -1
SWIDTH 600 0
DWIDTH 16 0
BBX 14 25 2 -5
BITMAP
6060
70E0
3FC0
1F80
0000
0000
C070
C0F0
C1F0
C1B0
C3B0
C330
C630
C630
CC30
DC30
D830
F830
F03C
E03C
0018
0018
0018
0030
0030
ENDCHAR
STARTCHAR uni048C
ENCODING -1
SWIDTH 600 0
DWIDTH 16 0
BBX 13 19 1 0
BITMAP
3000
3000
FF00
FF00
3000
3000
3000
3000
3FC0
3FE0
3070
3038
3038
3038
3038
3038
3070
3FE0
3FC0
ENDCHAR
STARTCHAR uni048D
ENCODING -1
SWIDTH 600 0
DWIDTH 16 0
BBX 13 20 1 0
BITMAP
3000
3000
3000
FF00
FF00
3000
3000
3000
3000
3000
3000
3000
3FE0
3FF0
3038
3018
3018
3038
3FF0
3FE0
ENDCHAR
STARTCHAR uni048E
ENCODING -1
SWIDTH 600 0
DWIDTH 16 0
BBX 12 19 2 0
BITMAP
FF80
FFC0
C0E0
C070
C070
C070
C070
C270
C770
C3E0
FFC0
FFC0
C0E0
C040
C000
C000
C000
C000
C000
ENDCHAR
STARTCHAR uni048F
ENCODING -1
SWIDTH 600 0
DWIDTH 16 0
BBX 12 20 2 -6
BITMAP
CF80
DFC0
F0E0
E060
E070
C030
C030
C030
C030
E170
E360
F1E0
DFC0
CFC0
C060
C040
C000
C000
C000
C000
ENDCHAR
STARTCHAR uni0492
ENCODING -1
SWIDTH 600 0
DWIDTH 16 0
BBX 13 19 2 0
BITMAP
3FF8
3FF8
3000
3000
3000
3000
3000
3000
3000
FF80
FF80
3000
3000
3000
3000
3000
3000
3000
3000
ENDCHAR
STARTCHAR uni0493
ENCODING -1
SWIDTH 600 0
DWIDTH 16 0
BBX 12 14 2 0
BITMAP
3FF0
3FF0
3000
3000
3000
3000
FF00
FF00
3000
3000
3000
3000
3000
3000
ENDCHAR
STARTCHAR uni0494
ENCODING -1
SWIDTH 600 0
DWIDTH 16 0
BBX 13 26 2 -7
BITMAP
FFC0
FFC0
C000
C000
C000
C000
C000
C000
C000
FF00
FFC0
C1E0
C0F0
C070
C038
C038
C038
C038
C038
0038
0038
0030
0070
20E0
3FC0
3F80
ENDCHAR
STARTCHAR uni0495
ENCODING -1
SWIDTH 600 0
DWIDTH 16 0
BBX 12 20 3 -6
BITMAP
FF80
FF80
C000
C000
C000
C000
FF00
FFC0
C1E0
C060
C070
C070
C030
C030
0070
0070
0060
21E0
3FC0
3F00
ENDCHAR
STARTCHAR uni0496
ENCODING -1
SWIDTH 600 0
DWIDTH 16 0
BBX 16 24 0 -5
BITMAP
E18E
618C
718C
3198
3998
19B8
1DB0
0DB0
07E0
07E0
0DF0
0DB0
19B0
1998
3998
3198
718C
618F
E18F
0003
0003
0003
0003
0003
ENDCHAR
STARTCHAR uni0497
ENCODING -1
SWIDTH 600 0
DWIDTH 16 0
BBX 15 19 0 -5
BITMAP
E30C
631C
7318
3330
1B70
1B60
0FC0
0FE0
1B60
3B30
3338
731C
630E
E30E
0006
0006
0006
0006
0006
ENDCHAR
STARTCHAR uni0498
ENCODING -1
SWIDTH 600 0
DWIDTH 16 0
BBX 12 25 2 -6
BITMAP
1F80
7FE0
60F0
0070
0070
0070
0060
01E0
3F80
3FC0
01E0
0070
0070
0070
0070
0070
C0E0
FFC0
7F00
0C00
0600
0300
0300
0F00
0E00
ENDCHAR
STARTCHAR uni0499
ENCODING -1
SWIDTH 600 0
DWIDTH 16 0
BBX 10 20 3 -6
BITMAP
7F00
FF80
41C0
00C0
00C0
0180
3F00
3F80
01C0
00C0
00C0
81C0
FF80
7E00
1800
0C00
0600
0600
1E00
1C00
ENDCHAR
STARTCHAR uni049A
ENCODING -1
SWIDTH 600 0
DWIDTH 16 0
BBX 12 24 3 -5
BITMAP
C0E0
C1C0
C180
C380
C700
C600
CE00
DC00
D800
F800
DC00
CE00
CE00
C700
C300
C380
C1C0
C0F0
C070
0030
0030
0030
0030
0030
ENDCHAR
STARTCHAR uni049B
ENCODING -1
SWIDTH 600 0
DWIDTH 16 0
BBX 12 19 3 -5
BITMAP
C0E0
C1C0
C380
C700
CE00
DC00
F800
DC00
CE00
C700
C380
C180
C0F0
C070
0030
0030
0030
0030
0030
ENDCHAR
STARTCHAR uni049C
ENCODING -1
SWIDTH 600 0
DWIDTH 16 0
BBX 12 19 3 0
BITMAP
C070
C0E0
C0C0
CDC0
CF80
CF00
CE00
CE00
DC00
DC00
FE00
EF00
CF00
CF80
CD80
C0C0
C0E0
C060
C070
ENDCHAR
STARTCHAR uni049D
ENCODING -1
SWIDTH 600 0
DWIDTH 16 0
BBX 12 14 3 0
BITMAP
C070
CCE0
CDC0
CF80
CF00
CE00
FC00
DC00
CE00
CF00
CF80
CDC0
CCE0
C070
ENDCHAR
STARTCHAR uni049E
ENCODING -1
SWIDTH 600 0
DWIDTH 16 0
BBX 14 19 1 0
BITMAP
301C
3038
FE70
FE60
30C0
31C0
3380
3300
3700
3F00
3B80
31C0
30C0
30E0
3060
3070
3038
3018
301C
ENDCHAR
STARTCHAR uni049F
ENCODING -1
SWIDTH 600 0
DWIDTH 16 0
BBX 14 20 1 0
BITMAP
3000
3000
FF80
FF80
3000
3000
3018
3030
3060
30C0
3380
3700
3700
3F80
3980
30C0
30E0
3070
3038
301C
ENDCHAR
STARTCHAR uni04A0
ENCODING -1
SWIDTH 600 0
DWIDTH 16 0
BBX 15 19 0 0
BITMAP
FC0E
FC0C
0C18
0C38
0C30
0C60
0CE0
0CC0
0DC0
0DC0
0FE0
0E60
0C70
0C30
0C38
0C18
0C1C
0C0C
0C0E
ENDCHAR
STARTCHAR uni04A1
ENCODING -1
SWIDTH 600 0
DWIDTH 16 0
BBX 15 14 1 0
BITMAP
FE1C
FE18
0638
0670
0660
06E0
07C0
06C0
06E0
0670
0638
0618
061C
060E
ENDCHAR
STARTCHAR uni04A2
ENCODING -1
SWIDTH 600 0
DWIDTH 16 0
BBX 13 24 2 -5
BITMAP
C060
C060
C060
C060
C060
C060
C060
C060
FFE0
FFE0
C060
C060
C060
C060
C060
C060
C060
C078
C078
0018
0018
0018
0018
0018
ENDCHAR
STARTCHAR uni04A3
ENCODING -1
SWIDTH 600 0
DWIDTH 16 0
BBX 13 19 2 -5
BITMAP
C060
C060
C060
C060
C060
C060
FFE0
FFE0
C060
C060
C060
C060
C078
C078
0018
0018
0018
0018
0018
ENDCHAR
STARTCHAR uni04A4
ENCODING -1
SWIDTH 600 0
DWIDTH 16 0
BBX 13 19 2 0
BITMAP
C0F8
C0F8
C0C0
C0C0
C0C0
C0C0
C0C0
C0C0
FFC0
FFC0
C0C0
C0C0
C0C0
C0C0
C0C0
C0C0
C0C0
C0C0
C0C0
ENDCHAR
STARTCHAR uni04A5
ENCODING -1
SWIDTH 600 0
DWIDTH 16 0
BBX 13 14 2 0
BITMAP
C0F8
C0F8
C0C0
C0C0
C0C0
C0C0
FFC0
FFC0
C0C0
C0C0
C0C0
C0C0
C0C0
C0C0
ENDCHAR
STARTCHAR uni04A6
ENCODING -1
SWIDTH 600 0
DWIDTH 16 0
BBX 14 26 1 -7
BITMAP
FF00
FF00
C300
C300
C300
C300
C300
C300
C300
C3E0
C3F0
C338
C318
C31C
C30C
C30C
C30C
C30C
C30C
000C
000C
001C
0018
0038
01F0
01E0
ENDCHAR
STARTCHAR uni04A7
ENCODING -1
SWIDTH 600 0
DWIDTH 16 0
BBX 13 20 2 -6
BITMAP
FE00
FE00
C600
C600
C600
C600
C7C0
C7F0
C630
C618
C618
C618
C618
C618
0018
0018
0018
0030
03F0
03E0
ENDCHAR
STARTCHAR uni04A8
ENCODING -1
SWIDTH 600 0
DWIDTH 16 0
BBX 14 20 1 -1
BITMAP
0F80
3F80
3800
7000
61F0
E3F8
E318
E71C
E71C
E71C
E71C
E71C
E71C
E71C
6338
73B8
39F0
3FE0
0FFC
003C
ENDCHAR
STARTCHAR uni04A9
ENCODING -1
SWIDTH 600 0
DWIDTH 16 0
BBX 14 15 1 -1
BITMAP
0FC0
3FC0
7800
61F0
E3F8
E71C
C71C
C60C
C61C
E71C
63B8
79F8
3FF0
0FFC
003C
ENDCHAR
STARTCHAR uni04AA
ENCODING -1
SWIDTH 600 0
DWIDTH 16 0
BBX 13 25 2 -6
BITMAP
07F0
1FF8
3C10
7800
7000
6000
E000
E000
E000
E000
E000
E000
E000
E000
7000
7000
3C10
1FF0
07E0
0300
0180
00C0
00C0
03C0
0380
ENDCHAR
STARTCHAR uni04AB
ENCODING -1
SWIDTH 600 0
DWIDTH 16 0
BBX 12 20 2 -6
BITMAP
0FE0
3FF0
7820
6000
E000
E000
C000
C000
E000
E000
6000
7810
3FF0
0FE0
0600
0300
0180
0180
0780
0700
ENDCHAR
STARTCHAR uni04AC
ENCODING -1
SWIDTH 600 0
DWIDTH 16 0
BBX 13 24 2 -5
BITMAP
FFF8
FFF8
0600
0600
0600
0600
0600
0600
0600
0600
0600
0600
0600
0600
0600
0600
0600
0780
0780
0180
0180
0180
0180
0180
ENDCHAR
STARTCHAR uni04AD
ENCODING -1
SWIDTH 600 0
DWIDTH 16 0
BBX 12 19 2 -5
BITMAP
FFF0
FFF0
0600
0600
0600
0600
0600
0600
0600
0600
0600
0600
0780
0780
0180
0180
0180
0180
0180
ENDCHAR
STARTCHAR uni04AE
ENCODING -1
SWIDTH 600 0
DWIDTH 16 0
BBX 15 19 1 0
BITMAP
E00E
600C
701C
3018
3838
1830
1C60
0CE0
0CC0
07C0
0780
0380
0300
0300
0300
0300
0300
0300
0300
ENDCHAR
STARTCHAR uni04AF
ENCODING -1
SWIDTH 600 0
DWIDTH 16 0
BBX 14 20 1 -6
BITMAP
E01C
6018
6018
3038
3030
3870
1860
1C60
0CE0
0CC0
06C0
0780
0780
0300
0300
0300
0300
0300
0300
0300
ENDCHAR
STARTCHAR uni04B0
ENCODING -1
SWIDTH 600 0
DWIDTH 16 0
BBX 15 19 1 0
BITMAP
E00E
600C
701C
3038
3830
1870
1C60
0CE0
0EC0
0780
0380
0300
3FF0
3FF0
0300
0300
0300
0300
0300
ENDCHAR
STARTCHAR uni04B1
ENCODING -1
SWIDTH 600 0
DWIDTH 16 0
BBX 14 20 1 -6
BITMAP
E01C
6018
6018
7038
3030
3870
1860
1C60
0CE0
0CC0
0EC0
0780
0780
0380
1FF0
1FF0
0300
0300
0300
0300
ENDCHAR
STARTCHAR uni04B2
ENCODING -1
SWIDTH 600 0
DWIDTH 16 0
BBX 14 24 1 -5
BITMAP
E038
6030
7070
3060
18C0
1CC0
0D80
0F80
0700
0700
0F80
0D80
1DC0
18C0
38E0
3060
7030
603C
E01C
000C
000C
000C
000C
000C
ENDCHAR
STARTCHAR uni04B3
ENCODING -1
SWIDTH 600 0
DWIDTH 16 0
BBX 14 19 1 -5
BITMAP
E038
7070
3060
18C0
1DC0
0F80
0700
0700
0D80
1DC0
18E0
3060
703C
E03C
000C
000C
000C
000C
000C
ENDCHAR
STARTCHAR uni04B4
ENCODING -1
SWIDTH 600 0
DWIDTH 16 0
BBX 15 24 0 -5
BITMAP
FF18
FF18
1818
1818
1818
1818
1818
1818
1818
1818
1818
1818
1818
1818
1818
1818
1818
1FFE
1FFE
0006
0006
0006
0006
0006
ENDCHAR
STARTCHAR uni04B5
ENCODING -1
SWIDTH 600 0
DWIDTH 16 0
BBX 15 19 0 -5
BITMAP
FF18
FF18
1818
1818
1818
1818
1818
1818
1818
1818
1818
1818
1FFE
1FFE
0006
0006
0006
0006
0006
ENDCHAR
STARTCHAR uni04B6
ENCODING -1
SWIDTH 600 0
DWIDTH 16 0
BBX 13 24 2 -5
BITMAP
C060
C060
C060
C060
C060
C060
C060
C060
E060
E0E0
7FE0
3F60
0060
0060
0060
0060
0060
0078
0078
0018
0018
0018
0018
0018
ENDCHAR
STARTCHAR uni04B7
ENCODING -1
SWIDTH 600 0
DWIDTH 16 0
BBX 13 19 2 -5
BITMAP
C060
C060
C060
C060
C060
C060
E0E0
7FE0
3E60
0060
0060
0060
0078
0078
0018
0018
0018
0018
0018
ENDCHAR
STARTCHAR uni04B8
ENCODING -1
SWIDTH 600 0
DWIDTH 16 0
BBX 12 19 2 0
BITMAP
C030
C030
C030
C030
C030
C030
C630
C630
E630
E6F0
7FF0
3F30
0630
0630
0630
0630
0030
0030
0030
ENDCHAR
STARTCHAR uni04B9
ENCODING -1
SWIDTH 600 0
DWIDTH 16 0
BBX 12 14 2 0
BITMAP
C030
C030
C030
C630
C630
C630
E6F0
7FF0
3F30
0630
0630
0630
0030
0030
ENDCHAR
STARTCHAR uni04BA
ENCODING -1
SWIDTH 600 0
DWIDTH 16 0
BBX 12 19 2 0
BITMAP
C000
C000
C000
C000
C000
C000
C000
CFC0
FFE0
F070
C070
C030
C030
C030
C030
C030
C030
C030
C030
ENDCHAR
STARTCHAR uni04BB
ENCODING -1
SWIDTH 600 0
DWIDTH 16 0
BBX 12 14 2 0
BITMAP
C000
C000
C000
C000
C000
CFC0
FFE0
F070
C030
C030
C030
C030
C030
C030
ENDCHAR
STARTCHAR uni04BC
ENCODING -1
SWIDTH 600 0
DWIDTH 16 0
BBX 15 19 0 0
BITMAP
01F0
03F8
071C
060C
060E
CE0E
CE0E
CE0E
FFFE
7FFE
0E00
0E00
0E00
0E00
0600
0700
0784
03FC
00F8
ENDCHAR
STARTCHAR uni04BD
ENCODING -1
SWIDTH 600 0
DWIDTH 16 0
BBX 15 14 0 0
BITMAP
01F0
07F8
0E1C
CC0C
DC0E
DC06
FFFE
7FFE
1800
1C00
0C00
0E04
07FC
01F8
ENDCHAR
STARTCHAR uni04BE
ENCODING -1
SWIDTH 600 0
DWIDTH 16 0
BBX 15 24 0 -5
BITMAP
01F0
03F8
071C
060C
060E
CE0E
CE0E
CE0E
FFFE
7FFE
0E00
0E00
0E00
0E00
0600
0700
0384
01FC
00F8
0060
0060
0060
0060
0060
ENDCHAR
STARTCHAR uni04BF
ENCODING -1
SWIDTH 600 0
DWIDTH 16 0
BBX 15 19 0 -5
BITMAP
01F0
07F8
0E1C
CC0C
DC0E
DC06
FFFE
7FFE
1800
1C00
0C00
0E04
07FC
01F8
00C0
00C0
00C0
00C0
00C0
ENDCHAR
STARTCHAR uni04C0
ENCODING -1
SWIDTH 600 0
DWIDTH 16 0
BBX 10 19 3 0
BITMAP
FFC0
FFC0
0C00
0C00
0C00
0C00
0C00
0C00
0C00
0C00
0C00
0C00
0C00
0C00
0C00
0C00
0C00
FFC0
FFC0
ENDCHAR
STARTCHAR uni04C1
ENCODING -1
SWIDTH 600 0
DWIDTH 16 0
BBX 16 24 0 0
BITMAP
1818
1C38
0FF0
07E0
0000
C183
6186
6186
318C
318C
1998
1D98
0DB0
0FB0
07F0
0DB0
0DB8
1998
199C
318C
318E
6186
6187
C183
ENDCHAR
STARTCHAR uni04C2
ENCODING -1
SWIDTH 600 0
DWIDTH 16 0
BBX 16 20 0 0
BITMAP
1818
1C38
0FF0
07E0
0000
0000
C183
6186
318C
398C
1998
0DB0
07F0
0FB0
0DB8
1998
398C
318E
6186
E187
ENDCHAR
STARTCHAR uni04C3
ENCODING -1
SWIDTH 600 0
DWIDTH 16 0
BBX 13 26 2 -7
BITMAP
C038
C070
C0E0
C1C0
C180
C300
C600
CE00
DC00
FF00
FFC0
C1E0
C070
C030
C038
C038
C038
C038
C038
0038
0038
0030
0070
20E0
3FC0
3F80
ENDCHAR
STARTCHAR uni04C4
ENCODING -1
SWIDTH 600 0
DWIDTH 16 0
BBX 12 20 3 -6
BITMAP
C070
C0E0
C180
C700
CE00
DC00
FE00
FFC0
C1E0
C060
C070
C070
C030
C030
0070
0070
0060
21E0
3FC0
3F00
ENDCHAR
STARTCHAR uni04C5
ENCODING -1
SWIDTH 600 0
DWIDTH 16 0
BBX 16 24 0 -5
BITMAP
03FC
03FC
030C
070C
070C
060C
060C
060C
060C
060C
0E0C
0E0C
0C0C
0C0C
0C0C
1C0C
180C
F80F
F00F
0006
0006
0006
000C
000C
ENDCHAR
STARTCHAR uni04C6
ENCODING -1
SWIDTH 600 0
DWIDTH 16 0
BBX 15 19 0 -5
BITMAP
0FF8
0FF8
0C18
0C18
0C18
1C18
1818
1818
1818
1818
3818
3018
F01E
E01E
000C
000C
000C
0018
0018
ENDCHAR
STARTCHAR uni04C7
ENCODING -1
SWIDTH 600 0
DWIDTH 16 0
BBX 12 26 2 -7
BITMAP
C030
C030
C030
C030
C030
C030
C030
C030
FFF0
FFF0
C030
C030
C030
C030
C030
C030
C030
C030
C030
0070
0070
0060
00E0
01E0
1FC0
1F00
ENDCHAR
STARTCHAR uni04C8
ENCODING -1
SWIDTH 600 0
DWIDTH 16 0
BBX 12 20 2 -6
BITMAP
C030
C030
C030
C030
C030
C030
FFF0
FFF0
C030
C030
C030
C030
C030
C030
0030
0070
0060
10E0
1FC0
1F80
ENDCHAR
STARTCHAR uni04C9
ENCODING -1
SWIDTH 600 0
DWIDTH 16 0
BBX 14 24 2 -5
BITMAP
C030
C030
C030
C030
C030
C030
C030
C030
FFF0
FFF0
C030
C030
C030
C030
C030
C030
C030
C03C
C03C
0018
0018
0018
0030
0030
ENDCHAR
STARTCHAR uni04CA
ENCODING -1
SWIDTH 600 0
DWIDTH 16 0
BBX 13 19 2 -5
BITMAP
C060
C060
C060
C060
C060
C060
FFE0
FFE0
C060
C060
C060
C060
C078
C078
0010
0030
0030
0060
0060
ENDCHAR
STARTCHAR uni04CB
ENCODING -1
SWIDTH 600 0
DWIDTH 16 0
BBX 12 24 2 -5
BITMAP
C030
C030
C030
C030
C030
C030
C030
C030
E030
E0F0
7FF0
3F30
0030
0030
0030
0030
0030
00F0
00F0
00C0
00C0
00C0
00C0
00C0
ENDCHAR
STARTCHAR uni04CC
ENCODING -1
SWIDTH 600 0
DWIDTH 16 0
BBX 12 19 2 -5
BITMAP
C030
C030
C030
C030
C030
C030
E0F0
7FB0
3E30
0030
0030
0030
00F0
00F0
00C0
00C0
00C0
00C0
00C0
ENDCHAR
STARTCHAR uni04CD
ENCODING -1
SWIDTH 600 0
DWIDTH 16 0
BBX 15 24 1 -5
BITMAP
E038
E038
E038
E078
F078
D058
D058
D0D8
D8D8
D8D8
C898
C898
CD98
CD98
CD18
C518
C718
C71E
C71E
000C
000C
000C
0018
0018
ENDCHAR
STARTCHAR uni04CE
ENCODING -1
SWIDTH 600 0
DWIDTH 16 0
BBX 14 19 1 -5
BITMAP
E070
E070
E070
F0F0
F0F0
D0B0
D9B0
D9B0
C930
C930
CF30
CF30
C63C
C63C
0008
0018
0018
0010
0030
ENDCHAR
STARTCHAR uni04CF
ENCODING -1
SWIDTH 600 0
DWIDTH 16 0
BBX 10 19 3 0
BITMAP
FFC0
FFC0
0C00
0C00
0C00
0C00
0C00
0C00
0C00
0C00
0C00
0C00
0C00
0C00
0C00
0C00
0C00
FFC0
FFC0
ENDCHAR
STARTCHAR uni04D0
ENCODING -1
SWIDTH 600 0
DWIDTH 16 0
BBX 16 24 0 0
BITMAP
1818
1C38
0FF0
07E0
0000
0180
03C0
03C0
03E0
0660
0660
0E70
0C30
0C30
1C38
1818
1FF8
3FFC
300C
300C
700E
6006
6006
E007
ENDCHAR
STARTCHAR uni04D1
ENCODING -1
SWIDTH 600 0
DWIDTH 16 0
BBX 11 20 2 0
BITMAP
6060
70E0
3FC0
1F80
0000
0000
1F80
7FC0
20E0
00E0
0060
0060
1FE0
7FE0
E060
C060
C0E0
E1E0
7F60
3E60
ENDCHAR
STARTCHAR uni04D2
ENCODING -1
SWIDTH 600 0
DWIDTH 16 0
BBX 16 23 0 0
BITMAP
0630
0630
0630
0000
0180
03C0
03C0
03E0
0660
0660
0E70
0C30
0C30
1C38
1818
1FF8
3FFC
300C
300C
700E
6006
6006
E007
ENDCHAR
STARTCHAR uni04D3
ENCODING -1
SWIDTH 600 0
DWIDTH 16 0
BBX 11 19 2 0
BITMAP
18C0
18C0
18C0
0000
0000
1F80
7FC0
20E0
00E0
0060
0060
1FE0
7FE0
E060
C060
C0E0
E1E0
7F60
3E60
ENDCHAR
STARTCHAR uni04D4
ENCODING -1
SWIDTH 600 0
DWIDTH 16 0
BBX 15 19 0 0
BITMAP
0FFE
0FFE
1980
1980
1980
1980
1980
3180
31FE
31FE
3180
3F80
7F80
6180
6180
6180
6180
C1FE
C1FE
ENDCHAR
STARTCHAR uni04D5
ENCODING -1
SWIDTH 600 0
DWIDTH 16 0
BBX 14 14 1 0
BITMAP
3C70
7EF8
4798
039C
030C
030C
3FFC
7FFC
E300
C300
C380
E7C4
7CFC
7878
ENDCHAR
STARTCHAR uni04D6
ENCODING -1
SWIDTH 600 0
DWIDTH 16 0
BBX 11 24 3 0
BITMAP
6060
70E0
3FC0
1F80
0000
FFE0
FFE0
C000
C000
C000
C000
C000
C000
FFC0
FFC0
C000
C000
C000
C000
C000
C000
C000
FFE0
FFE0
ENDCHAR
STARTCHAR uni04D7
ENCODING -1
SWIDTH 600 0
DWIDTH 16 0
BBX 12 20 2 0
BITMAP
6060
70E0
3FC0
1F80
0000
0000
0F80
3FC0
70E0
6060
E070
C030
FFF0
FFF0
C000
E000
6000
7020
3FE0
0FC0
ENDCHAR
STARTCHAR uni04D8
ENCODING -1
SWIDTH 600 0
DWIDTH 16 0
BBX 14 19 1 0
BITMAP
3F80
7FE0
60F0
0038
0038
0018
001C
001C
001C
FFFC
FFFC
E01C
E01C
E01C
6018
7038
7870
3FE0
0FC0
ENDCHAR
STARTCHAR uni04D9
ENCODING -1
SWIDTH 600 0
DWIDTH 16 0
BBX 12 14 2 0
BITMAP
3F00
7FC0
40E0
0060
0070
0070
0030
FFF0
FFF0
C070
E060
70E0
3FC0
1F00
ENDCHAR
STARTCHAR uni04DA
ENCODING -1
SWIDTH 600 0
DWIDTH 16 0
BBX 14 23 1 0
BITMAP
0C60
0C60
0C60
0000
3F80
7FE0
60F0
0038
0038
0018
001C
001C
001C
FFFC
FFFC
E01C
E01C
E01C
6018
7038
7870
3FE0
0FC0
ENDCHAR
STARTCHAR uni04DB
ENCODING -1
SWIDTH 600 0
DWIDTH 16 0
BBX 12 19 2 0
BITMAP
18C0
18C0
18C0
0000
0000
3F00
7FC0
40E0
0060
0070
0070
0030
FFF0
FFF0
C070
E060
70E0
3FC0
1F00
ENDCHAR
STARTCHAR uni04DC
ENCODING -1
SWIDTH 600 0
DWIDTH 16 0
BBX 16 23 0 0
BITMAP
0630
0630
0630
0000
C183
6186
6186
318C
318C
1998
1D98
0DB0
0FB0
07F0
0DB0
0DB8
1998
199C
318C
318E
6186
6187
C183
ENDCHAR
STARTCHAR uni04DD
ENCODING -1
SWIDTH 600 0
DWIDTH 16 0
BBX 16 19 0 0
BITMAP
0630
0630
0630
0000
0000
C183
6186
318C
398C
1998
0DB0
07F0
0FB0
0DB8
1998
398C
318E
6186
E187
ENDCHAR
STARTCHAR uni04DE
ENCODING -1
SWIDTH 600 0
DWIDTH 16 0
BBX 12 23 2 0
BITMAP
18C0
18C0
18C0
0000
1F80
7FE0
60F0
0070
0070
0070
0060
01E0
3F80
3FC0
01E0
0070
0070
0070
0070
0070
C0E0
FFC0
7F00
ENDCHAR
STARTCHAR uni04DF
ENCODING -1
SWIDTH 600 0
DWIDTH 16 0
BBX 10 19 3 0
BITMAP
3180
3180
3180
0000
0000
7F00
FF80
41C0
00C0
00C0
0180
3F00
3F80
01C0
00C0
00C0
81C0
FF80
7E00
ENDCHAR
STARTCHAR uni04E0
ENCODING -1
SWIDTH 600 0
DWIDTH 16 0
BBX 12 19 2 0
BITMAP
7FE0
7FE0
00C0
01C0
0380
0700
0E00
0C00
1F00
1FC0
00E0
0070
0070
0030
0070
0070
C0E0
FFC0
7F00
ENDCHAR
STARTCHAR uni04E1
ENCODING -1
SWIDTH 600 0
DWIDTH 16 0
BBX 12 20 2 -6
BITMAP
FFE0
FFE0
00C0
01C0
0380
0700
0600
0C00
1E00
1FC0
01E0
0070
0070
0030
0030
0070
0060
80E0
FFC0
7F00
ENDCHAR
STARTCHAR uni04E2
ENCODING -1
SWIDTH 600 0
DWIDTH 16 0
BBX 13 22 2 0
BITMAP
1FE0
1FE0
0000
C038
C078
C078
C0F8
C0D8
C1D8
C198
C398
C318
C718
C618
CE18
CC18
DC18
D818
F818
F018
E018
E018
ENDCHAR
STARTCHAR uni04E3
ENCODING -1
SWIDTH 600 0
DWIDTH 16 0
BBX 12 18 2 0
BITMAP
3FC0
3FC0
0000
0000
C070
C0F0
C1F0
C1B0
C3B0
C330
C630
C630
CC30
DC30
D830
F830
F030
E030
ENDCHAR
STARTCHAR uni04E4
ENCODING -1
SWIDTH 600 0
DWIDTH 16 0
BBX 13 23 2 0
BITMAP
18C0
18C0
18C0
0000
C038
C078
C078
C0F8
C0D8
C1D8
C198
C398
C318
C718
C618
CE18
CC18
DC18
D818
F818
F018
E018
E018
ENDCHAR
STARTCHAR uni04E5
ENCODING -1
SWIDTH 600 0
DWIDTH 16 0
BBX 12 19 2 0
BITMAP
18C0
18C0
18C0
0000
0000
C070
C0F0
C1F0
C1B0
C3B0
C330
C630
C630
CC30
DC30
D830
F830
F030
E030
ENDCHAR
STARTCHAR uni04E6
ENCODING -1
SWIDTH 600 0
DWIDTH 16 0
BBX 14 23 1 0
BITMAP
0C60
0C60
0C60
0000
0FC0
1FE0
3870
7038
6018
E01C
E01C
E01C
E01C
E01C
E01C
E01C
E01C
E01C
6018
7038
3870
1FE0
0FC0
ENDCHAR
STARTCHAR uni04E7
ENCODING -1
SWIDTH 600 0
DWIDTH 16 0
BBX 14 19 1 0
BITMAP
0C60
0C60
0C60
0000
0000
0FC0
3FF0
7038
6018
E01C
C01C
C00C
C00C
E01C
E01C
6018
7038
3FF0
0FC0
ENDCHAR
STARTCHAR uni04E8
ENCODING -1
SWIDTH 600 0
DWIDTH 16 0
BBX 14 19 1 0
BITMAP
0FC0
1FE0
3870
7038
6018
E01C
E01C
E01C
FFFC
FFFC
E01C
E01C
E01C
E01C
6018
7038
3870
1FE0
0FC0
ENDCHAR
STARTCHAR uni04E9
ENCODING -1
SWIDTH 600 0
DWIDTH 16 0
BBX 14 14 1 0
BITMAP
0FC0
3FF0
7078
6018
E01C
C01C
FFFC
FFFC
C00C
E01C
6018
7038
3FF0
0FC0
ENDCHAR
STARTCHAR uni04EA
ENCODING -1
SWIDTH 600 0
DWIDTH 16 0
BBX 14 23 1 0
BITMAP
0C60
0C60
0C60
0000
0FC0
1FE0
3870
7038
6018
E01C
E01C
E01C
FFFC
FFFC
E01C
E01C
E01C
E01C
6018
7038
3870
1FE0
0FC0
ENDCHAR
STARTCHAR uni04EB
ENCODING -1
SWIDTH 600 0
DWIDTH 16 0
BBX 14 19 1 0
BITMAP
0C60
0C60
0C60
0000
0000
0FC0
3FF0
7078
6018
E01C
C01C
FFFC
FFFC
C00C
E01C
6018
7038
3FF0
0FC0
ENDCHAR
STARTCHAR uni04EC
ENCODING -1
SWIDTH 600 0
DWIDTH 16 0
BBX 13 23 1 0
BITMAP
3180
3180
3180
0000
7F00
FFC0
C1E0
00F0
0070
0030
0038
0038
3FF8
3FF8
0038
0038
0038
0030
0070
0060
81E0
FFC0
7F00
ENDCHAR
STARTCHAR uni04ED
ENCODING -1
SWIDTH 600 0
DWIDTH 16 0
BBX 12 19 2 0
BITMAP
3180
3180
3180
0000
0000
7F00
FFC0
41E0
0060
0070
0030
3FF0
3FF0
0030
0070
0060
81E0
FFC0
7F00
ENDCHAR
STARTCHAR uni04EE
ENCODING -1
SWIDTH 600 0
DWIDTH 16 0
BBX 16 22 0 0
BITMAP
0FF0
0FF0
0000
E007
6006
700E
300C
380C
181C
1C18
0C38
0E30
0770
0760
0360
01C0
01C0
0180
0380
4700
7E00
7C00
ENDCHAR
STARTCHAR uni04EF
ENCODING -1
SWIDTH 600 0
DWIDTH 16 0
BBX 14 24 1 -6
BITMAP
1FE0
1FE0
0000
0000
E01C
6018
6018
7038
3030
3870
1860
1C60
0CE0
0CC0
0FC0
0780
0780
0380
0300
0700
0600
0E00
FC00
F800
ENDCHAR
STARTCHAR uni04F0
ENCODING -1
SWIDTH 600 0
DWIDTH 16 0
BBX 16 23 0 0
BITMAP
0630
0630
0630
0000
E007
6006
700E
300C
380C
181C
1C18
0C38
0E30
0770
0760
0360
01C0
01C0
0180
0380
4700
7E00
7C00
ENDCHAR
STARTCHAR uni04F1
ENCODING -1
SWIDTH 600 0
DWIDTH 16 0
BBX 14 25 1 -6
BITMAP
0C60
0C60
0C60
0000
0000
E01C
6018
6018
7038
3030
3870
1860
1C60
0CE0
0CC0
0FC0
0780
0780
0380
0300
0700
0600
0E00
FC00
F800
ENDCHAR
STARTCHAR uni04F2
ENCODING -1
SWIDTH 600 0
DWIDTH 16 0
BBX 16 24 0 0
BITMAP
039C
0738
0630
0C60
0000
E007
6006
700E
300C
380C
181C
1C18
0C38
0E30
0770
0760
0360
01C0
01C0
0180
0380
4700
7E00
7C00
ENDCHAR
STARTCHAR uni04F3
ENCODING -1
SWIDTH 600 0
DWIDTH 16 0
BBX 14 26 1 -6
BITMAP
0738
0E70
0C60
18C0
0000
0000
E01C
6018
6018
7038
3030
3870
1860
1C60
0CE0
0CC0
0FC0
0780
0780
0380
0300
0700
0600
0E00
FC00
F800
ENDCHAR
STARTCHAR uni04F4
ENCODING -1
SWIDTH 600 0
DWIDTH 16 0
BBX 12 23 2 0
BITMAP
18C0
18C0
18C0
0000
C030
C030
C030
C030
C030
C030
C030
C030
E030
E0F0
7FF0
3F30
0030
0030
0030
0030
0030
0030
0030
ENDCHAR
STARTCHAR uni04F5
ENCODING -1
SWIDTH 600 0
DWIDTH 16 0
BBX 12 19 2 0
BITMAP
18C0
18C0
18C0
0000
0000
C030
C030
C030
C030
C030
C030
E0F0
7FF0
3E30
0030
0030
0030
0030
0030
ENDCHAR
STARTCHAR uni04F6
ENCODING -1
SWIDTH 600 0
DWIDTH 16 0
BBX 11 24 4 -5
BITMAP
FFE0
FFE0
C000
C000
C000
C000
C000
C000
C000
C000
C000
C000
C000
C000
C000
C000
C000
F000
F000
3000
3000
3000
3000
3000
ENDCHAR
STARTCHAR uni04F7
ENCODING -1
SWIDTH 600 0
DWIDTH 16 0
BBX 10 19 4 -5
BITMAP
FFC0
FFC0
C000
C000
C000
C000
C000
C000
C000
C000
C000
C000
F000
F000
3000
3000
3000
3000
3000
ENDCHAR
STARTCHAR uni04F8
ENCODING -1
SWIDTH 600 0
DWIDTH 16 0
BBX 14 23 1 0
BITMAP
0C60
0C60
0C60
0000
C00C
C00C
C00C
C00C
C00C
C00C
C00C
C00C
FE0C
FF0C
C38C
C1CC
C0CC
C0CC
C0CC
C1CC
C38C
FF0C
FC0C
ENDCHAR
STARTCHAR uni04F9
ENCODING -1
SWIDTH 600 0
DWIDTH 16 0
BBX 14 19 1 0
BITMAP
0C60
0C60
0C60
0000
0000
C00C
C00C
C00C
C00C
C00C
C00C
FF0C
FF8C
C1CC
C0CC
C0CC
C1CC
FF8C
FF0C
ENDCHAR
STARTCHAR uni04FA
ENCODING -1
SWIDTH 600 0
DWIDTH 16 0
BBX 13 24 2 -5
BITMAP
3FF8
3FF8
3000
3000
3000
3000
3000
3000
3000
FF80
FF80
3000
3000
3000
3000
3000
3000
3C00
3C00
0C00
0C00
0C00
7C00
7800
ENDCHAR
STARTCHAR uni04FB
ENCODING -1
SWIDTH 600 0
DWIDTH 16 0
BBX 12 19 2 -5
BITMAP
3FF0
3FF0
3000
3000
3000
3000
FF00
FF00
3000
3000
3000
3000
3C00
3C00
0C00
0C00
0C00
7C00
7800
ENDCHAR
STARTCHAR uni04FC
ENCODING -1
SWIDTH 600 0
DWIDTH 16 0
BBX 15 24 1 -5
BITMAP
E01C
6018
7038
3870
1860
1CE0
0CC0
0F80
0780
0300
0780
0FC0
0CC0
1CE0
1860
3070
7038
603E
E01E
0006
0006
0006
003E
003C
ENDCHAR
STARTCHAR uni04FD
ENCODING -1
SWIDTH 600 0
DWIDTH 16 0
BBX 14 19 1 -5
BITMAP
6018
7038
3870
1CE0
0CC0
0780
0780
0780
0FC0
0CC0
1860
3870
703C
E01C
000C
000C
000C
007C
0078
ENDCHAR
STARTCHAR uni04FE
ENCODING -1
SWIDTH 600 0
DWIDTH 16 0
BBX 14 19 1 0
BITMAP
E01C
6018
7038
3830
1860
1CE0
0CC0
0780
7FF8
7FF8
0780
0FC0
0CC0
18E0
3870
3030
7038
6018
C01C
ENDCHAR
STARTCHAR uni04FF
ENCODING -1
SWIDTH 600 0
DWIDTH 16 0
BBX 13 14 1 0
BITMAP
E038
7070
3060
18C0
1DC0
0F80
7FF0
7FF0
0D80
1DC0
18C0
3060
7070
E038
ENDCHAR
STARTCHAR uni0500
ENCODING -1
SWIDTH 600 0
DWIDTH 16 0
BBX 11 19 2 0
BITMAP
0060
0060
0060
0060
0060
0060
0060
0060
1FE0
3FE0
7060
E060
E060
E060
E060
E060
7060
3FE0
1FE0
ENDCHAR
STARTCHAR uni0501
ENCODING -1
SWIDTH 600 0
DWIDTH 16 0
BBX 12 20 2 0
BITMAP
0030
0030
0030
0030
0030
0030
1F30
3FB0
70F0
6070
E070
C030
C030
C030
C030
E070
6070
70F0
3FB0
1F30
ENDCHAR
STARTCHAR uni0502
ENCODING -1
SWIDTH 600 0
DWIDTH 16 0
BBX 14 19 1 0
BITMAP
0300
0300
0300
0300
0300
0300
0300
0300
1F0C
7F0C
630C
E30C
C30C
C30C
E30C
E30C
E79C
7FF8
3CF0
ENDCHAR
STARTCHAR uni0503
ENCODING -1
SWIDTH 600 0
DWIDTH 16 0
BBX 14 20 1 0
BITMAP
0300
0300
0300
0300
0300
0300
3B00
7F00
6700
E300
C300
C30C
C30C
C30C
C30C
C30C
E30C
679C
7DF8
38F0
ENDCHAR
STARTCHAR uni0504
ENCODING -1
SWIDTH 600 0
DWIDTH 16 0
BBX 14 19 0 0
BITMAP
3C00
FE00
4700
0300
0300
0300
0300
0600
3C0C
3E0C
070C
030C
030C
030C
030C
030C
039C
01F8
00F0
ENDCHAR
STARTCHAR uni0505
ENCODING -1
SWIDTH 600 0
DWIDTH 16 0
BBX 14 14 1 0
BITMAP
7E00
FF00
0300
0300
0300
070C
3C0C
3E0C
030C
030C
038C
039C
01F8
00F0
ENDCHAR
STARTCHAR uni0506
ENCODING -1
SWIDTH 600 0
DWIDTH 16 0
BBX 13 24 1 -5
BITMAP
3F00
7F80
E3C0
01C0
01C0
01C0
0180
0380
3C00
3F00
01C0
00C0
0060
0060
0060
0060
0060
0078
0078
0018
0018
0018
0018
0018
ENDCHAR
STARTCHAR uni0507
ENCODING -1
SWIDTH 600 0
DWIDTH 16 0
BBX 14 19 1 -5
BITMAP
7F80
FFE0
4070
0030
0030
0060
3FC0
3FE0
0070
0030
0030
0030
003C
003C
000C
000C
000C
000C
000C
ENDCHAR
STARTCHAR uni0508
ENCODING -1
SWIDTH 600 0
DWIDTH 16 0
BBX 15 19 0 0
BITMAP
1F80
1F80
1980
1980
1980
1980
3980
3980
3186
3186
3186
3186
3186
3186
3186
3186
71CE
E0FC
E078
ENDCHAR
STARTCHAR uni0509
ENCODING -1
SWIDTH 600 0
DWIDTH 16 0
BBX 15 14 0 0
BITMAP
1F80
1F80
1980
1980
1980
1986
3986
3986
3186
3186
3186
71CE
E0FC
E078
ENDCHAR
STARTCHAR uni050A
ENCODING -1
SWIDTH 600 0
DWIDTH 16 0
BBX 13 19 2 0
BITMAP
C300
C300
C300
C300
C300
C300
C300
C300
FF18
FF18
C318
C318
C318
C318
C318
C318
C3B8
C1F0
C0E0
ENDCHAR
STARTCHAR uni050B
ENCODING -1
SWIDTH 600 0
DWIDTH 16 0
BBX 13 14 2 0
BITMAP
C300
C300
C300
C300
C300
C318
FF18
FF18
C318
C318
C318
C338
C1F0
C1E0
ENDCHAR
STARTCHAR uni050C
ENCODING -1
SWIDTH 600 0
DWIDTH 16 0
BBX 14 19 1 0
BITMAP
07E0
1FF8
3C30
7000
7000
6000
E000
E000
E000
E0FC
E0FC
E00C
E00C
601C
701C
7018
3C38
1FF0
07E0
ENDCHAR
STARTCHAR uni050D
ENCODING -1
SWIDTH 600 0
DWIDTH 16 0
BBX 14 14 1 0
BITMAP
0FF0
3FF8
7800
7000
E000
E000
C000
C1FC
E1FC
E00C
601C
7838
3FF0
0FE0
ENDCHAR
STARTCHAR uni050E
ENCODING -1
SWIDTH 600 0
DWIDTH 16 0
BBX 14 19 1 0
BITMAP
FFF8
FFF8
0600
0600
0600
0600
0600
0600
060C
060C
060C
060C
060C
060C
060C
071C
071C
03F8
01F0
ENDCHAR
STARTCHAR uni050F
ENCODING -1
SWIDTH 600 0
DWIDTH 16 0
BBX 14 14 1 0
BITMAP
FFC0
FFC0
0C00
0C00
0C00
0C0C
0C0C
0C0C
0C0C
0C0C
0E1C
0E1C
07F8
03F0
ENDCHAR
STARTCHAR uni0510
ENCODING -1
SWIDTH 600 0
DWIDTH 16 0
BBX 12 19 2 0
BITMAP
0FC0
3FE0
7870
7000
6000
6000
7000
3800
0FC0
1FC0
3000
6000
E000
E000
E000
E000
7030
3FF0
0FE0
ENDCHAR
STARTCHAR uni0511
ENCODING -1
SWIDTH 600 0
DWIDTH 16 0
BBX 10 14 3 0
BITMAP
3F80
7FC0
E080
C000
C000
6000
3F00
3F00
E000
C000
C000
E040
7FC0
3F80
ENDCHAR
STARTCHAR uni0512
ENCODING -1
SWIDTH 600 0
DWIDTH 16 0
BBX 14 19 0 0
BITMAP
03FC
03FC
030C
070C
070C
070C
070C
070C
060C
060C
0E0C
0E0C
0E0C
0E0C
0C0C
1C0C
1C0C
F80C
F00C
ENDCHAR
STARTCHAR uni0513
ENCODING -1
SWIDTH 600 0
DWIDTH 16 0
BBX 14 14 0 0
BITMAP
07FC
07FC
060C
060C
060C
0E0C
0C0C
0C0C
0C0C
1C0C
180C
380C
F00C
E00C
ENDCHAR
STARTCHAR uni1EA0
ENCODING -1
SWIDTH 600 0
DWIDTH 16 0
BBX 16 24 0 -5
BITMAP
0180
03C0
03C0
03E0
0660
0660
0E70
0C30
0C30
1C38
1818
1FF8
3FFC
300C
300C
700E
6006
6006
E007
0000
0000
01C0
01C0
01C0
ENDCHAR
STARTCHAR uni1EA1
ENCODING -1
SWIDTH 600 0
DWIDTH 16 0
BBX 11 19 2 -5
BITMAP
1F80
7FC0
20E0
00E0
0060
0060
1FE0
7FE0
E060
C060
C0E0
E1E0
7F60
3E60
0000
0000
0E00
0E00
0E00
ENDCHAR
STARTCHAR uni1EA2
ENCODING -1
SWIDTH 600 0
DWIDTH 16 0
BBX 16 26 0 0
BITMAP
03C0
00E0
0060
0060
01C0
0180
0000
0180
03C0
03C0
03E0
0660
0660
0E70
0C30
0C30
1C38
1818
1FF8
3FFC
300C
300C
700E
6006
6006
E007
ENDCHAR
STARTCHAR uni1EA3
ENCODING -1
SWIDTH 600 0
DWIDTH 16 0
BBX 11 22 2 0
BITMAP
0F00
0380
0180
0180
0700
0600
0000
0000
1F80
7FC0
20E0
00E0
0060
0060
1FE0
7FE0
E060
C060
C0E0
E1E0
7F60
3E60
ENDCHAR
STARTCHAR uni1EA4
ENCODING -1
SWIDTH 600 0
DWIDTH 16 0
BBX 16 25 0 0
BITMAP
0006
03CC
03D8
0660
0C30
0000
0180
03C0
03C0
03E0
0660
0660
0E70
0C30
0C30
1C38
1818
1FF8
3FFC
300C
300C
700E
6006
6006
E007
ENDCHAR
STARTCHAR uni1EA5
ENCODING -1
SWIDTH 600 0
DWIDTH 16 0
BBX 13 21 2 0
BITMAP
0018
0F30
0F60
1980
30C0
0000
0000
1F80
7FC0
20E0
00E0
0060
0060
1FE0
7FE0
E060
C060
C0E0
E1E0
7F60
3E60
ENDCHAR
STARTCHAR uni1EA6
ENCODING -1
SWIDTH 600 0
DWIDTH 16 0
BBX 16 25 0 0
BITMAP
6000
33C0
1BC0
0660
0C30
0000
0180
03C0
03C0
03E0
0660
0660
0E70
0C30
0C30
1C38
1818
1FF8
3FFC
300C
300C
700E
6006
6006
E007
ENDCHAR
STARTCHAR uni1EA7
ENCODING -1
SWIDTH 600 0
DWIDTH 16 0
BBX 12 21 1 0
BITMAP
C000
6780
3780
0CC0
1860
0000
0000
0FC0
3FE0
1070
0070
0030
0030
0FF0
3FF0
7030
6030
6070
70F0
3FB0
1F30
ENDCHAR
STARTCHAR uni1EA8
ENCODING -1
SWIDTH 600 0
DWIDTH 16 0
BBX 16 26 0 0
BITMAP
001C
0002
03C6
03CC
0660
0C30
0000
0180
03C0
03C0
03E0
0660
0660
0E70
0C30
0C30
1C38
1818
1FF8
3FFC
300C
300C
700E
6006
6006
E007
ENDCHAR
STARTCHAR uni1EA9
ENCODING -1
SWIDTH 600 0
DWIDTH 16 0
BBX 13 22 2 0
BITMAP
0070
0008
0F18
0F30
1980
30C0
0000
0000
1F80
7FC0
20E0
00E0
0060
0060
1FE0
7FE0
E060
C060
C0E0
E1E0
7F60
3E60
ENDCHAR
STARTCHAR uni1EAA
ENCODING -1
SWIDTH 600 0
DWIDTH 16 0
BBX 16 28 0 0
BITMAP
0710
0FF0
08E0
0000
03C0
03C0
0660
0C30
0000
0180
03C0
03C0
03E0
0660
0660
0E70
0C30
0C30
1C38
1818
1FF8
3FFC
300C
300C
700E
6006
6006
E007
ENDCHAR
STARTCHAR uni1EAB
ENCODING -1
SWIDTH 600 0
DWIDTH 16 0
BBX 11 24 2 0
BITMAP
1C40
3FC0
2380
0000
0F00
0F00
1980
30C0
0000
0000
1F80
7FC0
20E0
00E0
0060
0060
1FE0
7FE0
E060
C060
C0E0
E1E0
7F60
3E60
ENDCHAR
STARTCHAR uni1EAC
ENCODING -1
SWIDTH 600 0
DWIDTH 16 0
BBX 16 29 0 -5
BITMAP
01C0
03E0
0760
0C30
0000
0180
03C0
03C0
03E0
0660
0660
0E70
0C30
0C30
1C38
1818
1FF8
3FFC
300C
300C
700E
6006
6006
E007
0000
0000
01C0
01C0
01C0
ENDCHAR
STARTCHAR uni1EAD
ENCODING -1
SWIDTH 600 0
DWIDTH 16 0
BBX 11 25 2 -5
BITMAP
0700
0F80
1D80
30C0
0000
0000
1F80
7FC0
20E0
00E0
0060
0060
1FE0
7FE0
E060
C060
C0E0
E1E0
7F60
3E60
0000
0000
0E00
0E00
0E00
ENDCHAR
STARTCHAR uni1EAE
ENCODING -1
SWIDTH 600 0
DWIDTH 16 0
BBX 16 27 0 0
BITMAP
00E0
00C0
0180
0C10
0C30
07E0
03C0
0000
0180
03C0
03C0
03E0
0660
0660
0E70
0C30
0C30
1C38
1818
1FF8
3FFC
300C
300C
700E
6006
6006
E007
ENDCHAR
STARTCHAR uni1EAF
ENCODING -1
SWIDTH 600 0
DWIDTH 16 0
BBX 11 23 2 0
BITMAP
0380
0300
0600
3040
30C0
1F80
0F00
0000
0000
1F80
7FC0
20E0
00E0
0060
0060
1FE0
7FE0
E060
C060
C0E0
E1E0
7F60
3E60
ENDCHAR
STARTCHAR uni1EB0
ENCODING -1
SWIDTH 600 0
DWIDTH 16 0
BBX 16 27 0 0
BITMAP
0700
0300
0180
0C10
0C30
07E0
03C0
0000
0180
03C0
03C0
03E0
0660
0660
0E70
0C30
0C30
1C38
1818
1FF8
3FFC
300C
300C
700E
6006
6006
E007
ENDCHAR
STARTCHAR uni1EB1
ENCODING -1
SWIDTH 600 0
DWIDTH 16 0
BBX 11 23 2 0
BITMAP
1C00
0C00
0600
3040
30C0
1F80
0F00
0000
0000
1F80
7FC0
20E0
00E0
0060
0060
1FE0
7FE0
E060
C060
C0E0
E1E0
7F60
3E60
ENDCHAR
STARTCHAR uni1EB2
ENCODING -1
SWIDTH 600 0
DWIDTH 16 0
BBX 16 27 0 0
BITMAP
0380
00C0
00C0
0910
0C30
07E0
03C0
0000
0180
03C0
03C0
03E0
0660
0660
0E70
0C30
0C30
1C38
1818
1FF8
3FFC
300C
300C
700E
6006
6006
E007
ENDCHAR
STARTCHAR uni1EB3
ENCODING -1
SWIDTH 600 0
DWIDTH 16 0
BBX 11 23 2 0
BITMAP
0E00
0300
0300
2440
30C0
1F80
0F00
0000
0000
1F80
7FC0
20E0
00E0
0060
0060
1FE0
7FE0
E060
C060
C0E0
E1E0
7F60
3E60
ENDCHAR
STARTCHAR uni1EB4
ENCODING -1
SWIDTH 600 0
DWIDTH 16 0
BBX 16 27 0 0
BITMAP
0730
0FF0
0CE0
0000
0C30
0FE0
07C0
0000
0180
03C0
03C0
03E0
0660
0660
0E70
0C30
0C30
1C38
1818
1FF8
3FFC
300C
300C
700E
6006
6006
E007
ENDCHAR
STARTCHAR uni1EB5
ENCODING -1
SWIDTH 600 0
DWIDTH 16 0
BBX 11 23 2 0
BITMAP
1CC0
3FC0
3380
0000
30C0
3F80
1F00
0000
0000
1F80
7FC0
20E0
00E0
0060
0060
1FE0
7FE0
E060
C060
C0E0
E1E0
7F60
3E60
ENDCHAR
STARTCHAR uni1EB6
ENCODING -1
SWIDTH 600 0
DWIDTH 16 0
BBX 16 29 0 -5
BITMAP
0810
0C30
07E0
03C0
0000
0180
03C0
03C0
03E0
0660
0660
0E70
0C30
0C30
1C38
1818
1FF8
3FFC
300C
300C
700E
6006
6006
E007
0000
0000
01C0
01C0
01C0
ENDCHAR
STARTCHAR uni1EB7
ENCODING -1
SWIDTH 600 0
DWIDTH 16 0
BBX 11 25 2 -5
BITMAP
2040
30C0
1F80
0F00
0000
0000
1F80
7FC0
20E0
00E0
0060
0060
1FE0
7FE0
E060
C060
C0E0
E1E0
7F60
3E60
0000
0000
0E00
0E00
0E00
ENDCHAR
STARTCHAR uni1EB8
ENCODING -1
SWIDTH 600 0
DWIDTH 16 0
BBX 11 24 3 -5
BITMAP
FFE0
FFE0
C000
C000
C000
C000
C000
C000
FFC0
FFC0
C000
C000
C000
C000
C000
C000
C000
FFE0
FFE0
0000
0000
0E00
0E00
0E00
ENDCHAR
STARTCHAR uni1EB9
ENCODING -1
SWIDTH 600 0
DWIDTH 16 0
BBX 12 19 2 -5
BITMAP
0F80
3FC0
70E0
6060
E070
C030
FFF0
FFF0
C000
E000
6000
7020
3FE0
0FC0
0000
0000
0700
0700
0700
ENDCHAR
STARTCHAR uni1EBA
ENCODING -1
SWIDTH 600 0
DWIDTH 16 0
BBX 11 26 3 0
BITMAP
1E00
0700
0300
0300
0E00
0C00
0000
FFE0
FFE0
C000
C000
C000
C000
C000
C000
FFC0
FFC0
C000
C000
C000
C000
C000
C000
C000
FFE0
FFE0
ENDCHAR
STARTCHAR uni1EBB
ENCODING -1
SWIDTH 600 0
DWIDTH 16 0
BBX 12 22 2 0
BITMAP
0F00
0380
0180
0180
0700
0600
0000
0000
0F80
3FC0
70E0
6060
E070
C030
FFF0
FFF0
C000
E000
6000
7020
3FE0
0FC0
ENDCHAR
STARTCHAR uni1EBC
ENCODING -1
SWIDTH 600 0
DWIDTH 16 0
BBX 11 24 3 0
BITMAP
3840
3CC0
6780
4380
0000
FFE0
FFE0
C000
C000
C000
C000
C000
C000
FFC0
FFC0
C000
C000
C000
C000
C000
C000
C000
FFE0
FFE0
ENDCHAR
STARTCHAR uni1EBD
ENCODING -1
SWIDTH 600 0
DWIDTH 16 0
BBX 12 20 2 0
BITMAP
1C20
1E60
33C0
21C0
0000
0000
0F80
3FC0
70E0
6060
E070
C030
FFF0
FFF0
C000
E000
6000
7020
3FE0
0FC0
ENDCHAR
STARTCHAR uni1EBE
ENCODING -1
SWIDTH 600 0
DWIDTH 16 0
BBX 13 25 3 0
BITMAP
0018
0F30
0F60
1980
30C0
0000
FFE0
FFE0
C000
C000
C000
C000
C000
C000
FFC0
FFC0
C000
C000
C000
C000
C000
C000
C000
FFE0
FFE0
ENDCHAR
STARTCHAR uni1EBF
ENCODING -1
SWIDTH 600 0
DWIDTH 16 0
BBX 13 21 2 0
BITMAP
0018
0F30
0F60
1980
30C0
0000
0000
0F80
3FC0
70E0
6060
E070
C030
FFF0
FFF0
C000
E000
6000
7020
3FE0
0FC0
ENDCHAR
STARTCHAR uni1EC0
ENCODING -1
SWIDTH 600 0
DWIDTH 16 0
BBX 12 25 2 0
BITMAP
C000
6780
3780
0CC0
1860
0000
7FF0
7FF0
6000
6000
6000
6000
6000
6000
7FE0
7FE0
6000
6000
6000
6000
6000
6000
6000
7FF0
7FF0
ENDCHAR
STARTCHAR uni1EC1
ENCODING -1
SWIDTH 600 0
DWIDTH 16 0
BBX 13 21 1 0
BITMAP
C000
6780
3780
0CC0
1860
0000
0000
07C0
1FE0
3870
3030
7038
6018
7FF8
7FF8
6000
7000
3000
3810
1FF0
07E0
ENDCHAR
STARTCHAR uni1EC2
ENCODING -1
SWIDTH 600 0
DWIDTH 16 0
BBX 12 26 3 0
BITMAP
00E0
0010
1E30
1E60
3300
6180
0000
FFE0
FFE0
C000
C000
C000
C000
C000
C000
FFC0
FFC0
C000
C000
C000
C000
C000
C000
C000
FFE0
FFE0
ENDCHAR
STARTCHAR uni1EC3
ENCODING -1
SWIDTH 600 0
DWIDTH 16 0
BBX 13 22 2 0
BITMAP
0070
0008
0F18
0F30
1980
30C0
0000
0000
0F80
3FC0
70E0
6060
E070
C030
FFF0
FFF0
C000
E000
6000
7020
3FE0
0FC0
ENDCHAR
STARTCHAR uni1EC4
ENCODING -1
SWIDTH 600 0
DWIDTH 16 0
BBX 11 28 3 0
BITMAP
1C40
3FC0
2380
0000
0F00
0F00
1980
30C0
0000
FFE0
FFE0
C000
C000
C000
C000
C000
C000
FFC0
FFC0
C000
C000
C000
C000
C000
C000
C000
FFE0
FFE0
ENDCHAR
STARTCHAR uni1EC5
ENCODING -1
SWIDTH 600 0
DWIDTH 16 0
BBX 12 24 2 0
BITMAP
1C40
3FC0
2380
0000
0F00
0F00
1980
30C0
0000
0000
0F80
3FC0
70E0
6060
E070
C030
FFF0
FFF0
C000
E000
6000
7020
3FE0
0FC0
ENDCHAR
STARTCHAR uni1EC6
ENCODING -1
SWIDTH 600 0
DWIDTH 16 0
BBX 11 29 3 -5
BITMAP
0700
0F80
1D80
30C0
0000
FFE0
FFE0
C000
C000
C000
C000
C000
C000
FFC0
FFC0
C000
C000
C000
C000
C000
C000
C000
FFE0
FFE0
0000
0000
0E00
0E00
0E00
ENDCHAR
STARTCHAR uni1EC7
ENCODING -1
SWIDTH 600 0
DWIDTH 16 0
BBX 12 25 2 -5
BITMAP
0700
0F80
1D80
30C0
0000
0000
0F80
3FC0
70E0
6060
E070
C030
FFF0
FFF0
C000
E000
6000
7020
3FE0
0FC0
0000
0000
0700
0700
0700
ENDCHAR
STARTCHAR uni1EC8
ENCODING -1
SWIDTH 600 0
DWIDTH 16 0
BBX 10 26 3 0
BITMAP
1E00
0700
0300
0300
0E00
0C00
0000
FFC0
FFC0
0C00
0C00
0C00
0C00
0C00
0C00
0C00
0C00
0C00
0C00
0C00
0C00
0C00
0C00
0C00
FFC0
FFC0
ENDCHAR
STARTCHAR uni1EC9
ENCODING -1
SWIDTH 600 0
DWIDTH 16 0
BBX 11 22 3 0
BITMAP
1E00
0700
0300
0300
0E00
0C00
0000
0000
7C00
7C00
0C00
0C00
0C00
0C00
0C00
0C00
0C00
0C00
0C00
0C00
FFE0
FFE0
ENDCHAR
STARTCHAR uni1ECA
ENCODING -1
SWIDTH 600 0
DWIDTH 16 0
BBX 10 24 3 -5
BITMAP
FFC0
FFC0
0C00
0C00
0C00
0C00
0C00
0C00
0C00
0C00
0C00
0C00
0C00
0C00
0C00
0C00
0C00
FFC0
FFC0
0000
0000
0E00
0E00
0E00
ENDCHAR
STARTCHAR uni1ECB
ENCODING -1
SWIDTH 600 0
DWIDTH 16 0
BBX 11 25 3 -5
BITMAP
0C00
0E00
0C00
0000
0000
0000
7C00
7C00
0C00
0C00
0C00
0C00
0C00
0C00
0C00
0C00
0C00
0C00
FFE0
FFE0
0000
0000
0E00
0E00
0E00
ENDCHAR
STARTCHAR uni1ECC
ENCODING -1
SWIDTH 600 0
DWIDTH 16 0
BBX 14 24 1 -5
BITMAP
0FC0
1FE0
3870
7038
6018
E01C
E01C
E01C
E01C
E01C
E01C
E01C
E01C
E01C
6018
7038
3870
1FE0
0FC0
0000
0000
0380
0380
0380
ENDCHAR
STARTCHAR uni1ECD
ENCODING -1
SWIDTH 600 0
DWIDTH 16 0
BBX 14 19 1 -5
BITMAP
0FC0
3FF0
7038
6018
E01C
C01C
C00C
C00C
E01C
E01C
6018
7038
3FF0
0FC0
0000
0000
0380
0380
0380
ENDCHAR
STARTCHAR uni1ECE
ENCODING -1
SWIDTH 600 0
DWIDTH 16 0
BBX 14 26 1 0
BITMAP
0780
01C0
00C0
00C0
0380
0300
0000
0FC0
1FE0
3870
7038
6018
E01C
E01C
E01C
E01C
E01C
E01C
E01C
E01C
E01C
6018
7038
3870
1FE0
0FC0
ENDCHAR
STARTCHAR uni1ECF
ENCODING -1
SWIDTH 600 0
DWIDTH 16 0
BBX 14 22 1 0
BITMAP
0780
01C0
00C0
00C0
0380
0300
0000
0000
0FC0
3FF0
7038
6018
E01C
C01C
C00C
C00C
E01C
E01C
6018
7038
3FF0
0FC0
ENDCHAR
STARTCHAR uni1ED0
ENCODING -1
SWIDTH 600 0
DWIDTH 16 0
BBX 14 25 1 0
BITMAP
000C
0798
07B0
0CC0
1860
0000
0FC0
1FE0
3870
7038
6018
E01C
E01C
E01C
E01C
E01C
E01C
E01C
E01C
E01C
6018
7038
3870
1FE0
0FC0
ENDCHAR
STARTCHAR uni1ED1
ENCODING -1
SWIDTH 600 0
DWIDTH 16 0
BBX 14 21 1 0
BITMAP
000C
0798
07B0
0CC0
1860
0000
0000
0FC0
3FF0
7038
6018
E01C
C01C
C00C
C00C
E01C
E01C
6018
7038
3FF0
0FC0
ENDCHAR
STARTCHAR uni1ED2
ENCODING -1
SWIDTH 600 0
DWIDTH 16 0
BBX 14 25 1 0
BITMAP
C000
6780
3780
0CC0
1860
0000
0FC0
1FE0
3870
7038
6018
E01C
E01C
E01C
E01C
E01C
E01C
E01C
E01C
E01C
6018
7038
3870
1FE0
0FC0
ENDCHAR
STARTCHAR uni1ED3
ENCODING -1
SWIDTH 600 0
DWIDTH 16 0
BBX 14 21 1 0
BITMAP
C000
6780
3780
0CC0
1860
0000
0000
0FC0
3FF0
7038
6018
E01C
C01C
C00C
C00C
E01C
E01C
6018
7038
3FF0
0FC0
ENDCHAR
STARTCHAR uni1ED4
ENCODING -1
SWIDTH 600 0
DWIDTH 16 0
BBX 14 26 1 0
BITMAP
0038
0004
078C
0798
0CC0
1860
0000
0FC0
1FE0
3870
7038
6018
E01C
E01C
E01C
E01C
E01C
E01C
E01C
E01C
E01C
6018
7038
3870
1FE0
0FC0
ENDCHAR
STARTCHAR uni1ED5
ENCODING -1
SWIDTH 600 0
DWIDTH 16 0
BBX 14 22 1 0
BITMAP
0038
0004
078C
0798
0CC0
1860
0000
0000
0FC0
3FF0
7038
6018
E01C
C01C
C00C
C00C
E01C
E01C
6018
7038
3FF0
0FC0
ENDCHAR
STARTCHAR uni1ED6
ENCODING -1
SWIDTH 600 0
DWIDTH 16 0
BBX 14 28 1 0
BITMAP
0E20
1FE0
11C0
0000
0780
0780
0CC0
1860
0000
0FC0
1FE0
3870
7038
6018
E01C
E01C
E01C
E01C
E01C
E01C
E01C
E01C
E01C
6018
7038
3870
1FE0
0FC0
ENDCHAR
STARTCHAR uni1ED7
ENCODING -1
SWIDTH 600 0
DWIDTH 16 0
BBX 14 24 1 0
BITMAP
0E20
1FE0
11C0
0000
0780
0780
0CC0
1860
0000
0000
0FC0
3FF0
7038
6018
E01C
C01C
C00C
C00C
E01C
E01C
6018
7038
3FF0
0FC0
ENDCHAR
STARTCHAR uni1ED8
ENCODING -1
SWIDTH 600 0
DWIDTH 16 0
BBX 14 29 1 -5
BITMAP
0380
07C0
0EC0
1860
0000
0FC0
1FE0
3870
7038
6018
E01C
E01C
E01C
E01C
E01C
E01C
E01C
E01C
E01C
6018
7038
3870
1FE0
0FC0
0000
0000
0380
0380
0380
ENDCHAR
STARTCHAR uni1ED9
ENCODING -1
SWIDTH 600 0
DWIDTH 16 0
BBX 14 25 1 -5
BITMAP
0380
07C0
0EC0
1860
0000
0000
0FC0
3FF0
7038
6018
E01C
C01C
C00C
C00C
E01C
E01C
6018
7038
3FF0
0FC0
0000
0000
0380
0380
0380
ENDCHAR
STARTCHAR uni1EDA
ENCODING -1
SWIDTH 600 0
DWIDTH 16 0
BBX 16 24 1 0
BITMAP
00E0
01C0
0180
0300
0007
0FC7
1FE6
387C
7038
6018
E01C
E01C
E01C
E01C
E01C
E01C
E01C
E01C
E01C
6018
7038
3870
1FE0
0FC0
ENDCHAR
STARTCHAR uni1EDB
ENCODING -1
SWIDTH 600 0
DWIDTH 16 0
BBX 16 20 1 0
BITMAP
00E0
01C0
0180
0300
0007
0007
0FC6
3FFE
703C
6018
E01C
C01C
C00C
C00C
C01C
E01C
6018
7038
3FF0
0FC0
ENDCHAR
STARTCHAR uni1EDC
ENCODING -1
SWIDTH 600 0
DWIDTH 16 0
BBX 16 24 1 0
BITMAP
0E00
0700
0300
0180
0007
0FC7
1FE6
387C
7038
6018
E01C
E01C
E01C
E01C
E01C
E01C
E01C
E01C
E01C
6018
7038
3870
1FE0
0FC0
ENDCHAR
STARTCHAR uni1EDD
ENCODING -1
SWIDTH 600 0
DWIDTH 16 0
BBX 16 20 1 0
BITMAP
0E00
0700
0300
0180
0007
0007
0FC6
3FFE
703C
6018
E01C
C01C
C00C
C00C
C01C
E01C
6018
7038
3FF0
0FC0
ENDCHAR
STARTCHAR uni1EDE
ENCODING -1
SWIDTH 600 0
DWIDTH 16 0
BBX 16 26 1 0
BITMAP
0780
01C0
00C0
00C0
0380
0300
0007
0FC7
1FE6
387C
7038
6018
E01C
E01C
E01C
E01C
E01C
E01C
E01C
E01C
E01C
6018
7038
3870
1FE0
0FC0
ENDCHAR
STARTCHAR uni1EDF
ENCODING -1
SWIDTH 600 0
DWIDTH 16 0
BBX 16 22 1 0
BITMAP
0780
01C0
00C0
00C0
0380
0300
0007
0007
0FC6
3FFE
703C
6018
E01C
C01C
C00C
C00C
C01C
E01C
6018
7038
3FF0
0FC0
ENDCHAR
STARTCHAR uni1EE0
ENCODING -1
SWIDTH 600 0
DWIDTH 16 0
BBX 16 24 1 0
BITMAP
0E10
0F30
19E0
10E0
0007
0FC7
1FE6
387C
7038
6018
E01C
E01C
E01C
E01C
E01C
E01C
E01C
E01C
E01C
6018
7038
3870
1FE0
0FC0
ENDCHAR
STARTCHAR uni1EE1
ENCODING -1
SWIDTH 600 0
DWIDTH 16 0
BBX 16 20 1 0
BITMAP
0E10
0F30
19E0
10E0
0007
0007
0FC6
3FFE
703C
6018
E01C
C01C
C00C
C00C
C01C
E01C
6018
7038
3FF0
0FC0
ENDCHAR
STARTCHAR uni1EE2
ENCODING -1
SWIDTH 600 0
DWIDTH 16 0
BBX 16 25 1 -5
BITMAP
0007
0FC7
1FE6
387C
7038
6018
E01C
E01C
E01C
E01C
E01C
E01C
E01C
E01C
E01C
6018
7038
3870
1FE0
0FC0
0000
0000
0380
0380
0380
ENDCHAR
STARTCHAR uni1EE3
ENCODING -1
SWIDTH 600 0
DWIDTH 16 0
BBX 16 21 1 -5
BITMAP
0007
0007
0FC6
3FFE
703C
6018
E01C
C01C
C00C
C00C
C01C
E01C
6018
7038
3FF0
0FC0
0000
0000
0380
0380
0380
ENDCHAR
STARTCHAR uni1EE4
ENCODING -1
SWIDTH 600 0
DWIDTH 16 0
BBX 12 24 2 -5
BITMAP
C030
C030
C030
C030
C030
C030
C030
C030
C030
C030
C030
C030
C030
C070
E070
E060
70E0
3FC0
1F80
0000
0000
0700
0700
0700
ENDCHAR
STARTCHAR uni1EE5
ENCODING -1
SWIDTH 600 0
DWIDTH 16 0
BBX 12 19 2 -5
BITMAP
C030
C030
C030
C030
C030
C030
C030
C030
C030
C070
E070
E0F0
7FB0
3F30
0000
0000
0700
0700
0700
ENDCHAR
STARTCHAR uni1EE6
ENCODING -1
SWIDTH 600 0
DWIDTH 16 0
BBX 12 26 2 0
BITMAP
0F00
0380
0180
0180
0700
0600
0000
C030
C030
C030
C030
C030
C030
C030
C030
C030
C030
C030
C030
C030
C070
E070
E060
70E0
3FC0
1F80
ENDCHAR
STARTCHAR uni1EE7
ENCODING -1
SWIDTH 600 0
DWIDTH 16 0
BBX 12 22 2 0
BITMAP
0F00
0380
0180
0180
0700
0600
0000
0000
C030
C030
C030
C030
C030
C030
C030
C030
C030
C070
E070
E0F0
7FB0
3F30
ENDCHAR
STARTCHAR uni1EE8
ENCODING -1
SWIDTH 600 0
DWIDTH 16 0
BBX 14 24 2 0
BITMAP
0700
0E00
0C00
1800
001C
C0DC
C0D8
C0F0
C0E0
C0C0
C0C0
C0C0
C0C0
C0C0
C0C0
C0C0
C0C0
C0C0
C0C0
E1C0
E1C0
7380
7F80
1E00
ENDCHAR
STARTCHAR uni1EE9
ENCODING -1
SWIDTH 600 0
DWIDTH 16 0
BBX 15 20 2 0
BITMAP
0380
0700
0600
0C00
000E
000E
C0CC
C0DC
C0F8
C0E0
C0C0
C0C0
C0C0
C0C0
C0C0
C1C0
C1C0
E3C0
7EC0
3CC0
ENDCHAR
STARTCHAR uni1EEA
ENCODING -1
SWIDTH 600 0
DWIDTH 16 0
BBX 14 24 2 0
BITMAP
3800
1C00
0C00
0600
001C
C0DC
C0D8
C0F0
C0E0
C0C0
C0C0
C0C0
C0C0
C0C0
C0C0
C0C0
C0C0
C0C0
C0C0
E1C0
E1C0
7380
7F80
1E00
ENDCHAR
STARTCHAR uni1EEB
ENCODING -1
SWIDTH 600 0
DWIDTH 16 0
BBX 15 20 2 0
BITMAP
3800
1C00
0C00
0600
000E
000E
C0CC
C0DC
C0F8
C0E0
C0C0
C0C0
C0C0
C0C0
C0C0
C1C0
C1C0
E3C0
7EC0
3CC0
ENDCHAR
STARTCHAR uni1EEC
ENCODING -1
SWIDTH 600 0
DWIDTH 16 0
BBX 14 26 2 0
BITMAP
1E00
0700
0300
0300
0E00
0C00
001C
C0DC
C0D8
C0F0
C0E0
C0C0
C0C0
C0C0
C0C0
C0C0
C0C0
C0C0
C0C0
C0C0
C0C0
E1C0
E1C0
7380
7F80
1E00
ENDCHAR
STARTCHAR uni1EED
ENCODING -1
SWIDTH 600 0
DWIDTH 16 0
BBX 15 22 2 0
BITMAP
1E00
0700
0300
0300
0E00
0C00
000E
000E
C0CC
C0DC
C0F8
C0E0
C0C0
C0C0
C0C0
C0C0
C0C0
C1C0
C1C0
E3C0
7EC0
3CC0
ENDCHAR
STARTCHAR uni1EEE
ENCODING -1
SWIDTH 600 0
DWIDTH 16 0
BBX 14 24 2 0
BITMAP
3840
3CC0
6780
4380
001C
C0DC
C0D8
C0F0
C0E0
C0C0
C0C0
C0C0
C0C0
C0C0
C0C0
C0C0
C0C0
C0C0
C0C0
E1C0
E1C0
7380
7F80
1E00
ENDCHAR
STARTCHAR uni1EEF
ENCODING -1
SWIDTH 600 0
DWIDTH 16 0
BBX 15 20 2 0
BITMAP
3840
3CC0
6780
4380
000E
000E
C0CC
C0DC
C0F8
C0E0
C0C0
C0C0
C0C0
C0C0
C0C0
C1C0
C1C0
E3C0
7EC0
3CC0
ENDCHAR
STARTCHAR uni1EF0
ENCODING -1
SWIDTH 600 0
DWIDTH 16 0
BBX 14 25 2 -5
BITMAP
001C
C0DC
C0D8
C0F0
C0E0
C0C0
C0C0
C0C0
C0C0
C0C0
C0C0
C0C0
C0C0
C0C0
C0C0
E1C0
E1C0
7380
7F80
3E00
0000
0000
0E00
0E00
0E00
ENDCHAR
STARTCHAR uni1EF1
ENCODING -1
SWIDTH 600 0
DWIDTH 16 0
BBX 15 21 2 -5
BITMAP
000E
000E
C0CC
C0DC
C0F8
C0E0
C0C0
C0C0
C0C0
C0C0
C0C0
C1C0
C1C0
E3C0
7EC0
3CC0
0000
0000
0E00
0E00
0E00
ENDCHAR
STARTCHAR uni1EF4
ENCODING -1
SWIDTH 600 0
DWIDTH 16 0
BBX 15 24 1 -5
BITMAP
E00E
600C
701C
3018
3838
1830
1C60
0CE0
0CC0
07C0
0780
0380
0300
0300
0300
0300
0300
0300
0300
0000
0000
0380
0380
0380
ENDCHAR
STARTCHAR uni1EF5
ENCODING -1
SWIDTH 600 0
DWIDTH 16 0
BBX 14 20 1 -6
BITMAP
E01C
6018
6018
7038
3030
3870
1860
1C60
0CE0
0CC0
0FC0
0780
0780
0380
0300
0700
0638
0E38
FC38
F800
ENDCHAR
STARTCHAR uni1EF6
ENCODING -1
SWIDTH 600 0
DWIDTH 16 0
BBX 15 26 1 0
BITMAP
0780
01C0
00C0
00C0
0380
0300
0000
E00E
600C
701C
3018
3838
1830
1C60
0CE0
0CC0
07C0
0780
0380
0300
0300
0300
0300
0300
0300
0300
ENDCHAR
STARTCHAR uni1EF7
ENCODING -1
SWIDTH 600 0
DWIDTH 16 0
BBX 14 28 1 -6
BITMAP
0780
01C0
00C0
00C0
0380
0300
0000
0000
E01C
6018
6018
7038
3030
3870
1860
1C60
0CE0
0CC0
0FC0
0780
0780
0380
0300
0700
0600
0E00
FC00
F800
ENDCHAR
STARTCHAR uni1EF8
ENCODING -1
SWIDTH 600 0
DWIDTH 16 0
BBX 15 24 1 0
BITMAP
0E10
0F30
19E0
10E0
0000
E00E
600C
701C
3018
3838
1830
1C60
0CE0
0CC0
07C0
0780
0380
0300
0300
0300
0300
0300
0300
0300
ENDCHAR
STARTCHAR uni1EF9
ENCODING -1
SWIDTH 600 0
DWIDTH 16 0
BBX 14 26 1 -6
BITMAP
0E10
0F30
19E0
10E0
0000
0000
E01C
6018
6018
7038
3030
3870
1860
1C60
0CE0
0CC0
0FC0
0780
0780
0380
0300
0700
0600
0E00
FC00
F800
ENDCHAR
STARTCHAR dong
ENCODING -1
SWIDTH 600 0
DWIDTH 16 0
BBX 14 24 2 -4
BITMAP
0030
0030
07FC
07FC
0030
0030
1F30
3FB0
70F0
6070
E070
C030
C030
C030
C030
E070
6070
70F0
3FB0
1F30
0000
0000
7FF0
7FF0
ENDCHAR
STARTCHAR uni030F
ENCODING -1
SWIDTH 600 0
DWIDTH 16 0
BBX 10 4 3 16
BITMAP
E700
6300
3180
18C0
ENDCHAR
STARTCHAR glyph884
ENCODING -1
SWIDTH 600 0
DWIDTH 16 0
BBX 11 5 2 16
BITMAP
0060
3CC0
3D80
6600
C300
ENDCHAR
STARTCHAR glyph885
ENCODING -1
SWIDTH 600 0
DWIDTH 16 0
BBX 11 5 2 16
BITMAP
C000
6780
3780
0CC0
1860
ENDCHAR
STARTCHAR glyph886
ENCODING -1
SWIDTH 600 0
DWIDTH 16 0
BBX 11 6 3 16
BITMAP
01C0
0020
3C60
3CC0
6600
C300
ENDCHAR
STARTCHAR glyph887
ENCODING -1
SWIDTH 600 0
DWIDTH 16 0
BBX 8 8 4 16
BITMAP
71
FF
8E
00
3C
3C
66
C3
ENDCHAR
STARTCHAR glyph888
ENCODING -1
SWIDTH 600 0
DWIDTH 16 0
BBX 8 7 4 16
BITMAP
0E
0C
18
C1
C3
7E
3C
ENDCHAR
STARTCHAR glyph889
ENCODING -1
SWIDTH 600 0
DWIDTH 16 0
BBX 8 7 4 16
BITMAP
70
30
18
C1
C3
7E
3C
ENDCHAR
STARTCHAR glyph890
ENCODING -1
SWIDTH 600 0
DWIDTH 16 0
BBX 8 7 4 16
BITMAP
38
0C
0C
91
C3
7E
3C
ENDCHAR
STARTCHAR glyph891
ENCODING -1
SWIDTH 600 0
DWIDTH 16 0
BBX 8 7 4 16
BITMAP
73
FF
CE
00
C3
FE
7C
ENDCHAR
STARTCHAR glyph892
ENCODING -1
SWIDTH 600 0
DWIDTH 16 0
BBX 4 6 6 -6
BITMAP
C0
60
30
30
F0
E0
ENDCHAR
STARTCHAR glyph893
ENCODING -1
SWIDTH 600 0
DWIDTH 16 0
BBX 5 7 5 -5
BITMAP
18
18
18
18
18
F8
F0
ENDCHAR
STARTCHAR glyph894
ENCODING -1
SWIDTH 600 0
DWIDTH 16 0
BBX 5 7 5 -5
BITMAP
18
18
18
18
18
F8
F0
ENDCHAR
STARTCHAR uni0162
ENCODING -1
SWIDTH 600 0
DWIDTH 16 0
BBX 13 25 2 -6
BITMAP
FFF8
FFF8
0600
0600
0600
0600
0600
0600
0600
0600
0600
0600
0600
0600
0600
0600
0600
0600
0600
0200
0600
0380
0180
0380
0F00
ENDCHAR
STARTCHAR uni0163
ENCODING -1
SWIDTH 600 0
DWIDTH 16 0
BBX 11 24 2 -6
BITMAP
0800
0800
1800
1800
FFE0
FFE0
1800
1800
1800
1800
1800
1800
1800
1800
1800
1C00
0FE0
07E0
0200
0600
0380
0180
0380
0F00
ENDCHAR
ENDFONT
